<mxfile host="app.diagrams.net" modified="2022-04-16T13:33:47.377Z" agent="5.0 (Windows NT 10.0; Win64; x64) AppleWebKit/537.36 (KHTML, like Gecko) Chrome/100.0.4896.88 Safari/537.36" etag="hBN0ieE-JblvfDORL1to" version="17.4.5" type="github">
  <diagram id="JGprE4NX6DgqNT-i-eMd" name="Page-1">
    <mxGraphModel dx="1382" dy="438" grid="1" gridSize="10" guides="1" tooltips="1" connect="1" arrows="1" fold="1" page="1" pageScale="1" pageWidth="850" pageHeight="1100" math="1" shadow="0">
      <root>
        <mxCell id="0" />
        <mxCell id="1" parent="0" />
        <mxCell id="PNLS9gLG13Q5mSHf56RZ-1" value="" style="shape=image;verticalLabelPosition=bottom;labelBackgroundColor=default;verticalAlign=top;aspect=fixed;imageAspect=0;image=data:image/jpeg,/9j/4AAQSkZJRgABAgAAAQABAAD/2wBDAAgGBgcGBQgHBwcJCQgKDBQNDAsLDBkSEw8UHRofHh0aHBwgJC4nICIsIxwcKDcpLDAxNDQ0Hyc5PTgyPC4zNDL/2wBDAQkJCQwLDBgNDRgyIRwhMjIyMjIyMjIyMjIyMjIyMjIyMjIyMjIyMjIyMjIyMjIyMjIyMjIyMjIyMjIyMjIyMjL/wAARCAMqBDgDASIAAhEBAxEB/8QAHwAAAQUBAQEBAQEAAAAAAAAAAAECAwQFBgcICQoL/8QAtRAAAgEDAwIEAwUFBAQAAAF9AQIDAAQRBRIhMUEGE1FhByJxFDKBkaEII0KxwRVS0fAkM2JyggkKFhcYGRolJicoKSo0NTY3ODk6Q0RFRkdISUpTVFVWV1hZWmNkZWZnaGlqc3R1dnd4eXqDhIWGh4iJipKTlJWWl5iZmqKjpKWmp6ipqrKztLW2t7i5usLDxMXGx8jJytLT1NXW19jZ2uHi4+Tl5ufo6erx8vP09fb3+Pn6/8QAHwEAAwEBAQEBAQEBAQAAAAAAAAECAwQFBgcICQoL/8QAtREAAgECBAQDBAcFBAQAAQJ3AAECAxEEBSExBhJBUQdhcRMiMoEIFEKRobHBCSMzUvAVYnLRChYkNOEl8RcYGRomJygpKjU2Nzg5OkNERUZHSElKU1RVVldYWVpjZGVmZ2hpanN0dXZ3eHl6goOEhYaHiImKkpOUlZaXmJmaoqOkpaanqKmqsrO0tba3uLm6wsPExcbHyMnK0tPU1dbX2Nna4uPk5ebn6Onq8vP09fb3+Pn6/9oADAMBAAIRAxEAPwDrNg8whVXHrUoTsKru7QYcruTvVpCJQBGc7jgYriR1M8y8dSD/AISiVCThIUC5+h/xrsdLATTrVdvSJM/kK4jxtFLD4wvopkKyIyKV9PlB/rn8a7u1Xy4Y0OMqABjrxV1NkiIbs1E4UZGKccFeentUEbnA61MhwMY4/lWRoRYyTTNpH0qQfeNIzgd+KAGZBOO9OBx0FMIG7Ipy5U8jvmgCUDNN2nPWpBg96ZKQi5xk5pgCKu9tx49KWJ9/EKkYPJaldPn8wH5SKf5wQDA74polkMhkEhjdgVPalRPLkGPuU24ZHJ3N84HYcUsIZxk8YHccUdQLTEAAcH0poGcnP4VE+PIc8jHXAqMDpTYJFkSIp54JprIrOGyMVGcMMU1Bk4wQAakdiXGxuDyeRTHR3IdogWx1zUUqypexybsRg4xnirhkGVBwVb9KpCGF1WIhs5xjAqOIAoc8kU64AVh83J7UwSEYP6UMERXRIIUHA61FFLLHKFUfIe9TsfMfkUwo27ODxSQycAygDd84OcA0Iw3FCDleOnWorcFZx1GT3qV1eGVhwVPO6qEKc8DOM0rLtXAHOMCmqdxGDTgx3HeOKQDIAyE5OanY7gP0NRtIVOAox65oRz0POentQxk2NwHr1pCCTim7ilSjDDPFILkaIRIRxirA4HFRjg5xUmeM0IBMnPNKF5yKAyk+tLkUxBjHWo3HUkE46U9s96TrQBHzmkWBTMZWzu7CpMc07vjsKBkZUBelMJ29uKmIyKQrxSERx7QwIHJ464pzDg8hhSEbQDURIDn5j9KoBCWz8xzUgUHjvSA+p9qdEily3PA/ClYBrREN0GOvWoSzCbvkDGPWplhaJQN3Ap+EWTdkewpgGxgg3Y3Ac5pX2pGuDkU13HfDHvmo3YAAMMcdulO4gy5bjk+9WI/9XgkE96h3jIA6UzfhyQM+vPWkhlqNsfKB8vWowB5hYDH1p4OULDjHWlRt65AzTJEyHXocgVCIwAeMMTUwwsnfnrSSIclgPlIpNDI1BQjbVksTxjB7moUU9eox2qReCc9CfWmgYjqv3iMHuRTcKcBhkDvTpyAVUcHv70karkk8mmA1yrZ4yKa6ggZXgdO2KsEAjBz17U/ykYD09DTsK4yOFAFAH41Y2AJimALEoVR+OaXH4fjTEKg+bJ/KpOM1GDzTlOW60XEDgryOKieQAqhDZfOCFJHHqe341M3JGaQn5SaQzy7x6ceKY1PQ2aYOP9t66nRZvL0HTAEZwYFOfQVynjtQfF0bMmF+xJznv5j/AP166vw6xOi6aA2ALZOCDycc/hWkvhREdzZVCV3Ekq3T2pwXBwaljIL4cc9sDinsmeRWTRrcagzjHHYUoYoWAGfSngYAPpQvOeB+VIRG3THryajZOc1MRzQQOpqWhohGQc4yaeCOhoJGD60jD5elJDDjtSP0B60BWDA5IHpSMV3cEnjtVAAIZMtwAetM37u3HanthzghgPSmlQCAM0mAnUEdAPWkxzUhjXGCePT0pFCD1JpWHcjU4cEHGD1qwZVmjZF++hzg96i+ULnaKjR8SYVQGx1qloJ6jYofL3MnOTgHHSrALlF3JhhwRmmTF1wDvCN6etSoC8Z+YHPemIaYyxI4Bp5Ur8u0MDweaYo2qVGOuc0rbH9/xoSQDmUBFQL8o4xijaArAUxGYnAOMdqQt85KjJHWgAjUphuQc547/WplYrx0FRKGI5GPpUmc8HmkAx1Dg5Gc9s1BjERUngHj6VZK0x8YCEcnp7VMikIv3BjrTHXuKen3celDe1SMrsCDnOaaV3MF6GpmbA47U1d8hJBHt70CGOp2j5adHG2eTgYq0h+Xnr34phKqSD+QptBcYTkbV6+tCoQPn4Hp60M2wcYAqBnLEc/T2pAT4HQDrTo5DFkBcjNRxyAfKxw386lfA4J5pgSjBBO/IPQVTGYWOF6nmnSXAhjV+ysBjueasARuM5bn2pvUWxXWU7/mHB7+lWQNwz2ppROuyjzRwMflSsFxQ2CQTS5BqKZ3H3EGO5NIrttAIAPtQMc/DdOKbgY9qXccYGDSr/tflQAAjbyKYMDgdKkdhjp0qu0vPv7UMEPX5Sak3bhyPxquH7kkVMjAjP60gEIwCccDtSFcndipCf0qPnNAChf1oKAd+aZ8w6UhkGQD1oAkHPWlwRyCKZmpByKAIVQhtwkKr3THGfWn5ZuRkjPPtSFfm6c+tJ5rDManBHtmmDHshGH8zYB1XH3hTFL8nfuB9KlRV2EyNuYjqarh/LfaRwemelJiLEKIWEgIPHFKyknG4nPpQjYHykAUhZ16YpgPEYGCT0oIOcjNRqzMvzfjigHaevBpXAfx36UVBcmYRjy+oNFFwtcrlN6YI/OorZPImX5iGJGMGrCsHTtV3SI1l1W3DqJAHB28c4571UVqN7HkPiiS5uvG+ofaWLT/AGkROSeflwg/RRXoEfzNkHOO9cPrqwy/EbURGpXOpOME99+PyzXdQHaADzxgE1dXoZ0yymME9qk35PBqAnihQQMg1kakkqkEMKYCCwB5FPlkBQKBTE5U54NAEu0N0pMYP9KQD8aeeRnHNACBtpzSM5PBPHpSkZ7VGXwcbelNCHxuVba33T+lPWMEZPbvQqhhkfyqXaAoJz7gVSAi8tRIrDd07UsxfbxnnsKczcjqooEoLNGQwHY4piIoxvjKliCfemI2R0xg4waluE8mP5FOD1NVQrRxCR5B83apY0ThgDyKbM2BleB3qISc5HT1qTq6nAwPWkMbLIpCKchCKeil0Qq5UA9u9JK6uPmReD1qNJ9rBSFz2Ud/wpoRM0IDmQtk+9RmNnb73505jmYnDAHtVyNQE3KKdriIYLd48M5HsKR4XYnDZ/SpmkRVw4II5FRm4QuEGcn2p2C4wLsxuZQ3uaWXc0gIOVxgj0pCo3EkZPvU6APuBXnHQUCuQY2njp7U4HI5496FXHUUj+1IZIhB+tNYYI449Ki5Q56etTAiRTigBhEjyDAG3HWpyxRRxmmLkAc0uDnvSABL0z1Pam+eehPNK33hTGhyxfNCGAn69QabHO27JJx3zUYXJyTim+W+7KqcH1NMRfEhZQSMU7zF3YzVRg6K2wkkDAA9aiWKXeJJTtUds9T9KANInaM9+1LnnB696oNcSbizgkdAoGMU5ZGc5HpjFAFwuARmjcMfpVQFsjqT9adlt4B/GlYC1gMpDciqTRmORh2B4q0hB6U14lY5JNVYRXTJkwwBHWrKERqR37CoXGT6Y700bnlyhO73NAMlVmJLvkKOCMdabIwaQsemcZolf5sA5GaiYnBJ+6KAQ8uMk847EUhJPJ6U1TlcdvapdnHU0DEAz0OKZtYyEE8UoyFJJxQpJyFoAmRmELoecjOaZFKVXbu4pzMoh8sHJ7mqp3joRj0piLwfPAP404H5djH6VTiLFQQME96sqdo3YOOg96aAdgooBpwIIAPWm7C7ZD57EYpRiMjv9aBEjKGQccj1prDywAWA5qVXBHT8agklCne43ID2HSmIeq87jT+vXp2pPlZAQQVPTFA5+lMB2QD0/GkVjklgetOUcHpTCSTtLYoESKQykgGlUg96rgPGzBmJVu/p7VOvTNJjJc7vakdflNKoyKJOFoQHlPxAk2+KEwcEWKdv9uSuv8PMRoOmLtOPssR3EdyorjviJuHiyJB/z4Ic/wDA5K7Lw2jL4e0pi7fNaRZyc/w1rL4URHc6KIhV244p+TngdaWOPK8cVIV2/WsSyArzgfjijkHGOlT7QAT6VEPmGTQMTnv1pM5NPPSmdD0pANIGDgAGkRj0IBpxxnFJx2pARSknhfxpIxjPrTyvU1GM9aCh+MDFHFH1NL0oAaR7UxsDFSN0zxUZAbFIBvWpUCsq7gODxTOlIM5zTAmdwMjHQUxZNqhR8pJ4pXC5BY4A6e5oVhj+YqhDE5yWOGPUmkJ2jA5HrUgGEC5JHv1pjsM7AdoHU4pMCRFGCSOfSkK8EetIjD5VBJB7nqalI7GgCMcdKdTH60A4UHnNSMdzTGUsece1O3UE460mwIvuk8cUsjenSkcnaT1I6Cow2Bjq/f0FSMaASctkjsBQGwwz0zggU9c7+Tn2oZAASvFACyTYA29uue9M35yRnB65owD1H4UEUN3AbgtwOlCIOpyaXBBxnj3pTnFAxjbQF+YcdqmSR24OMe1VzHnp2qVUYc8Y9KAEaJpLtB/CPm+lTzhj8yj5h3z1pY1EcRdjy3f0pTjy+oA9uau2hJXE0oYs3TrikWVmbJI2+1OKkk56dhULqQTxioGWQ4cZU9KUnmoIwVAHNT9ulMGNLYFKWJUY60YAOSOaaXyPpQIaSwDEd+uaiOGXAJ3ZzTmkyeB8uOtQyHHTjFIY/k8cU9HYALnpUELZGM8VKOOaALCnBz6012AOT0prFQFOcZ6U4fMDntQAjsQuRUZG/Bxz70p4XBOaVW7YpAKqnjmpA4GB1PpTBjtSbTuzmmgHy8r8pAIoyGB2/e9fWmEDHTmmYYn5T+NMQ7LGXPOPQd6VkZ2IZiF61JGCBnbknqccChlGRuGTQAjkJHtxlfU96HJbDEYGOtK4R88Avn1qObMMeMjmkwHg4pwIBqurvsGRgeppY3yTnt3pDJy5JPX6UU1GAB46+tFMRVwAu0Vq+G0J1uDPQBj09jWXL5a4bdj2rb8Krv1bcG4WNjj17f1q6a95BLY8bmmF14/uZwrKJNQmkCngjLsRXdxsMAnrXnujus/ilJFOUaR2B59DXfrhTx/Orrbk09i03IBFKG4wKajZXv71IpVhWJoMJwMnpTWfkY6/WpCQuew70zClgf4TQBMrDoad2+tRKQMZ7VJ16HigCSPBBAqTaD/jUQAxwakTrQgGxghyAePSpGO1STzijbznODTsEDnFWiQ+8nQZxxVR2l2/MB15z1FW0yG5prqocs2ce/SqArC5aVCAjDA5zVV2O8MP9XjGD2PrV6VQh3KRk+/FRFY3YgNkjsDUsCs021AuAVHoOlSBt3NNe3+cZIOeMjpUxRYFAIUt2Gc0hkDAn3p6xhdjrkueMDtUZZ9zHceRjGajYOkRkjcq2eooAulSzBcnPpVp2MafKSSO1V7IkWgLNl/U96VHZ433D5u5BqiSMynBEnLdqIVJlVtvHqajK7TlgaljYDq+BilcZNcRefHsBK5PJAqRMpHjOTjqe9Ro4Q/MTSh4xuBZuRjHYVQhQxQnK7wfTqKOCc4xmnpKMf6sjPeoZWdHBCgoaTBDZUySaI8gbieOlSOMjtUPIFK4yYtgZpd425qPJCbuPemIxcgnjntSAsLllLYxSK7ccZoB96XcuD1/CgYg29cD6008tkHgVE7kH7uPrT4NhUuTkelNCJQwjTIB3seP8aCgOM8nNM3l3Lt0PQUhZVO4sAe1DAZIp3HjrQiOnTjNWUAYZJzSkjOMUAMVSVyevvQQNmW+pp/TIAp+1Bgke+aaAbAzSR72TaOwoKjPB696iBdzuPA6KKm6Y5piK8wIJwO3FMVfKQN/E36VNMzdkz9arlzIxY5HFIESgKF3N09ajO45UZ2nmnqSYjnOOgp0bIcr+eaBkSI3GBwKewcDjIIp+9YjhmUc4xmnk8nofxoArHe3GDSIrRZkyduPTrVk5jQtncfQGopsE4ZlA9BTFciyScjJHsaTIDAsPlqSEhOPmYdPSpN8SvyPmHT2oAIVwMkY3dM1Ykfam2MDPvULNswc/MeQKVWLA0XExY3KZG4cnninu+SuMc9agJK9qd99MUBYlUcNtODSIA+Vxn601pNpUbetSpglh/EB1pgQReZb/uvvjOQPT6VeGOB6VAYyy4J57HFSRBtmHIJ9emaaEx/0oCE88e1AwRj0oAK8g8GqEOILKQR+VII9igDpUqY6gcntTzHuosFxsanbilmUhQcU9F2mlugfLU0rAeQfENT/AMJbGykf8eKKef8Abeu28LLu0LTgw6WkWf8AvkVx3xCP/FSRE9RZrx1/jeuz8LHGgaaWO3daxYB/3RWkvhREdzqEUBQfagJk89amjjGwcc4pWXJGBWdiys6seB071GARwRV3Zkc1Ey47UmMgC96aRUhHBOOKYeakCJuBxTMelPkHBPpUe4gYPFAwByOaafYUpxRSGR57Hp6U8HcPSkK9xSKwVRkHikMcelIRil3jPtQMH6UANILE4pAOcNzSn5MmkUksSBwO9CEExLAAdcce1NXJ+8+SB3p8nBDYzkVCykvkDmhsaQ8Ngj0HenP8zbse1N4xjjinA7V6Z46UJgKgIJIxgetKWbJJPyigOdoyoBx09KazEFV/vUxDiARTCcHHb1qQ5FRsNwOOtSMC44BPFBIHSq4B3kHt3qXJPUUhjJWyxC9egpseNvHPrSkHBJPzEcUkON2OSeppAS7cjB+tHIHJ49KcwOR6UnJXAGPpSAbjAzRilKn8qVeaYyNlI70ik9M8Gp2AIyKYBnpwRQAzHPFOHYAnJOKftwQfWgIWkXHYgn6UIRJMF2BSOnSoQcfjUkpz0PGaZuXpVPcENZ9pABC0uFPfmgqDg9KRWAfkD60gFPHSgv0xT22lfeoQPXigBWOSKa3A4pW6cUjHIGBSAjOBlc/jTG2g4BzkdfSnyY44696am3OST7YoGMCqCAuTU4YbQMY9qRRgnPNM3hWz/PvQIJBkjPNPV9p9Rimnax3UZJz6UgA5Zs4707IYACmFsAYpob94ccA9qALC9KUcnGabGxxz+dOB5oAGjbHykZpUTywNx/KnbhilPIpgSKBtKqevrTREpzknNKrZGMYwKTGOaqxJWbbubAIb1Azin+dHKChwWA5GelTSRlsEAD1qIwJE29FAI60rDK0mGIU8j1z0pQ4UqMDC96mZUbg4Ut0A71E9uwI549F9KQDmk4yDRTn2xR/KDuI470UxkJOcjitnw/M0BvJk2M8VuzbH43gc4z2+tc+ZeQQOPepH1H7Jo2rvtOJLGSPcvBQkYyPzq6b94Utjy7wmC/iBZQudqMx4zjIx1PPevSQikDv0zivOvAyhtWnPXEB+nLLXosQyozzTq7kw2JUXDYOPp3p44bA9aZ/FnFNLfNu5NZGhPgONmKj8goTjJAqWMhiCM1I+dpAPWgCo65OKkRjwuKRkKDNKj8cYzQBJkgYxSq5PFRqf71SgfNkcUAPzjgmmswAGT0oC4xTsDGD0qkxEiOrDcOlIxVhg01RkcHNOkHy4XrVCKkxL4yOB2pRJsKtjk/w7hU+xSmT17Cq1zEPLBVQWHQmkBJJMsQy+cHoAM1GW89shTgfnQ0ZliTLZwMYqSIhMgDHHegCs0GJT82R6GnRwgkgsPp2qw8wkG3kEcGkaFY1yoO6iwXGOu2MMXUFe/ap1mCKpx97r9aj3DycTAN6EikZlbG3kL1piIXdZXJU9DQAMYI59aSTIfgcGmMWwNpxUlE5LgYUjPvTvmJ+ZQpqNZGCAnr3qxEvmgnpTQgAfohBFTCTMW19u88YFRtJsIUAEd6ay4TzE65yKYhis+DuPShj8p6g+lSbCP3hAAPUCmPGWcYPFIZB5zIwU/dJ5xTyxThefTigxtjgZApiyEZwP0pgTxykEqysfoKkLAZOOvbFRN5iKSCMn3phDqC0jE+gz1osBI6tIuVFOWPywI8gnOWp1rJgkvkAegzScDJGSGOaABssR2pje6lh6AVJvG0gcE1GpAYg5J/SkBJGewBGOxpPMDuQrDcPWmE5+QjntimkFBkYyKALKSKVy7oCOuOaDMoHzypnoMVA6Rphohy3JPqaZJjq33u9UBOJ0JCqdx6elOWYsSuxlIHOaqJCGkDbeh6+tOVHxJ2OTxnNICfazlSCVI65wSaDJGsmAMsei1GmY0AUAD2HWmCIAl2xzTuInaT5wokUD0zSlSMsj+/WqyRh3OVCj65zVoRgDFICHZHuO4jeec4o2oGyWUc9MVPsUg8CmGJSQMc0Ah5aOWIBgvXA5qqAA+GyBnjBzkVMYAOAAPpVZof3n0oCxaiVWJ2E+uD2pJEJbNRIh2NgncevvUkMZGQ560BYDtABYg/jSJd5O3aMDjIFSPCCciqzwGMls8npQIlMu9uASPrUikFRg/nVRMghsnj+GrK4Kbj060xkqjI9DninRZZ85OPWoBMANzYCjqTVhWVow6MG+lMTJd2G9qXlqZ/DzQjHJGcj6UCFDSKTkLjtinIXP3sYpSN1KoGeME+1MCwqkcirCjjioYxxzViL72McVSEx0cfzjIo1DKKgKkZ6Yq1DCZHAU0a5FsSEDuD+FVYm54f44uBceK54zEUW3gjjZifvZG/OP+Bmu+8MqDoOmDgn7LEQwHUbRXE+P4lj8TRMo2tJZozY/iO5wD+QH5V3nhaMjQdKOclbWL8fkFVJe6hR3Z1sKjYBjrUnk5OAuKs2MAeEE9ehq01vxS5dB3MZo9pqNk74rTlg4xiqbpg4NQ0O5RkX0qArzxV2UDHA5zVWQYPTrUFEBGRUDYqdhUDbc+4pDDIPb8qQ5NKtLgjODSAackU3bzTzwOe/Sm5pAIy7jxxSFsHjtTj09qYduM559KChxfC5I69qji3LnK9TnHalZxtGOWpd2c4HPSmhMVvmOCcetNwPXim797fd570vrUspEZJyQOlKuSQc8UMMVIgBWkgYnmfMNwOAOTR5ikgg5pCm9SOMehpFAzwwAUYIxVEkhbA4PNMGe340AluTSCQd+KQxCDvBHTvSEnqtETbjzzUjqBx2pDKrkjdTPMDHaMgjpgU+faUPaoYVO5nC4HrSGaC896P4gKanI570EfNnPA6UCHMPmzQAATSjmhuFoAQDml4Ayaap9aXqKAANuNOhZfMkc4wvy0YIQ4609UCRhPxOaqKExhO5iecGo2GD71Jt7Uxh9aGMQZK01uBwKcaTGVJzj1pDFHK/WkZcZzSYPrikwe7GgQwA5JoORzn8Kfwe2KZtOCCcUgI5Apx15pmAv/wCupHXMfTgGkEeU+lADUkySO9McYPJz9aUDackcinFVdc+vagAWQbMD8qVJdwyF/WmLhHHb8KkChTwcCgBXyAWPTuKYGG/pn6VYBHQ8jtSeUvrigCHJQtxxnv2qVTx9aRgCc4P40sY/iJpASDGc04HimcEZFOXvQA4MQ3tTlIYHdgUzFBTcR7VSYmiVumBUchCJjJJb0p+3npTWXnHamwK42lgcZZeQalMhYbyMdzxTvKXeeMioUBBaMkBfTNSFhpfzTgLgD1NFOAESYA4FFMZnjbj5e/GPSoNantLbwbrYuFcu1sRGy8Ybtn26U5WPSszxfJs8H6gOMOEHI/2h/n8KqG4pbHIfDoMt5evjGI1Xk+pz/SvSIzhfavPvh5teTUXA5Hl9f+BV6HCuVBI4oqfEKGwvBppHarKled5qCRVVjtJK1JYqyBf8anjmDLyKqrycEUuSvAoAsv8AMPaq/KmnLkj+tKU3EUhADke9PT0ppUA+lKDg96YyUGk60mB1pVXHOTQImQYHvQM4zzmmq4DCnlDuyGIA7VohEb7SSCQrEVCWBYBhkU+RVeQk9u4qJiMYGenepYDnb5sBSMDsODTkIcejDrULzAqqBh8vBzSQsN7HOT2NAFny13hsHPt0pXUscZ49faqpkcHCseD2NMeUFiQTz2zTEXGCH91kdKgGF4BBzxwahadvMV8DAG2pM55JB+goAbMxPytnK+nTFNDcfWrAAlGwHtzVZo2DYAJHrUtFIcrYBGMmpkcryvHtVYEr1XmpFdj0GO2KAZOGO7npTxKy8E/L9KiQE43An1oZcDK5PrntTQi006FcZ+vFNVu/G4VWQM8yjadueasSgFHILAdMimIV2Abbjcx/IfWotrIMDA56Coo3AkO0kAZzVgksAMUDIJGYOPTHNKpiPDMAp96e0WT061Va2KMGHODnmlcCdcLkI3y9OacXIXgH61Geck5BFQ7WY8sSM+tAE6yZ6804vgbQevNRrndtxQ2VkwR0oAnUEjPH0pHxsJJpIHWTcRnFBjMkhTPFADxKEgBd1UZwCahMpYsYthC9S/X8qjvY285IokYqFzmpIrbyV2s2S3XHSmAW00jOzPJ8g4wBjJp5JVye3vTDGu5VQYC1YKqw54pAQiUnjGKcULEZGRj1qVI1B4ApSMEc0AKFAIp3U00HIBpfpQJi44oIwKRiQOOaAxJ+lAxCMiomXD5HSpW9jzUPmbtw44oAcSEXOabuJHt6Ux23KO3vQh96ALMbflTnUEYHWoEbaTuqTz0DbSecZ9qYhhgxnH603YwUgGpGnVsAfNn05o3F/YA0CIwoWLMgPzHFWoV2jC8KBwfWo3OVGMbh/KpFf92BwFHNMYscbB23OzZ7HoPpUgQqfamrKvl7wcjtTlbJPNMVhwyOtSrHjkcEUxfvc1ZQHHPWhEixkkHI5q1GMnjoahVSTkVbhTHB71aQmaGmxAsWPama6m+OLnGCeauWC4QmotXjLwpjsTWttCOp4h4/X/iqYCcYFguM9c73ru/DEQGgaWRnH2WLgf7orjvHsOPFUZIJP2FBj0+d677w3AV0LS8DJ+yxDOcD7opv4UC3OytE8u2RfbmpqRBhFHtS0CGSRh1IrMljwSK1qrXEakEjrUtDTMZ0xVOVGJO01pSoRmqjismjRMz2zg+tQkDk4zVmVTnAqFwc9KkY0gKgNNLDOMjJpTg8ntTCAzZ9OKTGK2DTDwKXg0fhUjQ3PrTHPy9Key80g4oQyJHVjt5DfSpkf92x7KaBgqSOD70qjCnJ7cVSJZGAGGRxmgUqjpjGKUrg8/pWZSY3IpRSYGabkg8GgZIKrPu8z5uo7VPu5HNMlUNyv3v500xAqtjOeO1RlQ3HcVMTiMLjtSAkHGM02A2MYOOlPkIAxQW2jAGc0gG7rSAhliDY6+9SRRgDA4FSNnHHFR8g1Ix4GOBSjHtSHmjOKAHAdKGOCKQNmkPPIoAMZNDAggDv3pM5OKftzjPSmA5OABzT3PtRGMnI6dKGPzH1q+hPUYDSlQcGlxQDipYxjAd+lNKj1wac2GBpp6dKBiL3p2eCOKapANNZAX3bjSAa2fwpBz/jSshU5zkUmfpSAa+QuVP1pg46mpSuQRkY96ixzxQA1/QdD3pq8DFOcGm8UAIR7UjyE8elKTzS7cDPr6UALG5ZgCDgd6tDB5qntC9CfwqSN25HWkBM6Ajn8MVD04znmpt+e+fpSFQ3OaAGAlRx61KCCM9aZtx9KcoweuKQx4OetLye9NGRThTQiQKQmMnml+6MAUm/BAOeadtbOQ3FWIhcdt/TtTAcAgAFiOBipGVck449qjOQd3QD1qRkRd0PzLxjkGil3CRSSrEdOlFMDNAzWP41x/wh90hcAOUAH94hgf6Vtjg81heOz/xTiqcDfMi8/n/Srp7kz2Mj4dxxpZ3UjAEtIF256cV3oPAC9K47wLCsemzYAz5vBPX7orsEzjt+dKfxMIbEihSOev1pjQ5U4YAj1pCSDjk/SnhiOCKkshBAbnqKcCGUmnyINvmDioAcHmgCRDkY9KXJzTFyT71KFyOvFIBCAR1pVHHvQwC4xSHPamBKFyME0q8cVDkg9RUqndimIkjUB8k9e2Kydc8TWOhSJDcB5JZFLKi8ce5rXIx3NVb/AEew1eDyryBZMHIPRh+PWtYcqfvbETTt7pw178QZVI+zQQgkZO8k4/UVDH8Rbsk+bY27Y7hyP8967UeGNEhi2LpVtjpkxhifqTTD4W0FkGNLtgQeyAf0rpVTD/yGHJV/mOPX4gtGuP7NhLHkt5p4/Snx/EhoVYrpiYYdDL3/ACroLjw1o6YEemwYzySCSKZ/wjWjhfmsY19CB/jS9ph/5Q5K38xgD4iTDJGnQBu2ZCRVVvHl6SW+z2o56EN/jXXwaHosJwun2zNjALKCakTRdPQkNaWoXsPKB/Sl7Wh/KPkq/wAxxP8Awm98W/1Vt/3y3+NKfHGplcKsHJ7IcfzrvFsrK3RitvCm5uSsYpTZxQqWt0UhiGNHt6X8g/Z1P5jgl8bavuDq6cdMQ/lTG8W64W3iVwp/6YDH8q9Djhi6suR6DFSjZIxXcDx360vrFPpAXsp/zHmn/CSa/IQA8rZ5GLfr+lO/tvxIz8G6J9BAP8K9H3N5ZjcfJ2BpzJgDjgd6X1mP8iH7GX8x50dV8TnJAvs+ohx/Sgal4r5BF+e+DEf8K9F4PfPtT12swGDR9Zj/ACIXsH/Mzz2O98XZ/dpfjHpFTVu/FhHyi/wc5Ow4FenHCJtwApFPVFVOOm3oKv6yrfAhew/vM8tF54sGSq32D/sAg/pTv7R8WZwVvsjr+66fpXpEYBADKA30pXYGU8AAe1S8Sv5ENUP7zPN/7V8WAZ2XoB/6Ycn9KcdZ8VKuPJuhx3t/p7f5zXo5k4xt60jHJwBkHrS+sx/kQ/YP+Znmza54lXDCO4X3Nv7c9qb/AMJB4hUK3lygZwD9n/8ArV6aMegHuBSnjrR9Yh/Ig9jL+Y8y/wCEr15GBIO3GcG3xgVJD421SI/MsRPXmE/416GyKcgk8nP40myMZyiMzDkMO1P29PrAXspfzHBDx5f7SPJt8HniNgf51IPH94wCm1tVJ6kbs/zruXtLaVGDQRkdQNg61V/sux6m1hJ90Bpe2pfyB7Op/MctH48G8l7JSeg2y/0xVhPHtsciS1kAx2Ycf41sv4f0yZT/AKLCrHvtqmvhXTNzmSENgYz0/wAafPQe8Q5aq6kaeNNKx9y4/BAf61dj8WaRIozO8fb50Iqqng3RpS2UdMf3XqKXwLYAEx3E6fjnFH+zvuH75djdh13SZR8moQY/2m2/zq5FPDON0U0cg9UYGuKk8ByGQmG/zxn50/rVWbwfrNuMxOkxHICnb+WaPZUXtIXtKi3iehkjjFMIJOT26V5s99r+lOGna7jVeMvllz6c1etfHFxEMXSQunQnJU5P6UPCy3jqNV4310O9DD/CkHes7R9UttYsPtVq7MobYwYYwR/+ur/J471zNNOzN076oH3HO2mMoBGFGKlBwtNI3cZ60hkRPYAEdBTgyg4wM04x7OOvvTSh3ZoAUKfLwep9ajlXJHIyOtSbjkBjTMYOTTAIyBgYqQ7VPJwfSoZsY4z60ZDAFuo6e9AmSK4PyhcAUkavvYZ3KTnryP8A61GFI6ce9OUbGyDzTET7fnA7YxVg8DAB6VBEfl25BOeDUuDxjuaBki5wMmrEecjtUCgDr2qwrDgCqRLLcRGQM1bTjH86pJg4bFXoecDtWiJNi1XbCKS8XdAfapIP9UtNuji3atDM8e8exj/hJItvUWYB/wC+nrvfDMRGj6aORi1i4I/2RXC+P8jxFFjGDaLkg8/eavQfDz79NsW9YIzx/uiqlsgW50Y4FFFFSAUyQAqafTJfu0mBlzAcg1Scdav3I79zVGQcVky0U3HUioH61Yk96gcEmpZZEcVEw7Z4p7cGonBJAFSxoCw3cUE1GwyeODTQSBUsCWmsRjFL2pmOpNFihcHbx17USMA4QnjGCKY7/u+uADzVFJRuBYEsWzn1NMRfLFGK4wB0PrUg5UE1XVGXduOVHKn09qlEnAzSYhW6Uw9P5U/cG6GmkfpUlCMFXnI/Gmxsz8gjGOMCmMpc8mnw4UkDFCAkCls0gGCQfzpXkKdKasnPIzzVASbM8ml+hzTC+evApMgMMk80gHFcn+lQzgowfPy55qY7i/JGKjmQyIUHXqDRYBVOVB7GnY54qvCzBNp7GrAOR2pFCEGmjNPbrxTDkEY6UCEwcg5/CpVYAc0wc1Iq7iAKEDJicKDnFQZ3DOT+NStIenGKjY9qtkoXPGTSZB9KTIIxzS9DUjA9KaB8uKVmGcU3PPSkMT7vWkJ//VTiwxUMjfNx0ouA5m/OkUc5zSLl+O/vQTjGeDQA/aT94UzaB25pyyFmwfwpxHHYGgCBlJ55qMrxjH5U8sQSCf1pxYKRkc0AIq7eSMHHTFOLoUII570hDNjHSl7YNICEjkkClX5hnrTyqkYK89iDxUefzoAeAQevWpFIFQg5Gc/jUiZK80gH7sikzlsd6FHpRjnmgCQU4HHpURY5O3GBSq5OQ1AEq/fB4qUHP0qJFyowakGKpCGuoHOcU1o8qRxg+tSkZH9KQMFHNOwEC/KoU9FoptyjS42PtHf3FFIDNX5uorlPiOT/AGDbKDj9+OM+x/8Ar11oPQ1x/wARj5lnp0Y4zIzH8B/9erp/EKexY8B5/sEHqWcknue39K65QT6Vy/gyJk8OQAgAksTj/eI/pXULwgwDUz+JjjsgPWmlt3QdKR5C/GDnNPyAKkY1sFdrDKmmohUhcEr2NSjnOKeW2KFJBNUA3y8Lk4FRh+SuelSE7gRnrSMoVV45oAaT2oznIpdvoBVLUtVtdKtftF7LsQcAAZLH0AoSbdkDdldlwnPAp6uEOf0rz258cX1+/k6ZaypuyAVj3uf5/oKof8JTr9k4aczqgIJFxAV798iumOFmzB14o9WWUMeeOKmQDgivLoPiPfr/AK22s5AemAV/rWhD8TGwA+mx9Oqz4/TFV9UqroL28D0CQNxg8d6jZQxBXArkoviRYEfvrK5U99uD+XIqZPH2jyFSUu4s9d8YOPyNS8PUXQaqwfU6GSQKCUUk5qC4XftZfXnIrKXxhoLtg3jJnsYm/wAKlTxDpMzEQ38W3GcyAqP1qHSmujLVSPctYUEFBzT0OeKqnVdNB41C1Pusopy39i3P2yDnv5grNxl2K5l3LLNuXAboeRUiDMRII+hprTWW1St1bkng7JBzR59tuZI7mIkDpuHFPlYXQ1AcZPXoaljBVxItQrKq7gXT16igzr08weuN1TYLoszyB87htYDII700SAxjuT602CVZC6CQFmHAzSbfLbYzLuHvQ0wuhwQFcrn6Uqg5A7jkmml8AKGAI9DT45hnO9T9DQh3J5ZXG0Dgk88c1MXGCF6jiqJlje4w0sanHdhUhu4o2G51O7gDNWrk3Q+NcSbiCSTxmmSH94fkwefxpxurdDuNxCB1OZBkCmT3lo2P9Khxn/noKHFhdDMk9MnuQKmXJXdggepqE3thFGX+12wyOB5oyfwzVb+2LBiC17bqBzt8wVPJLsPmXcvq6k98fSgkE5JOB2qg2s6YmAb+Dkf3x0qE69pX/P8AQ4PvRyS7C5o9zR8wgcge2KjjcDac1nnxJpGCPtanbxkZ/wAKBr2lFMrdqw68A0/Zz7Bzx7mzvBGVxUbnc3QAAc+9ZQ8QaSuN18gGM8Kf8KcfEek8Kt2nPGSDx+lL2c+wc8e5pEHjHSo9wHUY54qkPEOkhiPt0ZAOCeae+uaSVIW/h5680+SfYOePcvREhsAD3PrU5GR0rJXWNNABW+h/76p513TSMLfQdOfnHFPkl2Dmj3NVTgYpc8dax49dsfNwLuHbjrvHNWl1jTWGRfW/08wUckuwuZdyy6gjG0GsjU/CmlazEftEBikJyZYcI5+pxz+NXDq+mr97ULQe3nLmnnWdLCg/2laYP/TZf8apc8dUJ8r3G6VpNrolhHZWaMsS8kscliepNWS+G+bp2qu+taYuP+JjaHjIxKuf51WOuaWXK/b7fjnG8UnGbd2hqUVpc08k8AGhT83PWobW8tryNntriOYA4Oxg2DUoGOnWoasO9x5PGaYXUEZ7mo3YhhgnBpFKl8HNIaJZM7gaaHBzgYOaUtuwOM01PvHI5FAMNu4ZJx6k00sCAFxt7VLg7XJ7Dio0x5YJ/CmIMDafWlwP4QcevrQFJY/zp+wK3JJ7CgY+Indhl+XParh6j0FVolz3PXipQwOfSmIl6kVMh7Cq6nLDPap48ZFMRdjOauwEEiqCtgYNWYSQ2RVpiZv2v+pFR6hIEg57mlsZN0OPSqesybfKXtyTWt9LmfU8r8ez/wDFQovQCzUjvn5mrvPDdwf7I09nOWNtET7naK8w8ezf8VK+P+fZBwfdq9A8OyF9F01s4zaREf8AfIpyeiFHc7wcgGlqK3fzLdH9RUtABUM7YAFSkgDmqdxIFBJ/CpkxorXDZHHWqEp4FWGYtk561Wmxms2Wiu5yagY8nNSyHniq7DPXpUFEbnJppP50ppG6e9IZGyimEVIeuKYRg0gGh8HBHHrQW4prcHikPNIoHGIGOOCDWaQAOK1Uy67TisxxtJXPfFMRcjk8y23EEHofelxlSD+lRh2a3xt2sMYPanhTjGc8daTCwpOCNtP3bk/wpmGI6UijBwakYoGKfGvOaM4PSlHQYPvQgF2nuKTYQwyD/hTsjHJ5p4fnjGPWrsIbtJX6VGyknvStLslCBWIOeQOlB4YZ61IxQ3YjGKUsMHHWmCVGJGQMd/WkY4YenrQAgI3kHg+hqUeh6VFgmYMRgdCac0mW46fypDuGQc47UqkYJJpoYck/pQSuM0DHrzUqMAGHfFVRLzxxVneAgwOtVEliZHFJwTnHNKfu0wBVbrzQA/tTd3B9aUcdOlI2BQwI84GaM8daR8YOOTUS7gfm/KoGSM2ASASaqLK2Au0nPerDkkYHfvRtVRmgYsYWNMluT601mfewPIPSo3O4YbpmpNrlxtIwBg5piEVtvINPVlZ8DOcc1GyrG4Mhzn+EUBsyEoNo75oAkIRGyDlv5U0DAPFNJweeTS5xjk5pAOAI79aaSQcDHXnNPAyc0115zjtQADOfUClbDpnguKjBY8k8CnkbxuU4IoAi2DPy9amGUHQkelKiqBuySw7U8uSMgfgKLACupOBTT1yaaIyuXPAb9KUYLEgZpAAPGRwaFz/jRnnCgYp23NAEqygcZqVSrN71WQYbPepVcDr1qkwZOVHTNRspHHapAQee1B59Kom5XYHIxRU2wdKKLDuYik56VxfxBZpLrTIwSNqSE4+oruuDjjJrg/HQRtas1IO5YSc/U/8A1jVU9yZ7HQeF49mgWwzgkE4z6k1vAhB8zAVieHwU0e0O35zEOfathpC4Axz3NRLcpbEh2N25FMZgv8ORQrHAFGMgnsKRRMGXZwQDUBbed2Oe9NDY+lGeTgUXFYepqVhujz/SoAWKjPBqRJApwTmmgYgPHHU1R1TSrTVYUiu4VkCElc/wkjGavv8AKdw6Gm53HkUJuLugsmtSpaWNvZwCKCOONR/dXBP1qcr7A4HBNDDFAwDg0Ntu7CyRALGzm/19pAx94wagPhrRZPlOmWm0+kQGPyq+Rxx+tOhJDZxVRnJbMlxT3Rkr4K0F3O7TwuOMLIwB/Wqs3w+0VmYr9pRT0CTHj8811CSbpMbSKmAGOlbKtUX2iHSg+hxb/DjTiP3d7dKcHHKn+lV5fhtHtLRai+evzxj+ldw3ynJNKJBgZOcjmqWIq9yHRh2POpfh5Idpj1JSTnAaHBz+dNbwBeLjGoREHv5Z4/Wu6ZnDKSDjd8uPSrEqjHy8Cj6zV7h7Cn2PPn+H2oLGJRqMO09tjc/rUcfgbUG4a9gCnsA1d9NKGkAYnOM47U2M5f5OnvR9aq9x+wp9jhD4G1FHIa/t+PdsfhSjwPqXRL6A8cEBhk13lwCsq9AKQcjHal9ZqB7CBw0fgnUw5CX8XoD81TTeBdTQKDfRN6jLV26v5fPJH1qUzFySqc9MU1iZtCdCBwieBNSkQZv4lyOmWNDeB9RAA/tCED6NzXoIy64LAECqhyWw3bvR9YqDVGBxMfgfUWbAvYcgZ6NTX8FXyqTJfJkdtpOR9c13itt7c9KaXcnB5pfWagewgcVF4Dmkjy19GOeVMZ/xp48BgNg3p4wBtjzXaAbNuD1680ZIb1zS+s1O4/YU+xxf/CBoPlN62RxwgxTn8ERK2RfSkD/YWuwbkjHWl8rPLHApPEVe4ewp9jkF8D2+M/a5WzzjYBTh4LtcbmuZhjqoxmuuBOeAAMUwRjeWHJPWj29TuHsYdjml8Gafv4lnIPq//wBag+DbBWAEsxyRn566baOwpCQFwBg0vb1O4/ZQ7HODwZYHOJJwc8fPQfB1g2QGnz6+ZXRK+4U4YI/wpe2qdw9lDscz/wAIZZZwZJvf56d/wh1l0WWfI7Fq6EZBye360+NgCc9TR7ap3D2UOxzf/CF2oBBnmB/A01vBdqeTcy57fLXVnrntQAMU/b1O4eyh2OTHgmFiP9LcZ6nbnilfwPCqDbdsT0xt/wDr11Z9hUikEdKft6ncl0Ydjj/+EGTjN0w+gpp8Ewkn/TZB25B/xrsm6YBpjDGD2p+3qdw9jDscbP4EhlhKC9l+buMjH61nL8OpgwC6quP4swZx6D7wr0LjOehpMhfoe9NYmquovYw7GNoGhR6JZvH5pmnkI3ttwOOmB+Na5BDAdsc0/jr37Uq4IrGcnJ3ZokkrIaAGINIRz/Knjr70mOaksZtwPpUpUonI+96Uw5z7UjSbgoXsOc0ySQhSOTjHb1qJRnJPQVKrLtJPHuRUasvJA46UAO+6vSlBGcE9elJjODg5pABv7+1AE0ZCH+VSA4JB61Gi8+gFSHlzk5pgO3EnGamjOWqADAGO9SIcMM0AXAd1WIWI6mqSt396sI+AO1O5Ju2E4DFT0NU/ED/vowOy06xkAIz+dVNek3XK4PGytU9CbanjfjmR/wDhLLwsfl8mPZxjA2jj8816J4fmDaJphVuDaQ4JGP4RXm/jhi3ie5AJ4ijB/KvQtCDRaPp0aAMFtYgccfwjmqn8KJjuz0awkElqpAwBxVgsBWTYyn7OpLY46VO9xnihPQLaliaZV471nyyBvmNNllySQarO/wA3NQ2UkDv82e3YVWkf1p7uCaqz8854FQ2UDHPIqJqTflRxikJ/GpGMPWm/eNKab0pDDABzTSM0ZwaTNAEZ4/OkJ9elBOaTIYdKkaIxKVk4Ulc8mor1MSBgPvVKeAfem3ki+Sp28npTQCRMxtDngqMf4VIhyuMcgVGhzaqmc9/pU8WCS3rQwQcgdKaAT25p5zmm985pDGtnPPanxjmjBoXcXHTbQA/cAxBHFNUqFJJ4pu4MSOMj0pQMjHancBHT5w69RSN5hIA49zTWDkhI+vvTgMEDduPf2pARMcN0BHYU37UVbbtUfWpdnJpPKDckYNIYjgsg3dScilVhgYp0keIhk4IOajDL26+nrQwHkDofypu3sBQvzD0PrT0GKQDAmXCg4J6Vab5VVeOBUYAVww521IZA65AHP86pCe4hfA5FIDnqBmkAYdRnNICAwzQA9cg8mkYr0PWnDrUL5LcjpRcEMYMSMNgUgVt4PbvmpMAcnv3qJpD2FIoc5G7BIqEHDZc5p+4lcd/WomyPvd6Qhz4Y5X7vtT1Y43LkYpifcwMVZTKRk459KaAqymZpPuEADqBUYdh17VZa5lAyUUewpwn3L8ygmkMhVhIQe+KmA45AP4UMVKjCjPao4pMn5mC+oxTESquOKY6tnjkVMqhhu6+lMEhJK7cEcUgGKH2/KABTljbqxwDyaCWYFT+OKagZc8jB9u9AEj9fl/HFNBx06UjZJBpAcvyc0AS7dyE4oPK+9IjcHjinEY+YYI74NAEfI7UBy44xxTgQzEVGyhTjtQA7JA6U8P8ALzUWRnFOYArxQBNGWYEKcYqdT8tVYdwUnPWpY2bnceO3FNMViUA4zxge9FBNFWBjIxzxXD+NxnWoFyci3GQPqa7lOnWuE8ZNu11VDZ2W6/XJJp09yZ7HV6MAul2mCS3kr14xx0q6D15/Sq+mYjs4Mnjy1x9MVcYgHKjr0qHuUthUbnn+VJIQZMAYFG7jLetI5U4yR+NIYgIqRTn2+tQggnrUF/A95Yy26XElu7LhZY+qmhAyeeeGJMyzRx/7zgVnnxHokKt5mp2xx/dkDH9K51Ph/btIZLrULm6YgfM74/xP61cTwRo0WC8G/HU+Y3P64rdRordtmbc30NF/GXh3bt/tIbgeP3T/AOFQjxvoG75btm/7ZsM/pU8PhDQ2TKWKD3YBv50//hHNJ2ndZQYz0Ea8/pT/AHPmT+88jPk8daPnh5GByciM0x/HWjjAAuee/ljH861ovDuj5DHT7cjHeMUp0TTQ2xLG3A7YQDFF6PZjtU7oxx480bZj9/n3Qf41LF480VYm3GYHgjKcn9a2v7I06IDda27k9jGKY2kaY25jZQ5zk5XOaOaj2YrVO5k/8LB0YHKmcY9Y/wD69Tr8QtFKBjJIv1TpWk1hZlFxaw4HIGzmpI7K0AytrDn18sUc9Lsx8s+5kt480B0wZ5AfUxmnf8Jx4eMePtDcdMRtW4bLTwfntoSx5z5Y/Wnpp9mCf9GhIPUmMc/Wq5qXZitPucrN420px+4v/nzx+6J/pViPx1orxr511hiAc+W3NdBcafp83yGytzkfeEYH9KpWNjZx+ascUbc9dg49qm9PswtPuZEnjDQpeVvDu9PKYY/Slj8W6Hu+e6YD18tuP0re+zW4Vg0EWcbcBBUMWnwf8+0X12jNK9Psx2n3Mi48XaKZFxfM+B08puP0py+L9DB5vfwEbf4VqT28C3gyiEY4AXGKkFrbOgxCgH+6Klun2ZVp9zMPi3Q+gvSwPQiF/wDCgeMtGUgfamce0T/4VqJaRiQbYY/rtGamNtbodz28Z5ycjrTTp9mL3u5jjxfoiXAkF277sDBhcYz+FK/i3RTO2J5dvr5D8/pWjJbQeakyxxhc9CtTGziLB2UBvXFO8OwrSMb/AIS3SSpxLMdp6CF/8KP+Et0tcnM57f6lv61qtHEr/KiceoyaSTbI3KJk9TtFK8O34jtPuZJ8X6VIct9qDY+6IutKfGOmbQRDeNzj5Yv/AK9aAtIidzxgnPcZqUwRNx5SAn/Zo5qfYLT7mO/jKyAHl297jnnyef50n/CX2pBZrS+46/uf/r1uiztxlggyRg0ht4P+ea+5Ao5qfYOWfcw/+ExsQMtZ3wXt+6/+vS/8JlZZ+W0vSPURj/GttbK3JyYYzn1UU82lqUCeRGB7Lijmpdhcs+5gf8JnYsCv2S9z6eV/9emHxhZ8g2V9x/0yH+NdA1lbsF/dIfwpjWdvuB8tCR7Uc1LsHLU7mAnjKy5CWl4f+2Y/xpyeMbBP+XK+z6mNf/iq15bODcGEShs9hUy21p0MKNx3FHNS7CtU7mHJ4y08LlbS8Of9hQP50J4xsdx3Wt5j1CD/ABrba3tiCPJTb6YpP7Os2iyIkOevFPmpdgtPuZI8Z6d0MVz14yn/ANenp410kj5/PRveOtJdJtlP+qGPTFL/AGNYqnFlbkdTlByad6XZhap3KX/CYaPtz50gz6xmlTxfow5N0xz28tuP0qZtIsN/FpCB/uDinnQ9OK5NpER/u96L0uzC1TuRJ4o0eRuL0Ae6MP6VMNc0qTpqMIHoXx/Ok/sDSnXDWiHvioW8LaQSWW0Qe2TS/deYe/5FgavpzcpqFtz/ANNVyf1qZbmGQjZPG4xkYYEVlN4V0zP+q2nvhj+Qph8I6YwbCyhscfNwKLU+7C8+x0ER3oe9SKpA561zH/CHWqkNFPJG3qD0+lTL4ZuIiGi1i9X2EhH6Zo5YfzBzS7G7vxKFwO9O6sB2Fc9/ZOsRODFrLnnnzFD/AI804R+IoD+6vLecHkl4gP5GjkXSQ+Z9jfIJHy4/GmlS64GOO1Yn2nxGv3rS0kwMkRuy/wA6dHq+qof3+iSkf34pAf0NL2bDnRtISsBLKRz3qum4HnJAPbsKoQ+JYU/4+bHUIgSACYCRn8KX/hINIabP2xUU/wDPVGTH/fQFDpyXQOdM1VOTgdPanbSBkCoba4tbpC1tcwzKOpicMP0qwBnjPWoKHRlcgkHr2p//AC0PXrSKoXHfFOyS2SeO1ADse9KUBPqPejORTVNAEoYgjnIFSrIVFQZ7Uo45NMRp2s4JAOc1DqsgNwp3Z4qCFwThiMnpmobyVUkJLfQnvVoR5P42b/iqNQznBWPOO/yLXo+hjy9K09lcOBaxDcvRvlHIrzTxs3/FWaju6hYz9P3a9Pzr0jQF8rQ9MQgqVtYgQRyMKK0nsiI7nV28uIscj3HepvPJHNUI5SFCinGXHWouVYtNKM9fzNRNJkVWeXcw4OB3p2/jg1LYxWPqahc5HrTZnCg7j1qqHI78dqQyc5HPFIxzUPm5HOKR32qT29akY/cM4JpTzzmqTSHORg+2aTc5wxGB2560XAtHg5pOcHimRncOTk09hxjtSAifkD0B/OjGVLA4Ipw+YH2qMkngcCkNCMTj1NQ3pAhizjcCeBUpxgnOR6VWubdyfM3ZDEcY6CmgJbdgYvcVYU9gOKYsSwxAA5Ud6lAoYIXtSY5paPvA0hgRxUZJB6mpO1NIzQBGCEycYzTlfeM4wKGQHgjIoGAOBgUAOVgKbDsilcluG9acoVyeeacYB1FMQkjKenT1qNjtIwevenADOORUb4BO44B71LGLIzYyO9Vyi+YR/EOQBVgyKEUjDD1qCeQed8vHHWgBYpMtgg7h1BqUyMFyq9+aiLDyvMJyQeuKeHRVVm6NxQMnjZSuR3pAMA49c4oQjBxikDDPTjPIpiHhiBkjikByelOklT/VoRkDmmhe+KGgHL9w565qNyWYgEfjTuS2McUA46rxSGiuRIRtOetPVQQV708oXyOeRTFjZTjjJHWiwEaxMCQTzQ6HqalxJ3IzSlGPLH8BQBFFEAQ56U8kiTk5B/Spiny9KTyhgHPNOwAYo3xtPNQSIY2wc49anZUCeYW2gd81EJhMm0NuHYmk0FyNeM8fpQF5JGOetKOoGc89BTztzjOD2zSAaCwBbPbpTeepOTUrKWjI4H0qMKWXO0L9KAHoMjHNNb5nyBwOKVTtYjv2NJnB9R6UAOwTwTTWVR0HPrSZ700ly3HI9KAHISchuBU6BV47GokGRyKARuwRn6UAP27SfX2pCTnHrUuzYcjnPWmYySKBkZi3DGcGhF2pjkmnsPTP0pAQq9y/t0oAEYxx/MefQdqaS5Hpn0pc55pT/k0riJEY7Rk0URDIPoO9FNXBmWjDOcH8a4PxTJ5niKfaeiKv8/8AGu7RSTXnuvAN4ouwuCSyj6cDrW1Lczmd5Bv2KuzAAAGB6VY2s5wO3rUUBYDDdalLHAHWsmaCCPKH94C47A0xMnhwMdKMAnOOaUcH2oAVgkSZ6A+tCsrgDcD9DSMN/Dcj0qJ4sj0x0NAE7DBx2puAWG48elOgyciVhx0YGgoqyFiSV7cU0Iljbb9zp3ocbulIGAOcGlJ3EnJqgAccUhI707G4f1pjBuy5NSwEJXAxxUi4PTgj2qMLt5IOfSplUDgj8aVhjJPlYe9SgeWuQOvrT1t18wOc8e/BpswZm4IC5qkhDQASSKnjYP8AIw4qMQkDJP1zT1KKu4sFHQ00JjHiImXZwo9e9Q+ZGl0YRjcOTjtViRdyNsYknpmq1mqJHIW2l+xx1piJJOSzKuB1pIo3kUc4NSiQFcAA/SnsXaPKkA+9FhlOaE+ZvDEketSIvHz5x2FSBQRgtk4qOA7gdxAXPFKw7lhDhMg8elDyEcYH401uEyM49hUand0PNMQSHeoBHfNR+eOec49DUwRlz6AdaqhUBORkYqWMNq7+WzmpAoVSQM0AAqMEH6U5BujJ9DSATO0MeD6DNN3fLz1pxU7eelN25OaQyRSQuM0n40Z4NN+YfjQA8NxgcUuQTmmAAEHpUpUYz0oGKpJzxUbZz0qQZAGKQkhgaBMhbk80nHl5I6njinnFAGRjsDTEM25XnPtTohyecHvT8HpTcc+9AEytng5p4PHvUSEMee3Sng460ANdRjOOajZz909KlZ+QuOTUTqerUXAkjYY561Jnjg9qqxjEnrVkY+hp3FYbgc4PPSgZA/Sl6d6QuoJxSuMMgNk80kkhHfA9aa0gbBA4pAecGncViLc3TGQakRhwCMegoXk80o9KYrDlY4ORgds9TTlY5+9gUmPlBJ5FIBgEgE/SlcCaLls8Z9e9NnQnJ38d6miiCsMg+9MnDBGUd/WrtoK+pBBsIyqgN3OOfzqcHn6VXIAxjAJHpUityBUjLAOR05puSetN3AHk08kMocHNAB/ByPpTkPT0pFBClieMcZpEbjoaAJRweaaCS3T6UDPcYApTknC8e9Ah6kRENgEkcmobkLKcyDPp7U4DGASTTbogKAe/61SEeTeNn3eKL8HGAkYxjp8i16ZowI0qxVs5FvGOf90V5l42b/iqL8Dj5EH/AI4temaScabZZcufITLYxk7RzitZ7IiG7NtGAUDtTmbNRK3HFIDisrlkhY96C6qBkimFqjcBvwoGJId+ACDUBcox9BT3jyajYugIxx70gGZyMqe9IAQTg5z1z0p+VZRkYIPOOlJ0yX4xSGDQoQApC5pVUIpH5VGJVbkgcdKbI0ucrjbjPNADlkCvtwcHvUzEleORUIUTbXXgfxZpzKqAhWG40gGrM6ybW5T9RSgZkJx8h9KYqYfkdqc6nHy0hjPOhLFN3bNSpkAjPX+VV2R2KEDHPJPpUpAX5xjnjrVIB5wyHbu+WlSQHHrUOXZgu4AZ60x8rJwaGCLhyaRuvU471CJHXaNuQffpTo5Flx6+lSMlByvWjp1pcd6QmgBG6cUzsKec85pABnNADI2+cjaQKnVgDtJ5pmBUbHacqM0XFYlkbaBxn3qu43ZDDg96mRty5P4g0pG/tQxlQKQdpzimsN7AgAkdR6+9WHLRqSQCOwqsjSeZtCDnqaQxQEQlHBw3amvKUCxMg55qZhtj+dc+9K1uZACSC4/lRYLjUPQA5Un8qsdEGOfeqxAwApxj0p6SEc9+mD0poQ9Cm8kDDd8ip8jPXNVc5OBjd71King5zmmBLj5gadxTF60/sKQCdDTWA3U6kPPWmA1V55P5VIfakApelKwDWyAAKjVgJMHJNSOygYNQKcseeaLgF1Ck+3cxAHYVGAscSomSB3NSlSeuAKjPzsQO3rQxokEB2hwcNnNPeLeN3AIpIn/dFcUZwSf4cd6QDQ+xQB1zzkUj4PP50hw5JzzSMVHXmkA3zFPIHA705fnPBGSOM0CUR5CooQ9aYuedq7R096AJAp2/N196dtyBj8qZJudVVSVI7+tRkyqcq4JHY96AJNxHQfhSjbnJIB/lSQFp2YspVh6jANGIwxDsM0wLKHK+1MIGfxpAxHy9qM4PGaGA7io84J9B3qUgke9R7QW++MDsKQDQcjPWlcHb8ozTwvv+VPVRnnIosA37sfzelFPY88jIoq7CM2LHTp9K831BwPFtznH/AB9IPr93FekRkAjAGa8yuLYS+LQ+7O29BbI4OG5rSn1IkehQn5celSocnpUcPOQRThw1YGpIAAeKRulIDjt+VGSRyOvpQIaCDT1Ayc1H5eSNvFPYdDk0xjGUEnHANAzkAHHsKcwGRjrSD73vQBJ50h4O2pAMANn61EY5G5AwKlWNmQjHHrVIkfGP3vP3famTqC3yEgjvmnxfLHhjyPSiXDrleR6UxDLcTNGSSpIOME0/LIC0qnH+zzTImCZz+lTCVAp4JAoAdFOrHbtbbjhscGpAR0ApqGGRMhce1JvRfvA4pgHm/PtxxTJFJzt6GlmAKBlzk9KRCwTkc0mAkYKE8dsUiqd7gDgcgClY8mhGDoeCCrYye9CYBn2wam8oAZduD2qNk2R5kx7D1FRSybyrZ+Qc/WquBMkgRjlRgfnUc7osgycKRkE01HBYjB57Ukj4TJUkE4HFICYPG8XDcZ7UuFR9wB5qDzFjwCo59BQtxuc84UetICZ3fftA4PTmoWRlZvQ1KzkJlFyT3zUEUrtcHIG3vn1oGSrGwTJ69qdGfLBz39akB+bnpUUrguT2AoAbM3JOflNN7getNyCSewokJJxmoY0KCNxB604n3qLgU9TnnPPpSAXnrmpA2SaiVhyG4pRndz0pjJc+lB9zTTwM9v50gPfvQIa7ASbRye/tTskN7Uzblg3c9afjIpgIZCWAA49ad1qIfLKB/KpSwFAhFIV8nkUjSs7jauFpWYc4FRDO3GOKAJkclsinHLdaI/lGKbkNnbk5oAcMKKUHk4U1FktkVKoK9c4PagBkjHkjiolcnipJeTgZqvuxkcZoAsqQQB1pSoI5zUEJYdchPXFWFYjjGTQA3cQwzSgDGetS5AOQKQdOaAFUAKFpQSrZXr703BHSlHftQImV2YgZ5qOQsuedze9CEb1zyM06XZvDE/hV9CSEFWAH8VARtxJX5R71JuO/KRLgd2FRMWkXax3E9RjIpDHnHc5PXCmgkxqFAJHoOaQDjC8djinDuoJ+uaAJCylgcc9h3pwPYCoFOCB2FS5xQA/d19aNxHSoQxOeOlCn0zQBLxwc4NI+Hddwyf5UJ7//AK6Rg3m7uo7Y61SEzyLxsxPi3URkEKE/LYtepaWrDT7QcZWFAfyryjxvIw8Y6kvb93zj/pmteq6QJV0yzE7K0vkJvZRgFsDJHtnNaT+FEQ3NVTgUuSTTBQGIYZ/Ksix5JzRTR8xwCcikP1FACudoz19qZ/rE54zTuR3/ADpjl8g549KQyF0ZGypC/SmebmUoeMfrUrsAnIyOvFQghyXOB2oAZkhz8pA7VL5hKnIwRTUjJBypKN0OelNkwgCg7gDjdmgBvmFCQCOuSKd5iv8AeUq3ZgajwuzcxIPehgdwAU8jr60gLCE9D+JoLgcjkjtUQ3J8zEe/vSKQHyuSveiwyQ8knPA7Zp8mAoDcAHmoVbY+OPcGrJG9MkZDDvVITIJBhwsYyOrNmgJG0jF8FehAPSpF3eXJtUfLwKc8IKg/xDqfUUWFcrGR4gSEynbPapnRCivgrkZOKndQ8IUDPamCIqvHSlYdyKIuFw2SM8GpNylsd6VCw3CXAI5GOhoz5mSF6UrBccMUhOCB61VjkKzkFW5HNPdy/Tg+vpQMnJ4pvWo0kOAvUdzTjjgHGe1IYmD69aQM6uozwetO5Pbik2EZJpANmy8u0n5exFPCr93pxS+VxuPNNKMQcEUBcSNiHKS5Izx71LK3ljdGmc8E1G0h+VXXA71IOGAH3TxxVJgUnQQ3A2nCPyKkZdibhyx6A1YkVB8rISP5VAyY5znNJqwJ3DOVAaph8pUqM1EYwy8H8aVHZBhm3L2NCYEynJPqKeDzyaql9mWXdzTkcggt+dAFgdaXrz3qJJGZtrAfX1qQZ59KAHDrSH5uKQH5velZtqliDgUARk/Pz2pJNoQnH5UwObjDqu2P9c08qMYGfemAwbfvKT7g0jJzlfxprk4wOB796BJhctub2qR2JEV8g5wvvSspckDgdzUTTHb6e1PQqEIPcc4ouAi7VOQQT61GcFvc+lICrklcjBxzQ4IYj9aQClSpx+tPHIJzikzwPpTsAHHrQMaO+CaUHmmktk8gegpV3NGDgAk/pQAjDPRjj60oPIwdv9aCAByaRQM9KAJBIc4bAFO3AYbJxUflNIDjp71KkLGMhsYxT1EPjUjLdQeRUUqKDkgk9eKcrhFK5yR3pJGWQddp74p30ATYkgUlT+Bp7xuTgSHHpUSuY16laeXLJwTkfrSuBJtOzBz+dFM81XQ7voRRTTEZyH07V59ahpfEZ+XB+0ufm9ASa9CCgxsG7jHvXnuhqH1xN2RmZzwPY1rDZsiW6O7jG31xUgTPPakjGVOalAODjFYmhC24AgDjsc00o+wkZJHarXlrty5BHtSny1A2nFOwXK0Qc/eUge9SlSh3E5B9akRS+SWGO2KRj8xXr2p2C5EsgVuVBz+lOLpjcBikaNsdOKYwxxU3AspIuwcjNNMzEkZwPSqZyHBHWpSSSMmncLEwyOucGmHg9c+1KGJ+gqN3OcACgRJkY96AD6k0iIcZA/CkYsGO0mgByStC7Lt69KnXMiDcB+FVQ2QWPX3p6M2QcnB700wLfnArtK4HQYqGJGR3QsX5zk+9WVRXGfSoorZQ3Dk80xD1i5Bb8qTapZiBjmpzxx3qIzwvL5O75wOlOwrkUxWXA644pkY2KRtzT2UpwAMe1Rq2QfmIFQ2UCgMuRgHnmlUBYi8mBg9T3pC2SoC/U5oZ1K+XKpI7MDTTAgKMJSxTIPINSZSSPYyg5PpTlbbgBtwIxg1EmS+wHqcCgBsrvHhY3OFHAIzViFvNh3lDu74oWAs+0N05Jp/lyIMq/Gfm46iqQiWMDbnmonTcSo5GamD9BjGe5qq+fOyr846gUMEOZBtxnmmhST7U0cMQckU5mAHHesyhr4VaQEHnv6U7OQR2FRE/NwDQMlxnFSZ3HAPA61Gu0CnquDwKAFY9e9NHIzindM0pGBxTERk8mgMcYNBGMk0DnnpQA05zkjFBUk5P61IQT05pAwDbSOe9AgA4IzyacqdzSKfmp4bkjtQA9FUZzSDHXpjoKR5FUUoGRnv1oAYCSxwP/wBdEhkjdckFe+KkVQh61DI6mQcZJoAZNl+dx56AVGyxqgLGQORwBipwRjP61G2N2SBz1NACI7HGTwBgCp1JJ449qjjA4HSrKKsakk80AIcjOe1MyMnt6UrSZbPHNRu5XPG76cUgJd4Bx37c04soGTVXOCA7DPXpVlEb5W6556YxTWomSxgggn8BSogBdiCB/OmkBCCW68gU7zGKnbVCGShsKFJoO8hQAFx1Ydaa28gMRj3pw3cbiAB+tADhEcfKciojIAx4J7cVKMAcGjaDyCKAIvvAjpnvTlyOD1PWmuoBOck+1OLEAkj5j680APAwvWjGVGMAeppkbPyXbaOxApz7XXjd+NACrIpdQvPuaWXcW4bjHao0iGd27J9OlAcFWIyPXNNAeP8AjaUHxnqa5J2hMj/tmter6Uix2VtEowiwoFx0AAFeVeNQB4x1Qnk4QZ/7ZrXq1hgW0IU8KgHTHatZ/CjOO5pAgetN8z5sHPXqaRT0/lQ+BySOaxLHMwByD1oB60wFeg796FPp1oGO3ZNIeeDQOv1oxSAif5VJzxVVdq7S5O3PSrkhCoexI4NZxLIzDGd3rQxk7FtoCklOwPpQh6EsBu65NMG5cZzgc8dqayENwcrRcLBdFlmK8iPGfrUUU7RyYySuP1qwspLvvGOAARTSPn3IqnHPI60BYRtz/MSOaFlERGRkZ5p8jlk3beR2pyrFIwHl8+gNAEvkhpDLjOfuj2py7o3YOflx8tJvMJ+c/L0B9KYd+04cDnOTyMVRJLGf3gweD1FMYMJd24kZ5HtSLKisG52N1aiYlZDjoRQBYXcq8A0rqwVTn61ASZV/duySRjgevHenxzeemHQqehU+tAD2G5BxzTSm0lscn0PWnEEDj/8AVSodxIP4GnYBkc0bDD8H3pdgOflyP1pJbQOc5YHsRwRUcSyKGDMSexJqRkvkIMkE5PSoJYZPM3DG0VJHcqflkBBzxnvTyhbnOPUUbgVyzsxGPwprifYBtJHXpVltq/MFwaYC7kq3WlYdxVJkhKyDafXNNST5tg59D60McNjr9KPJKHcnBHNDGOYA5U/ePQ0yJ2t/4SyjrTxICuSPmHXjpSFWYNzwOcUgJxIsg3Dp6VGdrKQeKrgspBFCzYfaecnkmjmEkSArkg42ninEDbgYFRNhSzAgk8YpD86kck0igcvE+EAYEZyajVsn5iyqKlIYbA3XGOaFjZs5xz2ouFh8LI5yHBx+dT9s9qqKgVsYAPSpcmNdo+7QFiUdaJA2MYyDxVdiS4ZXA+tWC+QBnHHeqQhrk7Qq4GKSRm28A++KEKgspPOKYXZQMnINJsBwI4z1NQyIu/72BUjMUXeABnrmmB5ARvA59qRQbWxhBkeppxCbSWPXilDENjI/xpjfMy7jwPSgQ0KAo25wKXnHrUoAwccZpoGGOPu+9IBoLZ5Hy0jOd3ygVLsUjqB6Ck8lmdcDAosFyu8pU4bj3NWI0ZlBHf8AOnFAh5CsR7dKlRSke7nOO9VyiuV+FYHbnFOLhuiYPsKc3zjhcevvUZXbzzUjHxzDkMcelEkvfPHQVXcblxTACQFY8elFwsWVbJDfpSnPJNRoASMUSDzPwoATO4454p+5RjPNNj2qDkdaH2k0DFUJyRnFFRA+nFFAEEgPkSYOTsOPyrgfDaD+0YWZTg73x6cGu7vmaPTblk+VxE21sZxxXGeEzvvoj1/dMTx9O1bx+FmUt0dojDHXk9qn37VHy59TVUqy/MOTmpEbzcK2B681mkWSbgxxuyKXaVIweCaRotgPlkA9zT0AZQCeR15qgGSbUJPUHtUAPvUs2COKi54681LAkRyOpyKJFyMqaCy7AAPqaTJ28VIyI9eRikLjkc8e1GSTzQThuVBPvTAljbMbZOfpSKAwx0NJHJs6qP8AgNSRsfmYr3p2EODEDAqJyAcmrGFCgnPNMcKwHFIZCCMZ6j2qxEA2AelVsbWJ7dMVLExyAF4NCA0FKIhwMCkjdS5wR05qHb0GfrionYK2BVXJLXnZbJHFNjjSOZnIBZu4FQjkZHFKxZAskeNo4ahMdi2YxjJNUXQBinWpQ5Zsq27IpzREDPfrSYIgU84FOyjAqT83akI2t9aj24YHvUlA2RnHFSkwrsMf3u9NKHqcCo+VYqRgkZFVewi2QBubI5qMXAikAY/KfSo1yoKDkHrSeSfPHmEDaPrVJklp2BJG7J747VBIpUqwwMipXfKHK5x0IpsyncpAJyOtD2BERPT1pjDcCaVlKn5qXnHFZlCc7aRQX+gpE5GakAAz2zQMbj04p4Zs9TRwBQTzwKYh+7n60/HeoeT0FSrnFAhj8jFR7iDipWWmNjHv3pDQAt1PpUZOJBwfzocsvBoDce9AmOLFmp4dcjIqBXIY5ppOT1pgWmIY4FCMY1Oc57GoUckjarHjGAKs42IHkGR2U0AN+YJuPCk9cUhY5wgAHc55NNeUu+ScKe1MZiDjBzn0oAf975ce3SmsoY7QACOuKcrZGF4BHJqWOLqqAZ9zQBXC7XBB6VMcucnI+nSllQLKI1AyByfU09ikQwTuY9u1AEZDsfkTKjvSspWMs2OnAp3mttA6L0wKbgkZA+ppMVx0OyMAlhuPUileaNmCgn8KhIK5yCDjmnLGNobjJp3Ak3DoBwOmeaTbkk+1KFKrk04EAYNADFQOTu9KVSSOBkClKKT14qIn5gOGTOBtP86AJUGSST3yBTxhT9T2phO0+vYUu4FgMD8KAJMDOetB5xgDPuKTJyOOvWlB2uDjmmgGbAFBzk5walGMdKhVfv4wSWyTUynAI6mmIRgdvHU8VX3KkYGQo6EMathgQc9R2qk8XmkksVxTA8l8Zr/xVuqg56oRgf8ATNK9atApijZTkFAQfX3ryXxhuHizVQWBK7cEjAxsXHf8K9btf9XFt6bF/lWs9kZw3ZdUenFOYLtPGTTRwvvSn3P4ViaDABx1zQoYlgRQD8x7jHWgYVmx/doAXHalHNNjGBncT9aeAfpQBFIp3jJGPeqssaiTpnuMVdk6HPb1qIoDkHn0pMZULnBUHk8GnKOAD06k1ExYMAwxj9aVWJ6UhgRn2ApzbPMO0YXHWmiQj5W/GlyrEr1GO1ACfMuG/SljZuTgAj0odQAAM49KFOO1AFlG8xc5xzzu5owMccMKZtARiFAJ+8BTzIFKDgBvX0qxAB8pB6DpTiQQregpJdxi2ghWPSlZcLGGXGV59jSECsCTjjjrR5hWQAjOTTlVYgGbHtSLGOSCxBOcHtTAduwTyR6UuSSCCAaQHg5XGDjFD8AEcigCTzsYDfTNPADDPaqz5Cknmpoz6HOKaE0RzWccrZbIHVSOoPrTIIZII2R8kZzvBqy8yIhLsqKBkknFVG1vSVykmp2SsOCrXCA/lmnyiuSI2ThmBPb1pzYxkZ5qD7bpcjFob+zZxzhZ1P8AWmRX0MkhcTRMvT5XBx79al6FXJFP51MjZ6nmqz3FuAHFxHtLY+8KGmt1kANzCD1x5gqB3JpISxJBwTUbq6bA3LA8Yok1KyixuvLYMfWVfz61X/tnTMkHUbTIPOZ1/wAadguWXZCMc5qDZtbDc46VBNrmksQDqdmpA7zrj+dRPrOlquTqlmBj/nun+NTZjTLqAq3GSD1JPSphCGU7TkjrWL/bulPlRqtoVBwT5y8frUkev6PEwA1OzBz1adc/zoSC5q5DSHdkAcU9ByT78VljxFoshO/VbJR2PnqM/rULeKNCVth1my2k/eEykfzoswujbYgkGgNuPOMVgN4q8Po21NYtXUDOfMGaP+Es0Bef7XtB9ZRRZjujcMXBPA9KllYKoBIz61gjxXoDEf8AE5suD080VJJ4m0J40cazYtnsJhkfX0qrOxNzWLRuMjAYcHJ60hO8qD0Hesc+INGZ8DVLPgZ/1q1YXXtMWJXW+tW5xjz1/wAaVmNtGX8QY9UbwrK2meeSsqNKIM7vL5zjHPXaePevK4k8V2cQuU/tmJMZDnzcH8DXuaanp8se5by3btxIOtAnQjLTx7e3ziri7KxDVzxm08f+IbJwklzHMy8bLiEZx+GDXRWnxTXcPt2lyDGOYJAc/gcfzrutR0m01GMLNb28yYz88at+PIrl5vAOg3kjbYZbeTqPJkx+YOR+Qptx6oLPoall4/8ADt5sX7aYWIyROpTH1PTv610ENzBdRLLDIkkTch1ORivM7v4XXAUtYajFIOy3Clf1Gf5Vz11oPiLw5K7iG6gCtzLauSp9zt/rS5E9mPma3PdkwvTAPpSNud8HIryHSviPqls0aakqXcKfKXVQkgH4cE/hXqGk6pZavpy3en3HnqSQR90qfQg96LNBe5oBMnBHPrTJBjgsfYg1ZC5Azwe+KrygbjjoPWk9ikQ/Nxtc4p4bjDc+5poU59qc5JPTA+lQMidCoyOlMCkjgVK3I65pijBwSd3tSAVEYsrFeB3NSMh3kg9e1MUMxwWJP1pCWL4OTg9qAJdmahdSBwasfd9gaiZGPI5HU+1AEHoM5FFPI5HTNFAzO1hvJ0K9d24ED5I7cHmuP8KZ+3RADIEJOR+FdPr4I0C9bf8A8siOK5zwqAt8zE4xGB+BP/1hW6+FmT+I7NWPFOCbCcUgwcYpd3OKgsjaMl9xY/SlyVbgU/J5yKaXTuwFMBoPPzE04t8vGce9Sq0bADio5CFOMZNICMko3PQjIpQQetNb3zSKOaQD9pYGkZSvDHn2pyOEBPNNknWUYKZx3NAXBmJIULwOlSJhd2T9BUG5W+XPNWFC4GSD7UASJ84Gfu01kEZ4JIPvUiRhQe3tUqIHHIyRTApNhgcEA56GpIAVJJXjuane1VyflwPaoiDCCmPlz0HWiwXHPMEBLcEnpUTEGUNn8KJIxMocJtYcc1GCM/NnNJjRYWQMTjpT4wCpDfdPFV8FRuHfk04tlh1ANJAxYVEU3lgYxz9aspI5LL1PY4quSFmBOMsKUyNG4OODxiqEOPLc9aTHPTiguBwFP1pR0BIpNARlvmOBmhg5JLDjoKcIwBvLHC84FOZty55GaAI1O1s5OfanvKDt44zzxmo+QRhc1HKGAUjvwaYEyOJScMvHRakEqhjGz4b0qorMpz2xV6NlYA7smmmIhcfN0x7VHjBxmpjgEux57VEuCDn14qZIaYw5U7h0zTz160o6fjRxUjF5A9qDg9elIOaXPQUwFwSQR1p6EbevPelGCOTTHGBkDkUCBiM80wuA2Nvy+tIP3gIPT1pdg6cmiwCXCLtRxnLHHWoiRzg5p7KwOTk56A9qTbycCgBoG4kDqKd5TKuePzpfljiZmGcdgetV98k2ARgA5wBgCgC3HJ5XBlIx2A608sHx1IPqaqrlmHYH1qzCA6HHTOKAGsNqnsPSlBHU9+9OZAzc9B2pCMkKAS3oBQAoAxxwKdHkvhW5xwewoMaryxJPYdqaA3HQfTjNAE64RSwwznqfWovmJOetKuR93Gae4Hlbm4+lAiIJlsn8s0uGLAKeKRW7frQvBJ7Uhj8iUHPGOtOUoOBnj1phUbMp+NKiuE5IJ9qAJugpj7eDmkjDbcMRmlZFyN2SKYhcfKVGOmOajgtY4I2/iLdOaU53cDOe1OBVjtXoB2FCAChxnIA70iOVYhRgHv3oZGOACSPQ00pk7SxU+1AEymlJ596Yp2FVJBNB+Ulu2KEBJtHltgct1NNAbYD05xj1NCLlMEkE8gHvSllzubCjHAI71QhBuwc8e3rUDqSMgdRyOwq02D82RTJcBQHODjgCmhHjXjIlPFerEjH3e+f+Wa17BD8uGGMEdBXkHjLB8X6r3B2/+i1r1uCTlfTFa1NkTDdl/nHFN+tKrfL7Gmk496wZYpOCD2x0poJL5PHpSgg/lQOFHtxQgHAfNzSkkCm9zjoKd1BpgIwznHU0gXI96awbaCoyQcEU/O71FAEbwq64YdOlQfZnRiRgjt7Va6HGaCfWpYyoY2+UsM4z0pBFIoAC8elWx16UgOe2MccigLlN43GMg05Y3T9444GMGpvMVmK4OQaHVn4BwTjj1osFxgyHQZA3ng0AyDcZACDwATmllVTswmeeTnp9KUKTIrEdM1QhydMuCT/KnqgJPzbs9j2prOQwzyKZ5riTIUc+lAEo4GHGT6DvTRKvAHX+73psjZfg9OppqYD7iMY5yaAHyzFSVAI96Ygd1DqeD1DccU7OCzjDE/d7VMsZKck896AGqvzEgfL6GuP+Imsatoej2smmExJNKUmuAASnGVAz0zzz7V2RUhlx1/nVS8tYL+GS3vLdZYZFw8UihlbuPaqTsxPU8Nt/DvibxMq3gt7q8jbpcXM3BxxwXOSO3Ge9ayfC7xER97T19jO39Fr2CGCG2t4obeFYoo12IiDAUDtTzgdjQ6r6AoI8bb4X+IQPvac3/bdv/iKjb4a+IE/5ZWje4mOP1Fe0EA4J5qSPkHNCqNhyI8UHwz8QvgCCzbI6Gb/EUqfDPxEzEeRZjnBzKf8ACvaigPt9KXbtYHqR0qudi5UeMr8MfEfZbAcZ5nOP/QaU/DHxBuCk6cM9/ObH/oNevvJtYlQw9j0p4KuME9expczDlR47/wAKy14fx6dj1Er/APxFC/DPXhyzWA57Ssf/AGWvYmToBjHtTdgAzjmp55FcqPIB8NdcZsebYDHJJkb/AOJp/wDwrPWVIH2iwGenzN/hXrZVRhtpz6gVHlTJhxwOw60c7DlR5YfhlqSyEfb7IDGc4an/APCstQVdz6hbKPaMnP616i0KSR7VJ+vrUIjaNBEVC85BB4o52HKjzdfhldlRu1a1j9FMRzj86d/wrG64/wCJxaK391oj/jXohEiS5MeVz1xT3Kh93v1NHOw5Uect8MbwD5dXtXfH3REwqNfhjqR5GoWY57q1eqqkcCGVSX3YPNC3ERyH+X3qubuLlPKj8MdWxkXdmfY7h/Skb4X6zkFbiwI/32B/9Br1YtEwwoDEcjmmhznpik5hynkUnwz19V3BLFuxCynP/oNVG+HfiRVDixh69FlGa9pwAScdaeSRHgYzQpsOU8Pfwl4st1ISzuQo/wCeVwOn0DVa0Sz8Yabq9s4s73aJAG3fMhU9cnpjFexMpaLaM574pqQDkFccUczHyj0RdpVk46jPNDlCrDgk9R61Ru9c0rT7fbf3sFvtGAHcZPHp61yGo/E7TYF2afbSXT9N75Rf1Gf0pNN7BdGnr3hTRtShmnulWyKqXN0mAUx3PqPY1wvw9vJrbxfHDbEuk8bxuc4GB8wb/wAd/WszV/E2teJ51t5Hdoy37u0t14PPGQOSa9C8C+EG0KM32oKGvp02hFIIiXrjPqeM/Sq2jqTu9DtfOIAyCW9BSZLfe4pwCn0FPBjxyQfxrOxoQlsLkDIpjfI5Gc55zViYrEMgdarOpHO3r3qWMUHK44qRIldP65qBQecL+lSeYdmAeaQBIjI3Cnb6io0JVyOcmmlmYbmYnBoDHPXj2oAsZJwcZNIWZSMggGmxyEt7VIwVup60wGmHdySQaKnCkdwaKtIRyniM40C7KA/cAGDjvWN4SH76Y5H+rUdPrWp4qwnh6bOOWQDPruFZHhcEC5POQUGfz/xq/skP4jrScMDmpMgr8pINRjDKM+lSIgUAg4HoagsXcpwu7n0qpeMd6RDgHqc1YeJWYMSQfao5Fjb5gAWB70AOt0CAHJYDoSafJEGfeM/nSK+7AYAUOWyAnIHvQAjBivIIxSMRtwBzj0p5JKjNMIzjnn0oAbyo5NRMwJ2jqanwAcVJGuBwuD70AR+UUPLAn2pVQ5zu/E1LGPnJbH51L5YOW/SiwhyEsvC549alVYwQCDuFRh1DBFzu70pYnBwRjqTTGT5ySBjIpvzbyT0xUSjEmeeevNTE7QT2oEVWlQMNufpURAdi38qJD++yoG09aasxEnyqKQx2/A6dKbIRjOfeppnUqDMm1T0qAzxW+4E7m/hWk0FyGeQMylW5A/WrEUnmZyRnjNUjlmLMRk9altSBKUboR1oQGiEO8/d+tK2ATlhgdBQ4CxDZz7imFUbBc4IHNMQRuWcjHDDA+tJJ91dwJPTPSmNL5bgquff0p/8ArTuyAccigZF2ODx9aHf92uB0pwxypUgL3qtd3ltZWbz3cyRQ/wB5z+gHc+woSbdkF7E20SY5P0p/lEptUkHtXFXvxAt4iy2Fo0uMhZZTtH1xzn8cVjP8QNXkTbi2TPXbHyfzJrpjhKr6GEq8EeoRMjHy2Usw601uWZdo68YrhdI+IRM23VrZGDYHnQ8Ffqvf/PWu0gliulF1bSq8DjKsDwfeoqUZ09JIqFSM9iUbsfPjOe1OTHOetK7HaFQBwO9K0Kbshjk9axsa3GNwwANLn1AzT/JZR8oDeh70jRuDnbyPWlYCEsWYjnrQ8yudisSV4NOdSCT1NKBk5I60AMVsMpOT2AqYOA3HfqaYAA3XpzUZYMQQD160XAmYb2znFMIIJ7mpAe9MPBLc80gGMy7SW/L1qvk88Y9BUrKVYj09KkSMeWPU8/SgBI4i0anJyeoqzCixptPUnNNHC4A4pMM4O3G7sKAJGALZUjJpA7AsAM88Dp+dIF2cngj3poJDkE8N1NMQ4bQxJJz3pu7LYIwKXHPB4pSoHJGaQxdjHhMc9jxUm4bQjLnHWo2Z8Dy1PNO5xn880AMYbfpTlxtwwppJOBzQuWHHNIBwJ3cDj+dKW5xjg8dabkFh1p2Ap3E8+/amIVR8pOcn+VIckZLcChWyDtVmHUY6fjSlQpJPUjmmIQx7xgNjH60BtuRznOMYxSnYp3Ekgeg604MHPmpnOMdaAHNhccH8qa2F++QoPeoftEyyYZ8AdiKV5W8okEO2Op6daNBk+1Rtflu1OcrHkoxZj+lVkkZyST36elKSdxBouIcjiWXcS3A4qs7sZfvZ9ianjypyaimT5i6nrxQBIPnHztyankb5AepPpUcahYcygbuMAHrSsNy8/Xg1SEeOeMAB4r1g5yvy/wDota9VtvmumCo2VHPHBryzxkM+KNYOBjK8dP4Fr1yAfMX4z1HHStKmyJh1LSqTxvBI7ChiOAcA5wcnpTRhmyBlqUsrIVIzk8dqysUNEyiV4xguOSoPNPDBwQPypgyihQgAHanJuJ3FVxjGR1oGOHBK04e1RfveccnPXvikVixPJ+lADwWBOBnPelGQSxGKaDjqcUZAHfFIB/UbgOvrQcYyxwD3qIHJGM7R29abK+JCrD5f4aAHmVFB2Fm+lSR5I6k88ZqoSV5B4q0JD5SOBtz0FCYNDZY9xBLBfWmCNiwdmAUdMUHnOe9PiQQ9twPOKFqARJkgnOF4IYdaN5MoURkIc89qlZDJtbPTt61A/wC5GVba2c4zVNCH+o4x60xQAxI5qsbiTeAhGCfmyOtTRtgbTjd1NIY/KL948Umdy4TkDocU5X53LjI9aaGdsk96TGOUA4zUiPnIz0pi4FPQj0pIGiRSCeRQ2CPXFRu5HTvSgHaM96sQ0phTt6k5ph6dalYbh8rdKauAeDk0mguMAwQNpNS7dgxTSSOjEA9qcAcc0JWAaGO7BNS7hwCMU0KAd2Oaa78UAOZQ3vTBFyrM3A7UoyV+tPY5Tk/SqAYflO1fSkUqWx3xzmmPGeZY2PmlduD0P4UQRupXfjPfFILj5f8AVnH3h0qmYmCl1Y7u+atPySKYULDgmokUiO2mR/l5D9/epMq0mD1qNoy3CAK4qQqVkVj36g0kxkbKI3OCRnrmkCZJyAR9aWdT5u7saYwA79eooAsqw8ny5FGzoGBqu+Eyjfh70gLgbVzg9qeVVk2sGIHehu4IfBtPPVgMZp5BGMCoYwIjvAOOhHepw4dcrQIdsJXjrUE1zb2SebeXMcCYPzyMAKzvETeIBYKNB+zrPk7zLy2O23PH515y3gXxdrM/nahOm7PLTz7iPoBx/KriribOp1P4l6TYb49Pje/m5w33EB+p5P4CuK1Dxv4k1x2t4Z3gR8jybJSCR6E/eP8A9eux0v4VabbqW1K6mvHxwsf7tR+XJ/Ot+w06106/KWVtDBHGMBY1AJHuepq7pE2bPKrTwN4k1KQSSWRiEnJluZME++OT+ddXYfCu1iVZNQvpZz3jiXywD9eSf0r0MEk5yabvxlT0NJzY1FGdpmj6fpkQjsbWG3A6lVyx+p61oorK53YC9qYYsMMVOQxTDEA44qEx2IphsiZuoAqnYEynLMTg5Aq4IQqbZH3Z7U2PEIKooANDY0iaQCTCkA1E0Z/vfIO1PLAr1+Y0wBtxy27jn0pAJuO0DjHqajZR2OaeCAMFSc9RQRyFAGe5pMZAsTuwHAQHmrP3nIUcegpyoFXLN19e1EYJc7QAvf1ppCEETABQePpUmNoGcc1IMAdahdW8zcBke9MLigqDlTkdzRTGlKttC4HtRQmByHjOUroBVcDfKgJx0+YH+lUfC+7yrgY4Ljn8Ks+NGI0m2UHBe4UfoeP8+lM8ODbBIw6l8ZP0Fa/ZIWsjowpCA8n1xThuf/69SWsucggUrLtfC8/Ssyxhibv0pjJg81ZBJHzcUx+eKAK64/KnqMsCXwB2x1pzRYGefwpp4wD170AOLbhjtnimqpVsqOaUEdqUPsBIHWgAClQMgF+uM0oZ3z0FMZYkcMFJc980/wA5FAG3LH0FMCSKMLlhzUpz2Q49aqF2U/KSB1qaOfd8knfpTEOMRDb/AMQBTTK+/B5BqWL92NvUetJMABlcDikBJjH09qcJFZTkcGq6BtuMj1yKUgg8n9KEBE8YhDNzhj2qNWEse5Qy7Tgk1bGHUA0jALwxGKLAJNELmNIs5AOc5qpd2m7AUfMOhJ61ZKjGY3I57HFPCZXLE+wosBilZkYKyMDj0pVkMbZfO70xW6zRkLuAIHAqB7aJ33+Wjfzpco7gr/uEIJJI6imLuzuIyD1pZECSAqTgjoT0qPzBtIDGkwAjcTToTscknqKYXAFUtZ1WHRdNe5n/ANaRiKPuzdvwpwi5OyE5JK7IvEHiS30eyOR5l04/dxZ4x6n0rhbax1jxhdNO7EQRnBkYfIg9FHc/5Jpuk6dd+KtYkmunbyd26eUdf90f54FemxrDY2kUMEQSJRtVU4AFdzccOrLWX5HMk6zu9jC0/wAI6RYoGki+0Td3m5Hbt0FbkdlavBLGbeJ0ZQCrICPypcg8gfePAqRGkjVgVJZjjr0rllOUnds3UUlZI4Pxb4Vtra0/tDT12bD+/jB457gemfT1pPh9fym9l055Mx7DLGGPQjGQPr/Suw1iLOgah5hyDbvnb2G081534NDDxPasM8I5OP8AdNdtOTqUJKXQ5ZxUKqa6nrCxMCZQcdsE8VJI5jX5lGCOoqvtQqeWJxxmoVuDgKSTjqK4DrsSiSRSG3bkbpilEpIwc+9KJh5ihev0qIx/vWZSeTzmpYx+T1NA/Wmltoz745oDAZ4+hpMYrAnjsaibqApqbj1qI8twMDFIB6OQcHHSlYjOc/QVE3AHNKrKSRvG6gAYEsCepqdV4xkfjTfL3AEdu56U9mSFQR8x9cUwFKlThsAdqVVUOMMc9etVpGSX+J9/bA6ULGwYYcsR3xQInkXJzkgZzSSZA2leT3p/VemT700ksMkc0MEV1jxKWywGfXrVteeAee5qIb8c4Ue1PwQMqec0hkgO3Oeopq53sehIGD2pgYkEHk55p4BLAYAFIB2zrz070xlIAAzk9x2pWLLkY4pGBJGMk0xANpO1m57Yp7fMCCmc+tRKqhuV+bP0FSg9QeSaABoyE+VsD0HAoCfIAeT9aeQTgAcU0lVznr7UgHDpSSJwAp2fQUzJ3cHjvUigujc/nQBAV83AJG4fxHinIhR9jdCMcGlaPYM9R9aRU8xx6Ac0wF2hVIB6d6aWGOoz608gE4XBGcUnljcQCR6kUDHQj5Djp06UhhDKAGGAc4p6xE55AHHA70gieMFjjaO45pokHdQ4Ug5PA9qViMe5pk7RzTqYuQo5PSnFsKVGCe2arqI8i8aRk+I9Vc8hiOMf9M1r1iFlVRluNoxzmvIvHNyqa7qKYJcsfoPlXBr1VtyMrqy7SFBBOK0nsiYo0t20cckjj2qNZsHaWViem05PSmx89fmJ45709IljzwAD2FZFjlKypuXnjp604ZCbsNg8464pgwGynHGKN0i4yfwH+NAEsjICAx2t14qBCodh5mecjIoYFmMhGAfeoSw8wDODTuBY+WTLKc4OOlIB78elK67EGwkHPJpQysRnnPaiwhM4PH4Cjar8H60smMfu8Z703PlrvkO3+tKwxsnIK4zjpSzS+XAAR06Eio3lDD5D0qXAlj/eYwOgNIAjy6+Zjg8AGmSs/wAoOcipGUn5lIDZHNM+Zi2TkA8D1qkhFhJFUABunXvUFx+8OUGMHLVA8uWCqoRu/wBaFeRR8q7mPBJ6UMCaNAy/MqhuvFN+R5Cy8H2p0aSeYCEGAOgPBqVcpwVHPTFKwxilWO3PPTOKAT5hXsBxSOo3GQYUjkjFKWwoJP3hkUmCHAUd+mKFbjJoJAAqSgyAPanlsjAqNsDBJxSn1ppgICwO7bgipRgHpjPU1GSSFOeR1qQbSmSeQKpMloTcCOBRnPWogT9afkAYxye1AChw3Q80gGW+pqJZUKnDgnJHBzyOopRJ7c9qm4yZjwQetcj4/wDEepeH9NtJdOSIGSXa8jjcVwMgY9+efaunBO7JABNYXjDTxqHhLVA2f3cBlXHqnz/+y1UXqJrQveHNaj8QeHrbUlGxmBEqf3HBwR9O/wBCK2NyjawHQV5n8JtQUWGpWLZBWVJh77gQf/QB+dekq+VGFHsat6OxK1QsnQMOv0qItgZqVvmUcgex71FtPRgR7YrOSLTI3ZlcOKcXE8JOQCOvtQyK4wTjHeoYiYZDkfLjrUlCks4GWyBTWO5h3A61I4AG5PumoiSWGAT7CkBMCMryKtORDEz7enQCqkeWPIAx2qaVz5IAAfJ6YqoiZGiAAtk/NUY3ICUJqSVwpCc7dvHeo15bNDGixHKHXDdacuFfOBio9ke8AHBJqVmCsATwKaExwck8jAqL7OouPMxkEc1Jgnkcim5bPzHjuKokJAByOneoyOAOxp7kKDjjdUZbGMkGpZQjSMjBjipFfexxTUkVnII4x0xXCeNvFN1pF0un6bOsc23fJIBllB6AdqEr7Cbsd8Qzn5sj3pjqFx1FZvhnU59Y8PWl9dYEsgOdvQkEjP6ZrUYBmGallIZwTgZ575xSD5VCr8vOck1L5SZzg/nUZByc9KBACR9496UgJjarM/oDTecA8GpN+1857UAHlk4wMd8GnNIYl2jBI7VCCQuASc8cdRQYxGAATye/WncdiwtxGeowfTFNDFWO77p6VA23aVRCzenSkDuiJvG1v7pppisWHjBG4dfeik3NjIHFFMDh/Gm42tiAPl8/J9vlNP8ADsf/ABL2bPWQ8VD4xJBsQBwWY5qfQQf7NjbOMs38zWkvhM4/EdAF2wgq2M+lSgP5YOefeqq7iAG6fWrO8YHzVmaCgnPJB9aRmVBlvwp6bStK6kdMHHagBmSQKQqGJz1pVG5sEYxTxtzwM/WgCBl29TUZkXaSWCqvUtwBUOtatZ6NbeddSfM3CRLyzfQV5Xq3iDUdak2ElIifkgj6de/qa3o4eVTXoZVKsYep2upeOdNs28u3zeSAc+WcKP8AgXf8K56X4gaq+fIghhQ9iu4j8TUemeBNRvAr3TC1jPry/wCX+NddZeBNGtwDMstywH3pHI/QYFdP+zUt9WYfvp+RxK+MfECbmF71OSBEn89tTweM/EETBjeJJg52yQrjP4AH9a9B/sDRUXYumWoA6ZjBqpc+FNEu42JthbsBjfAxX9On6Ue3oPeIOjV/mKOg+Obe+uTBqSfZJHwFkLZQ/Xj5fx/P17FlIyp5ryjW/Db6fukhZ5rXPDFfmT6+v14/x2vBvid1K6VqEh24xBI3JH+wfb09OnpU1KEZR56WxVOrJS5Kh3apg8ce1SEkEHGfpUW4bhhuvSlWfLbelcZ0XJVQD5h1oliLp8vWlLdcY9qEZjxgCgRXkXy2HUkUouRu2lPl9asOgcAntmqMoVZginqfypPQpFhlXaGUUgcqQVNQlmTCDvxmp4+FGevc0hjGdiTvAPocc1G8CscoMe9SSkFyNtQZZWLqee9IQhUxjK4wOST1ry7XdSm8R64FiJaIN5NuPbP3vx6k/wCFdv4x1T7B4elKMwmuD5KYIBGep/Lj8a5b4f2az6tNeSJuW2j+Xj+NuM/lmu7DJQg6r+Ry1m5yVM7TR9Mg0qxjt4jkgZLYwWPc1oTbPJXOWOeAKREyfN2hcf3ianabcoUoMjvmuNtt3Z1JJaIrIrlR14PFTRSyI2GAYnj3prsQpO7B7CnRggDHLHrSGY3i6/8Asvhu6Cttef8AdAeuev6Zrm/h7bCTUry6fO1IvKU9fmYg/wDsv61S8a6wL7VWtImBitSV+U5y56/l0/Ouz8K2C6ToEMUkf76Q+bJ7Me34DA/Cu7+FQt1kci9+rfojXLGOTEjAegHShbc7jhvepHInaNnQgDqKcxWN9ij8a4jqIXxA65yTirA2SJ8zYJHAquzqoJYZI6k9qdCvmNwAc0ADRMDyMqFyKiRldcYIYZq47EHCHgDBwKjZBjg/MBgmkBAzFQCRjPTNRmdg23aGFT7XPU5UDpTGSMsCo2nPIApDAr8oPY0xVxwByamyi5znb6Uw/fyDwf0osAcjoaAxdio6Cmj53OO1OAAPA5PakA1cZJ7ipEyWBZvoKVEGP3gOf7uetSyIAgcsE4xTsJiZHAH1zUhJAB2jBHHvVdSJBwSe2emanVSoVWbgDgUAhrqCe+aXHAwadjBNA6+1IYgGB0wKepHamkn04oQ4Oc0APCll5PNCRhQASSfU0oANODAdvzpCImwBuNCsSOmBTtudwOCvTBqu6Mrthv8A69AiwZV2kE4qMlSPeoMsRuHXvmpVUlNxGKBoljxtGRzT/M5Zcde9MWPegJ7HIowB8xbknofWmA7GTS5cx8YXHQ4pyKXPp60jkHkcKvAGetCQhoGVAH/16CQCduMjqMUMd23GF4oZT8z5XAHIzRYY5dzIwUAkihAxwhwRjDe9NR9qjpGZOAT6UxgcbVbAHQ1QhAPJaQov7odM0Ft8XbJ6kVMql7fg4fPJ9ar5KEqePpTQjyXxpYi41++k37CGO44zwABXqobfNgkE4yAa898TBJbjVGAIK7wecngY/pXoaH5leTG4jGR0xVz2RMWW48BcYO4UuCxwwzzTl6ClOBWRYmM98UowOvNL1H0ph4OaAGI4ORzn0xSvKFCgIpwKXIHXqeKdtBXpSTAqvPvAxkMeue1PVh8pPHqQelNdBuIH4UJuYfMPaquBOnlqSN+4sMmkk2uVRx16U1kCgbSMH17U9VboM88UAMW2MREjsAAeMUlxcLDG7sQqqu5mY4CjuSayvEHiW28Maektw/mzOxWOIHDSn+gHc/14ryy4vfEfj2/MKRtKiEMIYhtgg64JPQHrySSecelUo3Jbsd5rHxG0ix3w2pe/lX/njxHnuN5/mARXJXnxL1eXItYrWzTOVbBkdfxPyn/vmtzS/hjbQCGTVJ5LtyAXhhPlovHILZ3H6jb9K6+w8P6ZppJtbC2hbbt3xxgMR7nqfxobigs2eUJqHjDVkR45NUeNvuyQRGNT+KgA1d/sHx9PGMrqToeRvvl/kXr1tQE6AYxT1c7QM9s4p8wcp5CPDPjyJ8iG/Uk7iVv0HPrw/sKa6+PNJcux1Yknnkzj8cbhXsStng0jI0kZUMF5zzRzCseTWPxL1e0YwalbRXZUkPuHlSA/gMfhtrudG8U6Rr/yW0xjnxkW8vyuB39j+BP4Vq6jo2m6tGsGo2kNwgzjcvK564bqPqCDXm3if4dXOmhr7RHlubdDuMP/AC1j7gqR97H4Ee9Fkx6o9QAKkKykDse1P6jGBXAeC/Hv24R6XrDb7g8QXH/PQf3W/wBr0Pf69e9Vdpypyp71m42KTuOpMcUMcNgmjjHFSUIDkU5ZArbRyT+lJxzziggGmmApYb8DqKpanJKNJvjC5Wb7PII2H8LbTg/XNXmIKjtWbqYkfTLxI+JGhcKR2ODinck8f+Hd9JbeM7KJZCsVzujkUnhvlJGffOK9v4zXzfpV2NP1SxvedsE6SHb6BgTj8K+jwF6bgcenSrqrUmnsGBnNJPElxY3Fu/3Zo2RvoQR/WlJHJ7UucRMwGcD8TWaLZ4/8K5nXxDcwbgEks2YjOOVZcfoTXscTKUAFeKeFdum/ExbZARF9onhOR/DhsfyFeyq4R+Pu/wBa1n8VyY7FoxqAM9aaSOhIyegp3UdahlfaNzD5PXFJgDHB2kde9MCxo24KzZOMGn5MrAqOF6+9SnoRjHFKw7leSMsc5AQccc06OMKMlzn8qZJI0bqUQMB1zSSOzHKjJ71OhQhKidlLEZ9+KIVIJXfgduKYzyEgeWpH0zUyI7ryEX3oAZHlZTlwcjH1pfLbDEKc+hbrUfzJITtyRUi7ZTvK4YUgJBkEFgAw9aYMklm5JqPyijEsc5NK7EYPai4WJSWUE5PPpTzKPLGOTjr6VX80Z6HPSjaActnaeM9qdwFIbHzZx603GeRnFSNlISS2RngVHG4CkuwRRzkngUmCKOs6ouh6TPqLsAUGEB/iY9BXj2m6Tq/jDVLtrciSc/vZpZG2qMn/AD+VafjXXpNf1dLKzJltoW2RhOfNc9x688CvQfCWgp4f0WKLObuX95Ow4yx7D2HStF7q8yX7zNDQ7FtI0a0sGk8x4Ywr8YGe+PxzWgWOMgEk0kRGWXOT9OlStEcAgnJ7is7FDPMO4AnFOBz7mmFHWQbiD+FPY5fAAA9qAEYkIcdfcUKodckZJ9qcFV2Ge1ScdARSAaoVRjaKBGgcsBz60jNtP1p2eDxmgBkmMjngHNRSH96Hdl29qcyqQVB59Ka8augRhgjoQapASfaIuAD1opi2w8s7jh+xop3FY4bxj/x8aeO22Q9fpV3QY2/s6E4AHP48ms7xk2dZs1/hELEfUnn+laugEnSoEyOhP6mtJfCRH4jW+XrnP0p+5W6DH4YqM7UOBxilBXJPOazNCQkoMKaVJmVstyPSmSZGDikVDIchvl9KAJ3kXAYcVT1PVLfStOmvpz8sY4UdWJ6AVOYyx+VuPT1rzn4iXxbVLbTFfKRJ5jgH+I8c/gP1rajT9pNIzqS5Y3MO7vr7xLq/nMjPJK21I152jsBXo3hnw1baMizXUIkvW53kZCew/wAazPAVhDBaNfvDumkOEJA+UD/P8q7dj56jDbfb0rfEVf8Al3DRIypU/tS3HEK6gDg0nllRxSPCU2lWz7E04+Y3Vht9a4zoK0hCybTnp1xTlUxrlcYPUVMsRAJJ6nrQ/DbV7daAIjZQybvOVTG/BU9CPevKvEmjNo+ryQxtmBvnhbuF9D7jpXrJBfAPNc94t0przSWYIWeHLqQOcdx/n0FdGGq8k7PZmNenzRut0L4b1r+1dLjdhuuIhslOR19ce9b4Iz0Ary3wpfHT9aETf6u4Hl4zwGzwf8+temEyR7Qv3u4xxRiKfJPTZioz5okw3FyRx6Yqwn3ASRnvVZZm34VQM1YXOMZ5rFGo45ZeOlU5AiNlU+Y9TVzO1B79qqT8yEgUmNB8xUMetLuNIobPHI9zUiqF5JyTUjQ0gHk01kApzOBnvikLBuaVhnn3xIlxPp9qvIVGkPPqcf0q94Ai8rRZXOQ88x2n2AA/nmsb4iZ/tu3PBxbqP/HmrpfAp3eG4fu/K7j3HP8A9evQnphYpHJHWszotj+aqkkjvQvzOw9DxT1mUfKFO7tmoQ2GY/ic1wM6iUASKRjgcVzfinxEuiWTW8D/AOnSqRGO6A/xH+lVdd8Y22kCS3tAJ7wnpn5Y/r7+1cfpGlX3ijVJJ55JDGWzPckZ/Ae/8v0rqo0Pt1NEYVKv2Y7l/wAH6FJqN8LuRCbaFs5P8b//AFutemoRgblzt/WobS1hs7aG3to9kUY2qo7VMoYFgcZ+tZ1qrqSuXTgoRsTB85yAM9KrPIyzsCe/FTBigPGcVGrB7bMigSknOO1YliiUD5R9SO1KWYPwAPpUaqu4E9qsqM846dKBsYgYgjk45NPVVyD/ACpQGH0pQCec9OtAhGFRnA4B5NPYknHQUYGOeaAIWZSSpJZMd+1OWIEjaCcepqMDghgQc8UqsxdVDAH1NIYkke0c8Y7ilBIcEjaccZFSvEk0nBy4UdDxTnBWPfOfoFBp2C5GmVQvjc2PWoJMyAlic/nU0nnKzKFwnrTWBSM5BzxgngUCGW3Xbxj61eUAY4/Oq8agruHX9KlVuASOTQMkI4pB0HFBOSB2xRzjrmpGB4WhBuJGeKRs4yKVBuHBFICTpwTnHegN2pMEHmjp1xQA7d7UxkDoQRwaX69KYkoYNt3DDEHcCM/T1FADAgU4BqdOVOQDjoKY2OtKMY7igQ4Fs8dKXBIPFIjrjBIyKeSAOvJ6UwDOFCYO485pCCHX93kn07UoYeuPWhju3MOMU0IYwYKxxyKhEgDHd3qYkFeGPPOTUcgDLkY49aYCbVlVCpJdGJAbvxSqwlcgKTgdM4p0ZYrwPm/nR91xuUoM464GaAJIXRmKH5cdqrypsfOcgnrU7R5YBcfh1pJthVgFOM8GmJnmXiSRjeaugwRtlOc9eOK9Jj2zRZz8yjJBrzrxAd11qpIHAcED06Zr0az++cptLDIPtWkloTEfAxZcE8djUpO0c0ySIltqYUk9KVSQdpHPrmsmixwPfNBHFIOBzxQDnvx60gGgfNnjinFSE6Z9qZI+3ARST61Kso24fr3oAhChhnaMnpTgo64/CllVUC7SRuPC4pPM5xikMCQeOM1Xu7uGytZry4cpDbozuR6AZ/OpJZFQjccAnGa4b4oaoIdCtbGKX/j9kJcAcbI8H8PmK/kaqKu7CZyVrDffEHxe0k8jQxty75yIIh0UZ4yf1JJx1r16x0uz0uxjsrCNYoU52jqx9Se5rmvh7oy2PheK6dMXF4fOYnGdvRMH0xz/AMCNdcm853YyO4pzl0RMV1JIl/d7cEGkUk5z1HWmljjOBx6VNuDHJ4PrUlkbZIxjBpAhDAZIHTipGA6q2fWkYHHUChCEMIkUbuCp4I6g1MoOTnrTFB4YkAipCxwDxzwKtIlhhCM8HtxUXmNbzfOcIThW/pTxtXrx3zSSATKVfgZ+Uim0B5f8RfCItWfX9Oj2QEj7VGnGxiceYPqcZx359a6TwN4k/tzSdly/+n2xCS8ffB+6/wCODn3B6ZFdPNGJbR4Zo1ljdCjo/IcEYINeM2DyeCvHSq75gR/KdmOA0D4wSfbgn3U0bqwbHtDLxTRyOKndAM9jjHFV1BDbTWbRaY1mxjik3Z6GnMTu+7wOlAj6seMVIxCwMRBPPaoyNwzUqoN2W6Y6VGyGM46jqDQCPEPGvh6PQdcaO3Ui0uVMsS44TnBUewPT2Ir1HwbqJvvCthK3Mgj8psnklDtz+OM/jWN8TbD7ToNteqmXtZxlvSN+D/49sqh8MLnda39pgjypVlz/ALwx/wCyfrWzfNC5C0lY9K3Ajgc04AGMA59aigYOT16dccVYJxhR19azRTPF9aZdP+KokQ7FW+gkb2DbC38zXrtyd7hY+xyQO1eUfFSHyvFEE6DBltFJcd2VmH542/pXqNi5uoorleRNEsitjggjP9a0lqkRHdl1WcHDfdA5pkgARX3koDyDzUyB/L6ZOfSntGW6DA9PekhkcMYD+bnGei+1TSMCKibC53dcZqMSk84AA7UN2HYUAE+tJ5eAx3EelKr8+x55pzLuHPSoKITM+0KCAKUZlwucY9KVY03dM/1qbC4+XI4oAq42ynzHwP5mlEimbaisU7nHFWfLQLjAx780yI4345PTFFgGhsyFCOM0S/LgCliABYMRk88npSq6uWAIOKdgIXBOMAHHYU5GZlKsMAdjSy7SF4wPbiomlIypxz61IBJ8x256151408XqY30rT5QwDYmmX/0EH+dL4v8AGoaOTTtOkGzpLOO/+yp9PejwV4KFxJHq2sR/ueHgtz/F6M3t7VpGNtWS30RY8BeFGgI1rUYmRypFtE64K/7ZB6H09q9AEkagcbj6kVKI1Y5bhRwoFQkgZBGR7VMndjSsPVAFZs8nmjJZfvEKPepFx06cVGV6oc7SeCKQD1kypBOfSo2kyKm3IECY4FJLEoT5MZosA2JSVznFLJEQuVY574pqB2xnPv2qcccChICqXdQpKELnmpvNBBCrzjNSN0POBUchMS7s5H86LAMSNiSWU5zUrfLwB780yOZm5ZdoHT3p5+8TQMYQWbPftRQzFeQcUUJg0eX+KrmQeK1gZtyNbhl+UfKcn/Cuj0T5NLgzkMUrA8SKreJmmJJ2WyqMc9zXTaXGBYW4bqI1P6VrLYiPxFvk98mpc4GBUa5LcAY9Kk8vtuwazNByk4560rKONp5PpTRsAwxyaVzswR6etMQq7lOB1rl9f8H/ANt6yNRW7MbbNjxlQQSM4IPb8c107SoSD0470oOWyoyKqE3F3iTKKkrMr6dYR6ZYQ2qADyxgkHgnvV8YA5qNnGfnwD/Kmjy1XcDz9aG7u7BKysiXzlUjPTvxQ7BnHlN+fQVWA6k05QAee9Rcdi0m8cMcntTigLb+9Mjyilhkt6Hmo1lJXPOR60wJ8kHI61FI5kUgrkHrxQHUjkirEUTNgkkD09aSGeN6zaNpurXEQ3ARSZQkHp1H869S0+8F/p1vcAD54wTgdT3/AFzXH/EC1EerxSKABNFzgdSP8itLwXdNPoflEkmCQp+HBH9a7q656MZnHS92o4nTxnEi/LkntirOeMGmxKoCkLhsc08sIxkrmuTodIp4xVaRSZstwPSpN4lbjtUUh5HOTSY7E23I60hTYvTJqNZfbFL5hLf7PpUjsRkEg5OPakUNjkihm+bk4/Cm5w3HOKljPP8A4jRML+2kzkNFt/I//Xq74KuJV8Kai9splurYu8cK5JY7cqMe5BFT+PrYy6bDc7RlG2DHPUf/AFqxPh9etFqF3ab9omjDdcZKn/7I16a97C37HHtX9TGHjXX4ZXBvmJJOVeNTg/iOKq3XifXNUUW8t7LIG+Xy4VC7vYhR8345r12fSbG5YSXFnbyORjdJEGP60+x02ysQfsdpDb56mNAKz+s01qoamnspbcx5voXgW9v2WbUd1pCR9w/6w/h/D+PPtXplpY29jZxWtpGkMUYxhR/P1NWFBHWkb8q56leVTc0hTUdhY8Nu+vGKVUK5Jwe+aVI9oG7OR700ks3tWRQjNvOMYGe1RMoikKljt+lTojeZ5iZPv6U2ZQz4IBzQME6YHepQpVP55qOIA9O1EkmVPGQvvQDJcZ6Y+tPHHQYqsHIIC4UHgFj1qwxxgE5NAhrHIzjmonbHzVITgZNND5I4HPSgBAD3/OkZC7hg/A6k9qdhmJA6d6kleFowA4wvGBihIBiF1DeSMt0OR1qRWckeaRkjGB2PrSCU8EyYX0A61DJEWY7i2D60xFuSIShCcvt5FVp8NIM/NxnGOlOQlFCrx9D3p6h2Uh9uMY560XAgBY25Kg4PPvSI5bB7Y54qQIEzslDc85I4oilLkom3n+IUmMDknORzUgPSogWZ2Xb06EdKUNkgHr71I7kvJBx+NC8Dim5+U4OBTgdw6UDHnKNt607APNNGcdPxoOPWkIUHvjGKa0gGSw69KHGCMc+wppXdGck/Q9jQAi4kLDJwgzntQjZjG5sZ6e9OWNWTHPTpQqbgxboo7UwBVyQ2B6VKeFwSD7kVXgdnPXjPHtVkqcAkg89KAGjDOSCCvrjg0hAVzkE5HQGnkZYtTFQeYScn+VADedpwhz29qa0bKSSSMn8anCNg4Bx6ikGWYFyc+mKaAEjwQScgUrK+x3cqFx8opDH12sefeljjaPOHJ+vNMkh2O4aRiqKBtAzyR6+1KzElEySQuc4/KpGlMe4iNcnrxUKscDdgt3OaYHm3iJ2a51UAFcSYJPGRvAP8jXpKzOmEQruUD6YrzTXXBn1IY588jJGBnfxk16RGVeQkDr0FaT2RMS+kikBjjd9KjnJ2k8YPqcflSjGAMYpHVdhB6E8YOazbKsLhEhUseo6daQL5jAsy4Ucc9KUqN+RnjoQetNIQZwAMmkMN3HFIyjAPlkn1zSKCwwQBzgZpTHu+XJx6g0gHeTu+eQ5PYdMUjMMYKKR70FFVTTXISAmUcMeB60wGyxBY5JWI6AovUflXmHxWyLjR+MKYXYemcrn+lemOsrT/ADldi/dANeefFm3leHSrrb+6jaWN29C20qP/AB1qqHxClsdn4WlWbwlpDKQQLOJSQc8hQCPwINbHBGa5rwCjJ4G0wMMcSH8DI2P0xXTAEqTg4qJLUa2GkAjjvTCpVQEyAOvepMg9DSDn2pDGJkLjNOAYjj8qacluafkY4oAjEjIwUkYz+VWfMwmMdeKryJuH60+FmVGQnkdzzVJiaJiPmBx8vejCyruXrmlz8lIjDJXd1HArQkgAMUhEhP55rzf4p2KebYXsScSq8Tt9MFR+r16c6HvzmuJ+JyBfDNmg4H21T/449JLUG9Do/DGp/wBreF9OuWffI0KrIfV14b9Qa0WAL4B+b0rk/hnMZPCEce0/uZpEH4nd/wCzV2C5VSD68U2riTK8jBAO5zVdpJHbCdevNW5INwABCjqRUIRVk+U5FZNWLTHAEggnk+lPZA6KCeRTd21jjBB4pxJ9aLDMTxNYnUPDOpWm0s5gZkHqy/Mv6gV5p8Nr8W3ipYmLbLu3ZAB0LDDAn8FP517KwB5PfrXg5P8AwjnjAnDKlle9AeTHu/qv86uGzRMt0z3YgMpGcA+lPjPy+uPWolIAUjkEZqYEBNzkcdahFM84+K9ifsum3ykbVleFh3ywBH/oJrrPAdyL7wXpcjRlTFEYM5znYSn/ALLWd8Q7X7b4MupNrZt5EmQAe4U/+Osap/Cu/wDM8O3lp5nzwXO4L6Kyj+oatvskP4jvwy9M1E0zI2wdPWkWQOfeobrchHOP61DY0gmlDYC4IPXjpREocHBqthzjPfuKlRmjzjmouWSSkjaij8qlj+YEZ6dapGQ7u9WbdhtzjBNFwHdGPrS5JUetKygjPSmKyhsMKQD2cEfSosAyBzn8KJHLHaqk06OE7Dls+lUBF9nDTFl5VuSKn8hEBIIH40AHZtP6VWupY4YHmuH8uCJdzP2ApAEk+1NpU+xJwK8z8X+NRehrLTmKwfdklU8yn/Z9F/nUHi7xi+tTfY7BXSyBwBj55z2yPT0Hetrwf4LjtjHqOrBWuvvQwnBWMdifU/yq0ktWQ23oiHwd4IeOSHU9ZgAYkNBbuM4/2mHr7dq9GkVlm3Jyp4IxUbM0sowMBPSnCQscZx70m7lJWFkJCfLkH2qMZPGc+tSsATkntTFVmckDaPpUtDEYln61ZXBwuKr7FzkswPtxVqB1ZlyBwetCAaI1Y4JOfakJKqTjJ+tOu3AlBjJAPWqvm8nii4rFlT8pOcZ6UAuMgD8aaPLHQEke1QmdlkIOABVXsCHTZDKuecc+1MHIwelKhLOWOCPfvQckEgDHfFQyiSGNiw5BUeopxbJNRQyMOApPvU0oBAOcH2o6AQFweGopdu7JPNFIDzXxG4fxDc7QQERV5HtXW2BZbaFHUYEYBOeprjdcO7Xb0cYBUcf7ortrUKUXYcgqOfWt57IzjuXMDAAqKZhv4696WT7gxxj3qLJbk1m2aAynHPSm7uvpUh+ZCeoFRbSQQDg9qQCZJb2qzG5C8HGO9V0DcKeTVgAgc96aEyu0qz52uxIPcU9XA+VqeDk8CnbBnoCaAAZJwAcU1yQcL8xqdAQM9B7iliRUckkfWiwCxFxjfjbjpTXC7soSD6UrMcnHIqMsc4pNgLtVMNgs2e9WBKxUc49qrg880DNK47HM+PEBtLOXPIkK/mP/AK1VPh9ukfUF42go38//AK1aPjbH9iREgbhOuM/Q1kfDqXZfahgAho1P6/8A169CnrhmcUtK56KOWHGBSviRyhUgDoaZG5ZtzZAB6VIrA9a5WdJU2GKVUH8XNRTFlcAtx1JqeYls461WkDFPcVDKQikuRtJweeak6YoiQ7SxOOwphbDgFgcdaQxx5PHWmlsDpTt2B70pAwuQcUgMfxDZm70O93kkrEXRfcc//WrzLQrs6f4gtZw2FEoViem1jg/oa9lHzHDAEMMEe1eLavaGx1a4tyMBHZRn0z/hXoYOXNGUGceJVpKSPZ2K7fvE46VGjH5hnn0qtpV39u0m0uupkiUn69/1q1tIOVRT9a4GrOzOtaq5KJMDnrSNhhxyfSkwAoBHzU4DZj5gO+O9IY/B2gHJJ5+lKp6lsYIpd+INyjJJ6kVH03b/AJvYUyR8Z3qY92FHpVc8vuBIVasoY/LKhSC3b0pkCFN6uAR/tUAEXyKXUEimlvm3Ecd+Ke7CPAwck8AdKGbyzjHNMCtK6PMBsK4x81WEJk3O7AKPugDFRNcq6jAz6EiozI23BOPbNILFtpPl3L09TTFk5zgE449Ki3M0YTjb2qSKNjk4z7UANWSRmIbJB5OKR8KmMfNTmLAEn5R70sYAiJAbJ74oAUtHtXcNrLyM06N/MiznJJpqYck8ZUZx1pquXbLDO3saAJiQmBkMfTrigDzF+bpVX5vM3qcMT2HFWkyCQR1pMdgIAJHFRGJTIHPDD3q1tzzTShApIGRb1Aby23SIOjdveqrXjqwM6kBvusKtnIOW5FQzwGdPvfLz8rHGPpTYg3sGWQcp6elWUYHmqdpE0JZZdwVh0PQU9d0CfMcqvG6kMthuzdM05XwcHmoUbfjmpPxoAHkKtgc0iBgMEnJpDnfnFKGO4AHJxxQAu8gnGMnpUauzZAyc/eprp5jAKxwD1HenouxTk9u1AAI2Hb6CrEZYcNn8ajGTj5hTkfkgjpQBN1H1oHHbik4x14pw9KAJEhlmlWOMg7uMEVYmsZrYYdD9eta+iW1uIGl80ee/yooOMdf8/hWhcWsKQPI7/N5TffPf1x9a0UdCLnJeVwTjnFLHFvXIRjx1xWnY28dzdoGA2KRuJ789PrXVgwwxquQq9BTULicrHmdwWV2TB4P4VGckhfl5x0q1qaNHcXEWeFcgH2rPSPBXJOc1JR5jr0gkk1Ilv3YuX3euA55/MV6ihzKD/EcdBXmGuoPteooyqN9wwUk9cydM/jXqMS7n2tk9Mn1q6myJjuzQuEKShSf4QfzGf61FtUhlJwO3OKt6gym6+Vg4CIM4x0UCqZKkgEEfSsupYgBTCmn7RjmkbaQMZ59eooJGOvJ6Z70AIyjKjjGc4pc4xSbsLuP60bgeg/SgBQwY57DrVWYNNONi5jj4JPc1b2EAhcAY6moY0kiHzqCD3HTNMBwwx3Y5A9adsSSJo5kV42GCrDIP1FKQqorKDgcEU4Hn2pAR7AqKqgBQMADoBQ7sI/lGcelPpucEgc5oAYjFhk4Bp3emnlyQKcuT1/OkMdgEUxlHQjIPY0/PpQuCOT0pAR42AkZwfWk2EuJAac+CMGkzyccUAhybhwx4qXtgcGolcjj1qYDceBgmtY7EseeRnPFcL8UGI8PWkZYf8fYbH0R/8a7ZxxycV5h8VLxGurG1TO6OJpWPrvIAz7jYfzq1uSzoPhihi8HROxz5s8jKPQZ2/wAwa7BxuI56Vh+ENOOn+EdLt2yG8kSsD1Bclz+rVtIdwJJwB2NDBCt86HHJ6Gqx3q+wIcf3vSrJ8wSdOKD+7Ulz8pPepaGmV+hyKPnyMnj0pJ0yu5X+XPTHenLkjkKMe9QWKGAPPINeRfEvTPsniVLpR+7vYQ27PV1+Uj8tn5166QXKgVxXxN09pvD0N2Fy1lMCWz0R/lIx9Sn5VUHZkvY1/CWoHU/DGmzElpPL8tyTyWU7ST9cV0DKHKoBxnJNeffCu93WGo6fghoJFlVif4XGMAfVc/jXosQwNxOc0WswvoVNXsze6JfWYGTPbvGv1KkCvLPhZdMms3lphiJ7YSZHqjY/9nNewkZwDyD1FeJaIf7E+J8cCho4kvpLYLjGVYlF/mpq900Lrc9mVSo3YxSsouIh1DDoaSVucZ6dQKYjssZ6AZ6+tZFEDLtc5GSOKTBAx7ZqeVSV8yMj6VX3MT6ZpMoBwCSOaniOD16VBjA3E0ICTuz1pAXdyngHNRzBcqw/GmqXXG38aYAdxGc88UAS71VS4Bx39qerEjlutQFCQVJqjqeuWOh2bT3TEAD5VHJY+gFUtRF2+1C10yzkuryQRwxjLE/yHqfavJvFHiq88T3yWtrE625IWG2TlpD2ZvU+3QVV1fXNU8XatHAiM5ZiLe2j6L7n3x1Jr0Hwp4Rh8PqbiUrPqEg2tIBwg9Fz/PvVJKO+5LbexU8JeBotLhOoanslv3HyoeVh+nq3vXWRxLKw+Y/L0IqRw4GDn8aSGMg5yAD2qXqytkTrHjP65pGRARyCPaogC0xQNx1INP3BWx6CgBwc5wAuO/rSkjggfWmttPIHPrS9Yipx60ARyEHBHQU7PlrkH8qrknf6U9G4Kk1FyrEckhIJDHrQmSCc5z3pSgQnJ4NOiQNIMHC0wHSDMexSVyOT3qPYPLA3FscDNTy7duFOSO1RpvB4XJNNiCKPawO4n2FTsgdAoG31xSIu0neMHtmgsWPGQAaQEiqiR4BqNzwPQUMxxgUwnB659qTYwBophJ3DFFIDzDUgJNdvMgnfMvb2H5120DkYUdhXDXEhk1i4wSWNyVHy+/pXcxArwPpW1TZGcOpYMnY01s46H3pFVd+SealwSPU1kakKnaM5xTsFhkHmnFVC4xzTo0PU/SqQhsPyPlqe7mQEA57AgVISq8bQT3NRt+7+4uB7UxAIGC8HnvzT8BGBzmmCRmzg8UZ4GaAH7mYkHpRnAx3pAccinY9RSYDTyuM0MaD70jdKQxGJCjnmnBsEAmmFN3ek2MpzmgaMLxkc6THkZ/fLj8jWX8PEZri9YDjCBvzNXvGkuzToIzg5LP8AoAP/AEL9Kk8BW4i0mac8M8uMewHH8zXoU9MM/M4pa1zrTw3HekZ23ZHC+1AB2kkce1Nzla5GdKBmxzjOahac7sbOvepWBxnqAM1GMNywqRjdwySDn2qRI0ZdzKKrsWZiEwPwqxFIqooNIYMp37iBsXt60Ek81IRuGeajIzSYDN2eRxXnPjyy8vVUuwCfOUZPuAB/LFekYPQVy3jm0abSEmUDELc/Q/8A1wK3wsuWqjGvG8GQ+BrwyaMbcnPkSkY9FPI/XNdUScjPQ9K4PwDcbNQuoD0eIN+IP/1679eMGjFR5arCg700RFWBLKTntSRq0jb3YkjgipSOadHhUdz970rBGxJM8K7YkBz3qM/cyOppFG75jyT3p3zHPH40XAiByck8+1TtINoJ4J/WoSm1fU1JGQY1LnoaaExyz7pQHUBT0yaJSHBVep70skeRlVB9GqLJB64Hei4iuAY2CBcjvUwTLHctOkUL86HII5oAaRsE7eOp6Uh3DACgd/WmKrKxZWIJPXPQVI65Y4PyjpSKGGSDj3pDFJK8typ96amSgIIx2GaXyUlZTIu4gdeh/OhNoJQLtJ4BzmquSIHxJgqduecCmzMNpK8iglk4zkH0HJpqv/eU/TFJjsJEdrDjI61bEgKhycYqrj5yCcZ6YqZFVEx1zSGWlPPWgnrUCSfw9hT2cbSaBDnXevTg1EWZPlTk9KlUkDBz+NZurazp2jiI39z5IlztGxmzjGfug+oqkm3ZCbtuWstvxJlh05NIGdXUKwaPPK5rnLnx5ocKL5M09xk8rFCQR9d22s24+IUW4tDph2AjDySAE/gAf51tHD1ZdDN1oLqd8tvGwJ3AMOm3iow+x9jOfbIrF0HxHDrlvInlFLmPGMPkEetar2QkKn7VKpXuBWU4OLsy4yUldFgCVmwVVV/vFqV33I6r/wAs+C5GPyqJYntkC7xICc7pGwc1Ykby0GUaQKMnbSSGQQnCgAD8KtFc84/OqcbxzO8kOVI6xng1aWQBRnrU2GKsYDc08jC5wKb8rkbshRyTXL+JfG1t4fljt1i+13TDcYw+wIvYk4PJ9MflxmoQlN2ihSaSuzqgQQRnv+VPyBg9+ma82HxVYn/kCg/9vX/2FWrf4mW7sPO06eMesbh/54rb6rV7Gftodz0mCdoGBT3p8108p3SOWPqTXHWHjnRr1trPLak8ATqAD+IJA/HFdCZCexxWcoShpJWKUoy2LInKscMcfTtV+PVpIYyrgyjtnHH55rEWXD47HipCzdAalMdiO6le4ldmGS3rVdQcqCCDx+NTeX5hCuc8nBojIH4HHrQhnk+uzk3eopnGLiTqORhjkewzg/hXqsJIKtjBxXluqWxuNQvEjHDXjJ15y0hB/nXqasCwPrWlTZEQ3LssgkIPsKhb1Apw6CkPNZFjpAW+ZcYphKsozg0qMW/dFu3WohHtODktnBA5z7+1MB5OMAGnhgiHcN30qKaOQ7UR9q98dakG3IVeQBihAI7uHDdFI4x/WnE74sFuQ3NJ94HBBHoaR35AAxzz70APBIPPf0o/pQB8tDZ4/nSAa33ulMGdxJ6mpMZ60hHHSgBAGz0oHAGPypASvGMGue17xppXh8tDLIbi7HH2eHll443Hov8AP2otfYDovMXO0Hp1oJC5YnAHUnpXjN94817UZTDZ7bRZWwqQrukb0G49/oBVdPD3ifWGSSe3unJIVWu5Npx9HOcfhVcncXN2PXJNf0WOUpJq+ngr1zdJ/jUZ8R6GWKjWLDPX/j4XH515wvw011sEyWK56hpWz+imn/8ACsdYAyLmxz/vvj/0Gjlj3C7PSoNZ0u6kEcGo2bv/AHUnRifyNaMUi4ViQcnGc14+3w41+NSUNnIcZ2pM2f1UVWHhrxTprGeKxuYjj79vKN3/AI62aaSWzE2+p7dJkY9O5rxK8/4q7x8Iky1vcXGBhiP3KjqM9CUXP1NOk8UeJbK0ksrya7RJo2jK3UfzYIwSCw3frVnwDfaZp2s3E1/MY5ZoxHBIR8gy2WDemcLg+xqxHsS7c5PGeAKSTr8ueTzioY3ZyDsDL6+lSlgckc44pJjJS3y5wfpUbNldpHU804EKvqaZgkg8YAyTTAhVGhk4/wBSTyD1X/61TGFMjaF29cDilAUjJwRUbjaPu856A1Nh3FWMmYFc4z+VUdfsv7R0XUNPiwXnhYZPOG/hP4HFaBbZl06H1oj7Mr/NnJOKQM8W+Hd8tp4wtQ5CpdwtCSzYAP3h+qgfjXs0krLkDGPWvDPEcD6F4vvBAArW90LiIAcAEhwB7AnH4V7TayRXNrFNGcwSxiRCe4YZFOfkKJKJ3AwSMfrXj/xAgl03xmb6Fm3SpHcRsezrhf0KD869cEYJPz4xXB/E/T2k0yy1AICYJTE5HZWHU/ioH41MHqVJaHbWN2t/aQ3EbZSWNZAcdiM1YIz8vauZ+Hd59t8JxI0haS1kaBt3YDlR9ApA/CupYcEDFTJWdik7oapaIMvY9CKRPnbcAOBzTduMZ/KlikCSYA4PB4oQDGwTkjj2p0bJtwCM+hpXjAcspzntVYHaxOBketDAvJtwRxSEqrcDBqukoLAjpisXxL4ltdAtQCVlupFJjhB5+regpWYXsXNb8QWeg2X2m5bdI2RFCD80jf0Hqa8nnuNW8Z65hEDzOflReEiXI/IdMnvUdtb6t4y1xgGMkpx5srfdhTP8vQV6/wCH9AtPD+niC1jBduZpTyzn1J9PbtWq90zd5FTwx4ZttAgZEYTXEg/eT7cEn0HoPaug27OR19TS4/i24z6UrcfMakofgMAG6e9I2EOADTIVLNvz8vvUznGCMUwK+0rIzKVAPFOeFh8ytx6UHLOo7/SlaTa2D361NiiEvt4xz0pokKZz0qaRA3I6+1VjjqetQxofy3I79KFBU8AE+mKVSGTjtTwwVc9TQgGKpzyM+xqZIsd8UkfzMcgU/JYHIwPrVpCE2EMWLZAOeKUygHgZHbiggkHgfSo8YPtSegIcXLZJxgUc44o2jHWjAxgcD2qRij7tRlR/9apD7Uz60gEA5zxRSjp14ooA8mHza4xH/P4QP++69AiVjyRziuCtP3mtISMhronA/wB6u/j3AdQw/Kt6nQzgKnBIYU4vj+lNZm3fcpwUt1OBWdjQXGRmpAMqMenambxjbnim7ueenrVIRNx+FIyApux1o4yPf0pZpANqD9KYEYUDtS9807bkZU9KhaQnjH4ipAlI6c0pbioJLmG3tmlnkWNEGWdjgAVxerfEEITFpMO7/pvMDj8F/Lr6dKuFGdR+6iZ1Iw3O6znmkyAM5BHQ4PSvHLnxLrF6x83UpwP7kR2D9Krx2l5d4KwXdwPVY2b+ldSwL+1I53il0R7DJq2mQErLqForejTqD/Os6bxbocThDfK2R/AjMPzArz218N6tcJuj0yYr/t4T/wBCIrRj8IaksXmSG2hUDcQzElfyGP1pfV6K0cg9tUe0STxLrkGrXAFoXaJAB8y4z3PX8PyrR0jxlb6VpkVsdPdhGMk7wMnr6VgaZpR1DVFsvOKqWIZ1HQDrXdWXgTRbUB5Vlunzn9+3H5DAP45rqm6MIKEjGCqSk5Ig0vx7Hq+pixXTp13Nt3xneFznG7jiusB5xioLe0t7VBHbQRxRdQkahQPwFTnpkcV59Rxb91WR2QTS1YhbAPSoN4VjlgR6VK7dwo+tV9gYnOMVmyx5l35AGO1JyuBgn3xTSAmehNIszEHHTFSxk2T2PB680bsd+lRqx6HpTwBjNSwHhs1leJVDeHrwEZGzP5EVpdO1ZXiqTy/Dd45yBtA/MgVpS+NepFT4WcT4KZxr6qv8cTD+Vel4z+Fec+B0J8QBwOEhYn8cD+tejEsvQVvjP4hlhvgAjPam7l8pxjqMZp+455qGUlT16npXIdBLGNqKN2cDrUmcHFMzxnGacvIB60AIQTjt70xvlgxnc468U9iSQKawA5YgHt700JjomZRkgj1qUpE/BJHriq6ksc7s47DpVe6uBaW9xdtlkhjaQqDjIAziqSvoItSSeTmEEEdyB1qIyENgcKe1Zfh7XrXxFYSTJEYbiN9skRfdt9OcDOa2TEgwc5+tOUXF2Yk01dCqcdR1p3bnoaZlm+6vA9aRQwIOOoqGUhwXrzTcFc7RnP6Uob5tuM0qkgmkMbFw6jFRyoQXYHH1FSjaXG4965DxH4ztbCeS10//AEmcfecn92p9OOta06cqjtFESmoas6cFWG9x069qhXV9MaTZ/aFoCG2tm4UY/WvJpbzVNcuSrPPdSfe8uNSQB67R0+tXh4Q14IXNgQFH/PVCT+AbNdf1OMfjlZnO8RJ/DE9a2wOuY2JUdwcilVgDnrjgnFeSaRrd/wCHrop83k7sSwMeD6/Q/wCTXqtrcw31nDdW53RSqGU+1c1eg6T8jWnVU/UubhjPWvJfiQ8p8TqHfcv2dNg/ujJz+ua9TycsWJVccd68p+IuD4ljI72qdP8AeatMF/EJxHwmVpWg6vqsHnWVkZYd+wvvVQDx6nPf0rprX4f6jIMXV5aoo5+QNJ/PbW94ICw+E7IsEAleQ5J77yP6V1ioNuMYrSri6ik4x6Eww8Gk2Ynh3w/FotuyiUyzsfml27RjsAOcVvAfLgnmoiVjbripUddgO8HNccpOTvI3UVFWQyVSU27dxPSiEtCgR1bAP3jUVrqmn30rx2d/a3LoMssMyuQPXANc18QdefStHTT4GxcXgK5GMpGMbj9TnA/H0qoQlKSiKUklc0G8X6FPq408Tl5HcRpOqgoGzjG7+o4961wXVxHIpz/BJjgj3ryTwNpJ1XxAsjsVtrMLK+O7Z+VfxwT9BXsCndlZAGXtmtMTThTlyxIpSlJXY9Qy8M24jqcYrjfEfw+XXdXk1CHUmtpJceYrRCQcKFGOQRwB6112TEDlwRnjA/Spg2VyevvxWMJyg7xZpKKkrM84HwqlUZ/ttCR0/wBFxn/x+qmoeAL3TrOS5W7hkjhRnfIK8AZ46816nkFc/hWB41Zl8JX7Idpwg49C6g/pXVTxNVySbMZ0YJN2PJ9OtpdS1K3s4iPMmkCDPQe5/CvcbeAWtlDbKxIijWNWPcAY/pXj/gk7fGWn845k5P8A1zavZSc5Herx7fMok4ZKzZCzbGAIyMU+Is4JUBVxwaZKQVCng05sZRFPIHJrgR0ihhkAgkdznFIq8bkACg8Co23AAAx55yA3NOAkQAbgR7VSQmeXanIIp9QwTu+2MGKk5Pzk4/z616fFkNg15ZqYeW41AbGbF42B/ePmEdPzr1KE88n61dTYmBbBGMcmkZiTgVCC2eDmpGGPr1rE0AFg6joT6VDK5t5GEQ2u4wx61JuLMqn161XkffK4UfIvcmmhEsMxmj2EnzFGC39anClYmIJJHIAqhDGzz5DADPU1ZW4f7SYl+fPIHp9DTAfGZGbecqpGMdvxpw5UKMYWkx5ZJYY3D7oPApQNr4z8vUUASjp1pTuK8ioyq5BpcbhilcYfMCeQadnnHtSHAGABn1Fc14w8Rr4c0vbA2b65yIR12ern2Hp3OPfDSEZHjjxk1gz6VprlbrGJ5wf9UD/Cv+0R37fXpgeGfAc2qRLf6i7wWzkMidZJR3JP8IP5n24Jk8E+Gf7YnfVtSDyWyOSgk5+0SZ5Yk9QD19T9DXqO7B65pt8uiElfcyNN0rT9MjaK0t44VCkEquWYe7dT+Jq1EFRF77fumrDYz93aT+tR+QQhK+ueB2qCi0sqyADv3pwBxjtUKP8AMBzg+tTggqOaAEzjIFRMxU5PQcmpMYJri/iBrosdPXToZCtxcL+8C9o+mD9f5A+ooSu7A2cl4iv5/F3iyO0smzEziG3znG3u59O7HvgD0rptS+GthcLHHp95JalQFkZx5gcAfexkcnjvj2qL4daC0dtJrFxH+9mysG4HITu34/ToOODXeBSOQpOatys7IlRvuMsIRZWSWxJZUUKCTk4HrVtEHmMyZ3Edc9abGwORt5pH3x9wo7UrjsWMtgblAP1zSZI4H601ZBtO40/gjPWrTJGAou4jp3pjkM8YQ9Qfwpuf3pRuFIznHSpxnbjg+4FMZHHbjdkklh19/aniSPeY87WTqpGMinMxRvQHiopIhcx8fK6n5WNFhHmnxT0/N1Z6oqnbIpt5G7cfMv8A7N+VbPw81OS+8MLbSkF7FzCp7lOq5+mcfhWj4p019X8K6haCMmeMCWIAZO5Tnj64I/GuB+HWoi18Sm2Y/u7+IjgfxqCV/TcPxpPWIbM9XwcEj0rD8WwG98I6lCHPEJkxjrs+fH/jtdDs2oGJxmqskKXMMkJwVlUoeSBgjBrNaMvc89+FlzmbUrMuASqSoueT1DH/ANBr0knHFePeB5X0jxqtrMg8x1ltX56Ec/zTFeu4O/JzmqqfEKOxMYyygqaiZtrhmUn1pHdkxg0glVh85GfpSRRIjKyg7u/pTZlBYFB165pkbKrlQOOxrlfFnjBdFVrO0kWW/III6iHPc+/oKe5L0J/FHiq28PxrDCBLfuvyxEcIP7ze3oO9ed6bpGqeLtUkkDlvmBnuZOi+w98dAKk8PeHr7xZqMsjSMtur7ri5Y5OT2Gerfy716/pum2elWy2lhGqIvRQM59ye9V8OxO5U0nSbTRLFbazTbGD8xPVz6se5raV1SItng1VkUrKVP5CpIm3jac1ncssKykHJHsKa8ibDk5PtTEABJK4I7+tCMNxCrjPPNO4CW7kk9qnBGOeSaijYZYHANPVhnrTQCSghsr+NR/Ngc5B9KsEFxUcR2koykYOBQ0A1GJG0Z+ppjQk8lhUhJRiG4U9MU1s8FWKrUtDIhkDaacg+bA/Km7Duz8x55JFToCqngCkkA4Da2fbpSock9KjMh5DciljPoaq4idMZY4qIfvM7eBTkfYhyeSeKiGFGe4PIoYCvIFH3SKZG2M7jStKkrbSMYppVQc9RipZQ4tjHPFNZuOvNRn7lPjDMmMVIDwfkAzRUQO3I6CimB5dpYMuq22MZMxPP4138R2IAeWzXA+HowdStQv3csRz7GvQFzgMcZrapuRAl2IV3EHPtSbgO3/1qQNk80pPBFQURMeeBSocnmm7STy2akVcUDJE67scdqYxO/eeTQT705sHkimIjMzICB0NUtU1W00uxNzcsRj7qKMsx9BUt/dwafZS3dwSIoxk4HU+leXXU9/4k1TzCpOTtijHIUVtRo87u9kZVanJotxNS1LUfEt8i7SRnEcCZIH+J966DSfA4CpLqLEtnmJG4/E1v6D4fg0mAMQGnYZZyP0FbJ61pUxNvdp6IiFC/vT3KlppNjYx/6PZxoD3AyT+Jq8uw9EX8qQl9oXtSFSuDjiuVtvc6EktgbJXHSsHxPfGx0sxow8yb5Rn0710APBLfKqjJJ4GK8/vZZPEfiNYoATErbVPYKDya1w9Pmld7IyrTtGy3ZteDNNMNu164O6T5V9cf/XrsQ45FVbO1S2t0hQbVAwMVOF2Zwe/enOfNJsIR5VYC3bjPrQH3IAp61GwBBz3pqYT5c1k2aEjD5GUnjHFQIWKZOQelKxY7t3rSqNy+xqRjCGUnB4pMhRgcnvUxA24WmsgPHSgBm7BGealHSotuGHpUo9KlgPBNcn46vQmnw2Kt88z72Hoo/wDr/wAq6h5BFE8jthUBYn2ryzV9Qk1jV5Z0Vm3kJCmOdvYY/wA9a6sJT5p8z2RhiJ2jbudJ4CtMfbLwjriNeew5P8x+VdoSQPeqOi2C6bpVvbAfMq5f3Y8n9avnFZVp882y6ceWCQ3BOO9DSBYShA604HPtUcg2kHFZGgb1Ee5iAoGSTwBXN3Xj3RLSYxb55sfxQxgj9SKd40+1v4e8qzilkeWVVcRqSduCeg98VzsPw0mmto5Z9SMMrrueMQ79p9M7hmuqlTpcvNUZhOc72ijprPx1oN5tBuHt2Y4AnTHP1GQPxrd+V5FkJ3AcjGDmvI9f8JXGgWy3AuVuYCQrts2FGPTjJ49/Wt/4darPKLjTJN0iRr5kOT90Z5H0ya0qYeHJ7Sm7omNWXNyzR3wgDgss2z1XGa5Xx5frbaVDp6SAvctyo6hVwSfzwPzroru7isbV7m6fy4UXLmvHtR1W41vVnuSGLOQkMfJwOgAH+eTRhaXNPm6IK9TljZdTrvh+PKj1JwCA7oi49VBJ/mK7zarjnOPY1leH9JGkaRBbOEM2N8jKuMsevPfHT6CtRck4DEVhWmp1HJGlOPLFJisMngkdutIFZWzuGe1KysFxmkP3f9qsixw3kckAfzoGdxDdv7tCqfv5GegBrL1/Vv7F0W5nDD7QF2xDGcueh/Dr+FEYuTSQOVldnLeNfE4jkfStPlO4cXEgPQ/3Qf5/lWL4Z8Jy63m6uXaCxU43/wAUmOu32Hc/lnnFPw5o7a9raW8jN5QzLO+edo9/UkgfjWn4z19hK2i2BEdnB8khj43EfwjH8I6Y9R7V6qi4JUqe/VnDfm/eT2O0s7rw7YwC2sbrT48AABJFBb6nufqSa2Fwvyk5IrxtvD2o2ujxapPF5dvIRt+YZwehx711/gnWYkgOn3Nzhw37gP0x6Z/p78Vz1sNaLnF3Nadb3uVqweOtNj8iPUVUCVXCS9sqeAT9Dx+PtU3w81B2tryxc5WJlkTnkbuCPpwD+JrR8Yrv8M3wcDgKw+oYVzPw7ZjrlwmSFNsSfruX/GiPvYZ36Cfu11bqelt82MGvI/HcwuPFksY/5YRJH+m7/wBmr1mRSuQCTj+71rxbXbo3mu6jcFQS0zKu3uF+UfoBSwMffbKxLtFI9L8GwFPClhG4xlGfkcnLsQfyIrpiflFZ+mWpsbC1t2IJhhSP/vkAf0rQGQOBniuSb5pNm8VZJDPOKqQFDZ45NeVfEDU9Qj8QpbCWS3jhiUp5bFdxbq39Pwr1H95k4UZzyc1zXjjQP7b0cywofttrl4gMneO64Hr29wK2w0oxqJyIqpuOh5Lp+oXGl6jBe2zbZYWDL6EdwfYjg1o6/rUmvatLfupVGAWNGOdqDoPzyfxNY6pubpWx4et7W48QWFvdkeQ8wDA4wx7KfYnAP1r12or37ao4uZv3T1Dwbox0fQIlmBWe4/fSjuCQMD2wMZHrmugx84Azg9M96XFL1bJHQceleFOTlJyfU9BKyshCskg242uDnHevI7rxbrj64WW4mV0lx5IyRkHAXb39Md69dZxCxfaWHXOayl07TWuTdxWFvFclyxlWJQ24984znnrWtGpGF+ZXIqQcrWZqwzM6Rl4jExUFkJztPcVQ8TRrN4Y1HdyFgd8fQZqxFMd5jk4cDj3qtrhLeG9TAG4m1lAA9dprKn8aZc17rPJvDU7Q+J9NdTgm5Refc4/rXtZ3b+Bk+5rwnS5Vg1S0mcfLHMjn8GB717xtJY5JNd2PXvJnNhXo0R/OT0A9x0oYbAC+cn07U6UkYwKYpJ5J+lcB1CFyoJVgCwxjHNTxFWj4zgdz61XkAU43e+KIcOQBwM9KpCZ5jezAaldKGwRfEk+3m9q9MQ4bOeoFeZXgLajc5JXOoHdt/wCup6Ht1616aAc1dTZEwJevcj3FSgnAJ5PrUaHFP981gaCbgMkg4A9aohm8rbnJJyeKszORFgA5brUKxuJFK9M8mqQiYoohMZ+8RnjoKmUJDGGjQb+MnFRqCEbIJOe/ensSq5Od1MBJJS5x0HU1KGEgAJxjv6VTXcRz1NO3OHA7Y/WpuOxYV8AgEnnrT/M5qAP3xkU/OTRYQXFxFbW8k80gWKNS7seygZJrxsfavHfjEnJjSU5PQeTAp/nz/wB9NXW/EjWPsmjRadE2JLxvnI7Rrye/GTj6gNUvw90hbHQBfSpi5vfnyeoj/hH0P3vx9qtaK4nq7HWwQR2dpFa26BYYkCIvYAdKcT3B+o9KXPrTGxyazLHlskY6DkVE8m05Vx6EZpM4HPzDPze1JIu45A5oAQuxKncD24qyrZUVCkeFHOfalklSGN5ZGCxoCzE8YA60CK2ratHo+mzXk2CiDCqTje3Zf89s15Vplpc+MvFDyXTEwlvNuHGeE7KPTPAHoB7VN4k1q58U63FZWIJh3eXCgz8x7sf5k9gPavRtA0SDQdMS0jId875JMY3sepx6dh7AVfwrzJ3ZqwBIY0ijjCRooVVHAAHAFSBwepwPao+tCHGagsm34YEdKTzVyQwLKetMf2NNU5BUjkH0ouBIZFIwOBTgSygZwV6YqD1z27U+MAHocGmmJlncXZQp5HU+1SZy2wZA/Q1TaXZKFPHvVyPBAyxyRkZrRMliFsnZjJXn5hxSbznapI5znHFCF2JyMdsU/hMKM5qhEEpCyrJGwV845NeFa1bSeHvFN1FGqK1pdCaFVJ2gEh1H0wQK92u7ZZom4GQCR9a8l+JEJHiC3nKjE9muW7llZgc++MCktxPY9TjlhutMhnibdHJGrqfUEZqONyOmMCsXwndyz+D9NkRlLJF5ZQkdFJUfoPrW7GUkwQArfxL6VDLPHdR26b8SHKlkVNQjdifRiGb+Zr17ndgdfevIfiAqReLriWIkh40kHGOQMf8AstevFg21+5GTiieyFHqOmXjjn1NRQIzSgshCj9aeZQF3MQqAZJbgAV514q8f+dHJp2jSMq5KyXSnG4eiH096UVcpuxoeLfG6ae0ljpUitd/deZeRF7D1b+X1rkfDvhm68S3bzzu6WobMkx+9ISeQpPf1Parng/wTNr8gu74SQ6coyMHDTew9F9/y9a9at7KG1jWO3iSKJQAqIoAA9hWj93REavchsLCDTrZLW2jCQqNqoOgH+PvUrrJDGzw8MOg65oViZCrc4/SmyTxxAmSRY0Xks5AA+pNQUIk0lxGssybG6HjGacJMEHP4VgX/AI68PWeY/wC0FnZe0CmQfmOP1rL/AOFkaG7fMl4qjjIhBz79aTix8yO35zz0prZIz/DnHNZWk+KNF1V1htNQjkkbpG+Ub6YbGfwrXljMhxngdvepsyri4A6AipYUIbLYPtUSkH5AeR2qeJMYYnmrRJJuCj0qvOrglt/y+lSuDnrimsQRzTbEhvmBkGeSBzQ/KAAcdjTUjDP83AHpSqDyNp9s1JQ4P8m0Mc+tIVyOp4pqo6sCcYqTnGSfxpAQZDHv+NTJgLzxSHqCefen7QV3dhQAmR/EMCoW7kHNShVI3Egj1zTHZUGT0oYEZB2j1pSpI5NKWJK45BqUAYCgH3NSUQkcYAOaRAQxwcZqbbjt+NL5Y3cGgCIKhBVs5PeipWiGc5OaKdhHl3hwbtQtiANoQt09v/r13qxhRk9K4jw3GRqUW9yNsRP16V3AG/Hf0rWe5nDYX3A4pNp+lOXJJDcGhwQp9QKksYyknrTlGEJyCfSmBDtySQaVF2ADcTQAvyqMt+RpNwZMpz6gVDNC8r7sj6Vmavd/2XpF1P5hDhCEA7seB+tNRcnZCbsrnHeLNXbVdT+xxt/o1u2OD1bv/hXT+F9FXT7VbiWMGeRRj/ZFcf4Y08X2rqj5O0+Y/HXn/GvU41CRBQMY4rqxEuSKpxOeiuZubFJ+XpSlciilHNcR1C7CwppG1CD3pxcgZrN1nV4dJsTcS8ufliT+8f8ACqjFydkS2krsx/FutfYrUafET584y7A/dT/69TeEdJ+w2Ru54x50v3QeoX/69c9oOly67qMmoXrFo1bLE/xHsPpXocbMsYwBgDt2rqqtU4+yjv1OemnOXO/kPVmY5ZcDHFTAcVWFxxkqal8yNhtzzXNc6LDZFDN8p4pm09O4qfauzkjgVEARuwCRjAxSYIacFOTz0xQqnZgHBAqNRJu5Q4qXgNgmpGMKkL6mjJBG7pTjtHJJxTwqGLdjnPrQAmV29M56U4RAnNKqhe3SqOt6vDo+ntdNgyfdij/vN7+1OKcnyoTaSuznvGurmCP+yoWG5wGnIP3V7L+PX6fWs3wZpDXV22oyJmKA4jB/ib1/D+tYsUd1rmq7NzPPO+6R+uB3P0Feo2NlHYWMVtAMJGu0Z6/jXdVaoU/ZrdnLTTqz53siwpz2IpR70oPtQOteedY7oKZIp9KcDgUpNAEYAXk09cs2FBx3NG3I5pHLwxjaRljwKpCOZ8dPBb+FrtWGTIUjTJwS24Hj8s/hXJfDkGLW7q4PEaWxDE9MlgR/I1c+I+okvZabncwzO/H/AAFf/Zq4yPULq2tLi1ik2RXGPNC9WAzwT6c16dCk3Qt3OKrUSqX7HReM/FDa1craWzf6HC2cj/lo3TP09PxPpjW8A+Gy5Gs3kYCof9GRu5/v/wCH5+lYXhHwvJrNytzcqy2CHJzwZSP4R7ep/Dr09YVP3YjQbEUYVVGMCpr1Y04eyh8yqcHOXPIk2ncSTmnIMdDTY2Kpgr0460pOTkGvPOseTnnNNZsY9etRurL82c+gBp5/1ACnp296QhcZwc5rh/iTKUs9PgA+V5WfP+6Mf+zV2is5PNcX8SrV30+wucHakrIfbcM/+y1vhv4qMq3wMPh1bhNPvrnaCzyiPJ6gAZx7ferk/DtgmreJrWO6w6PK0kgY/eIy2D65I6V0nw7v1P2rTnwGb98g/vdm/TH61h6zod5oV48sQk+zq+Yp488c8ZPY13R/izi3ZvY5pfBFrZGz8R75hPZ6chwig3Dr6nlV/wDZvzrnNEtpb69gtrfPmyMMkfwjufyqhcz3F7OJbmeWeQ8b5XLH6ZP413+jw2fhPw+dUunje5uo1KBDyQRkIP6//Wq3+5pKC1ZC/eT5nsSfEHUVt9Kjsg4M104LJjoinOfzA/Wqvw6s38i+viPkJWFDjknqef8Avn8/auI1LUrrVr+S7un3O3QDoo7Ae1eoeCrq1m8NxR2UbqkDmOQuAC8mAWPHb5uPasKsHSocvc1py9pV5jemlFpZzzuMrHGznnrgZrxjQbYXWtafC6l0e4TzB6qDlv0zXq3iAmPw9qW1ApNtJ3/2TXm/hE+X4nsDjPzP/wCgNUYX3ac5FV9ZxR68P7y/hU6uV+8aqKzbgBjH8qmB3GuA6hcDJJ6ms3XNWg0bS5b2bBK4Ece7BkY9FH+egJrT615X8Qbn7V4ijhViVt4wuOwJ5P8AT8hXRh6XtZ2exlWnyRucvNJJPNNcyAebM7SPtGBknJx+dVm3K3BIrrPCXh9Nau7kzttigjGP99s4OO4GCcfSq+v+D7vQ4lnMi3EDNtLrn5T2yO2f58elev7WCn7O+pwqEuXnPUNB1RNY0W2vldWd0AlA/hcfeHtz+hFaajdzmvJPA2uNpepmzmYi3uiFOTwr9m/ofqPSvRLvU4dMs57ydysES7mJHJ7AD3J4ryMRRdOpZddjvpz5o3NnB6YqJ1+XA9OlYPhXxdB4nFwiwNBLARlWYHKnOD+hyO1dExIG7B4rKUXF2ZaaexVaNvLUgDcvAJFQyK0kcsEiko6FcYwCCMHmrLTou0HILcDio5JNsoUnnH6UloNnhMXzD5uPWvfLa5S4torhSCsiB1PqCM14lqcKw6zfxxjEa3MgQDsu44H5V6f4XkafwzZuWyVUp9ArED9BXo433oRkceG0k4nQs24EjBFNAyc5OarpI2zaBjnpVkfLgV5h2jZAG7c02BCrB14FO3ZPOamVV4PammJnlU8e7UJYxndJqRXJHcymvSlCg/ezXm8gZtVlWLh11AkL02nzTzXozDDErjFaVOhECXccggHmpgcgnPAHNRodw+7QxZWACEoR85AzWdjQqib7RMeuCe3pU8UZQk5IX370JbJHKW5GByo71OE3INv3R15oEIpI6Ej+lKyYhzuyWOaULhcDmhiFwjDkDigCHqaf1xkdKXHPNIckdeKkoaF5yCakHFRA88mnj16UxHkvjpn1Tx19gUhCghtUbqCWw2fzkx+FesRIILeOKIKqIoVVHQAcV5FGPt3xRdZWL41JgCfRGOP/AEEV66VOaqeyRMSKTefmQnhuR0ojZyx3d/WpVQ8Z/KnEKB2rMsYVJfphcVJx1HSkBHT9KrX1/a6Zavc3k6wxr/ET1PoPU8UwLMjokbyM6pGo3MzHAA9zXl/izxbLrMw03TBIbctt+QZaZvp1/D/Ig1vxFqPiu+XTdPgcW7NiOFOsmO7eg/QfrXY+F/BsGigXNwRPfMMbscR56hf8atLl1ZF76Ij8IeGRoVobi5UHUJl+bv5a/wB0H+fv9K6ff9MmpQigY9KNoDDIz71L1KSsQFsEcnd0BxToixB7k9qmOOflpOhwMe1IY0Md+1h9KcR0xQwDkE9RyKB780AIUz1p6Z2ZI6dKM5OKACDgU0JjSPMlHQOvI9CKn8wEjPAqMKQ4kO0HodvSnJKPNVSOvFUmImV9zgqQUpZC3J6+gpdqsC6gFvUdqjErb9sqhcdGB4P+FWSSgbkB6N6GvMvilFtvNLbYAGjlGQfQr/jXpgUglt1cH8UYA+kWMwB3RXOw+mGU/wBVFNCZa8ACCbwjbKyBmjkkUkdc7iefwIrfk82AhnUsoOA4PI+tcd8NZwNLv7dSS0M4lZD/AHWUDj/vg13xAIBByp71DWpS2PH/AImlR4lA2rxZpnaOvLV6Q9zFp2mie7mCQRxgtI5x2/nXnfxDgSPxM5lkVRJboV6n1GP8+tZHiPxJeeJ76OGON1tkIW3t0BJY9ASO7f59zXLzJCvZk/ijxhc6+/2W3Dw2GRiIfelPbdj+Vb3hT4e+asd/riEK3KWZ4PsXP9Pz9Kv+E/BSaUkV/qSJJesMqpOVh+n+17/l79wjZXGOamUraRGo31ZMHihjCBQoxxgUfupF+VgWHvVPUdRttK02W+vH2wRDLYGT6AAepNYui+LdJ1vzms3nieIBnjmQAgHPoSO1Srsb0LPiLxTY+HbLfdL5lywIigX7zn1PoPevKJbnX/G1+0aq8235vJj4iiHv/ieazNa1ifXdWn1C5YkucIp/gQdFH4V7j4f0yy0zQ7e2tIiiFA25h8zkjOT+da25URfmZwmnfC12RW1DUCrHrHAg4/4Ef8K2G+FujiMD7TfK3dt6EfltrsvLZjtPzKKmI4LFj9KnmZXKjx3xB4AvtGhN3bTC7tl5YqpEkfvj+orb8CeNppLmLR9VnMgc4t53PzE/3WPf2NejpKFh3OmQTyD6V4Z4stYdL8V3IsQEVHWZFA4QkBsD8arfcT02Pc2XypCU/i9e1TqDsUk8mqo/1Sbs8gHrUhkIAUtgVmWOZm9BTH3Mu3PNEhPTPFVjE4JcE5PapbGWYWXeU3bnqx7t+lZ0B2uWOavRuZR0xTTuJhu8w/NlfalUDpjNBTOM8EUZA78+tMBnmFpGULjFCF8HdgYPTNOU9wRz3NICCTk0gIZw+4BPu/oKZCsiMVdwFP41OJl2nAyR6VAuPNLN90c4oaGKsZVtvrVnHFVGuVM5KKW46dKkWcycDKnvUjJ/6UhOFJFRecQSgOfc0ockY6+lABvbs3JopDjOMAGigDznQNwvRnH+q/wrtIZdyqOMn0rkdDUfbpSf+eeB+YrqYgEw27OfatZ7kR2Le/keoppds9qcG3AGoeVbnOO1SUOYjHvRu+XPU1GHVmIOeKbkbvvEc5oAlkkJTIGPWuK8dXGy3tIAxzI7OwHoP/1/pXasQFzgEGvPfHRH9r26r0EG7H1J/wAK3wyvURjXdoMseB4nQXF2I8qSEDfqf513MUhdcjg+9cr4UJTQEXG3c7En15610aRyeX+5PPqamu26jKpK0EWPO/h4+tKHzwBiolhYDluffmmajfW2k2/n3DAqOgzyT2FZJNuyLbtuJqF7b6dZyXNxJsRBwMfePoK8/UX3i/WtxGyFfvEdI19PcmmXl1f+LNYCRoVj52KTxGv+P/1q7rSdKg0q0+zwjOTlm7sfeuvShH+8/wADn1rPyLttZRWlrHBCgWNAAAKkbkbf4fSnB9iYZqbkHntXG3fVnSlYNgwMYpFQryKevTnrRjPXpUjFQlV+Y5zUwAKYUnPpUI5pcNuB3YA9KaYgZgowSQBUalTJzn2JqSVnZCI1DH0NVllAyrqQfamBR8S6hLpegXN3byr5gKhSR0yw9at6XfLf6bbXSkETRhjjoG7j8DkVl+JrKS98PXuwbtqb1XvlTmsPwfr1rY6fNZ3cjgId8WBuz6gfj/OuiNLnpXW6ZjKpy1LPY7q6u4bG1e4uHCRIMs1eX61q1xrd+JGB2/chiA+6P8TUut61catcDeSsCn93EDwD6n1NdD4Y8NNblNQvl/ekZiiP8Huff27fWt6cI4ePPPcwnKVaXLHYv+GNDGkWXmSj/S5hmQ/3R/dFboYg+1IAKMKWxuwK4Zyc5czOuMVFWQ/cMU0swkAABX1pHC7gFfk9qUqNu3dy3H0pWHckBBHHWl7VWRWhJBbI9e1S+chOAc+9KwXEur2GxtJLmdgsca7ia8q1/wAb3+p3DfZpHs7cH5Fichj9WHP4D1rS+IGutcXK6XAw8mH5pCD998f0/mTWj4O8JQQW8WpahAHuHw8SOOEHUHHqevtxXoUoQpU/aTWr2OWcpVJ8kTzUlmOTnJ5ya7nw14DjubeHUNTkEkciB44Ezgg8gsf6D86zPHUQTxfMQgCvGhyOhOMf0Feg+GJ/N8Mae3UCELk/7PH9K1xFaSpRlHS5nRprnafQ0YrdIjGqKERBgIowAB6U8SDLA8D2qMuwJPGP50GRR8xAK55zwK8w7bFgx5XKEsD1zSRxtuIx1rAtfGNjPrkmmW67iAdkoOVcgZIH6+ucfntpeGTK5AI6VUouO6EpJ7FjyMHDH5OuBWXqOs6dpxMd3e29uVP+raQb/rtHNc/418TXOn6bDBZz7Zbvd+9jPKoMdCOhORz9a8+0/QtU1ZTLbWrPHux5jsFGfxPP4V0UsMpx55OyMZ1WnaKPYtP1az1JA1lcwzhfvKjZYfUdRTtb0+PVNJntJNo3r8pP8LDkH8DivGWi1LQNRSQ+Za3cfzKQe3sRwR29O1eueH9UGt6NHdDCyfdlGc7XHX8D1/GirQdK04u6CFTnvFnlUkF7o+pbl3Q3ELZyP5+4Nd7pPjuyuYRDqcRt3xgsq7kP4dR+v1rb1Xw9Ya0gFyX3p92RSAV9vp9a4q+8FX9tI32WSK7QdMEI35E4/Wt/aUq6tU0ZjyVKb93VFjxhDp1/BFfWF5aGSMbHiSRQSM8ED864xoz1ZunAraHhvWWfaNOfI/2lAH45xWhp3ge6uGSXUZliiJ5hRsuR9eg/Wt41KdKFnK5k4zqSulYwdI0W41q8EEC4jBHmSkfKg9fc+3/669W0uwt9GsFtLVSsY+Yk8lmPUk+tS2dja2VtHb28SxQp0VR/nP1q1twvyjivOr4h1XbodlKiqa8zN8QIJPDl+Mcm3f8AlXnnhNdviOy7DLc/VDXpt7A9xYTRAp88bJhvQivOtMkCavbFQp2ygYXr155rXD605RM62k4s9JU4zlupqZVGwNuxTdqKQx5OeBmkIZpASTj09K4rHSOWRxwWzk9a888arZQ6w80aZnaMPId2Rnp07HAr0MAMeD+VYereEtP1m7W4uHnEoAU+W4G4ehyD+mK3w1RU53kZ1oOcbIg8CoB4Z+0RgBriZ2z7DC/zU1s39r9ts5bSYZilQq3tmp4beOzt47aKNY4o1Cqi9AKZclUZFUHe/QionPmm5FxjaPKeexeB9Qj1ErNcW62qnmVSSSPZfX8fX8bfxJu1XR7S2w6PNPuwe6oOf1ZfyrtYofO3K25sevSvJfHV6L3xPNGh/d2qiEc5+Yct+pI/4DXVSnOvUTl0MZRjTi7dTe+F1ufNvrsL0xHuPT1x/P8AMV6UC7Z+cjnn0Nc54L0/+zPC1nG4Cyzjz3IHJLcqDn0GB+FdCcZ5rnry5qjZrBWiRyQiTocmmy/JGBIBlR3OBj3rA17xba6NdCEwNPhQXKybdpPbofb86w9U8a/b9PntYrcxLMMeYXDfL3HTuOKcMPUlZ20JnWjHQ5a7mFze3N0F2LNM8gX+7uJIH4Zr1fQ7P7BolnbMoVliBcDsx5P65rz7w7pg1XVosLvtoT5kuRkEA8KfqePpmvT2J2ZVevoK3xs7WguhlhVvNkhjBxgHPrmnD5RzUSyFR8xpVlVjgcGvPOwkYDGcCnwkbTjvxUDsDhT1PpSxt5cwxwKaJZ5Zf263V1dwSStF/wATDYr+zS4J/DP6CvVnChS2MnqK8qvFaSXUoSpUfapBGxHfzDgj3Bx+NepNwOehraexESaMhlVt3I7VLuRQWOf6VAhCxlW/Ckzg7OcH9KzLJZtrqCOPU02MYz83Wl2Srx1B9ulNAEbFs8+lAEqDPBGcU1hmQn05qP7QzRtsUgDj60qAnJzmkA4jAzimrg5GeKdjjFN288n6VJQrKAQc0FuciolLZwQc0uflJoA8esZvJ+J7MSOdTlT8Wdl/ma9kXkc14r4thl0TxxLcxDaTMl5EW5ySQxP03Bh+FewadqlnqOlR6jHKqwOm8lmHyeoJ6ZBBH4VpNaJkJl09OlNA3dutc3qnjvRdPBWKU3kuOFgIK9O7dPyzXG3WveIfF872llE6wHgwwcKAc/ff/HA44FSoMfMdZr3jaw0pmhtGW7u8Ywhyin3P+H6VxlvYa542vhcyufs+cec4IjjHoo7n/JNdLoXw8trcJPqzC4lHPkL/AKtfqerfoPY12QCQqI0UKq8KoXAH0p3S2Cze5R0PQLDQrXyrSPLt9+Zvvuff0HsOK1S2wDGeeM+9RCQA/wCFSAhl2noe/pU7jsCrg5oPakwelL1AzjIpDEJIbGadkkZXFNU5b3pxVlGRz7U9wDHQjj2pVxnk4oUA8E9eaaSc/Q0rASEYpODz1puTnrSH2ouAA5LDHSkAIcFQVx3pN4ywyAaeDhPm4OOvrTQiZH5Lk1NEdwLNg57elV1QLHvD5yPu+9JCd7kDPPerTJaLR9hjFc742tZbrwlfRwxh5VCyIgHJ2sCcfgDXQtnbhDk4700xFgN5HFWSeZfC55ZrvUbtUAgEaxuADhiSSOfUDP516NEVLskTDI52kYqe2SGMOkSIqZztUAAGoJIsSrKCc96mT6lR00OV8d+FX13Txc2q7tQt/uKGA8xc8rk/mKzvBHg19LU6hqkCreuCI0LAmFeh6cbj+g49a77cHUjoe1QMhCgoM+uetHM7WCyvcqPGYWCZyDyDU0LHOG5P86fPtkiCoQSBniqnmtuU7sEVFikY3xC3P4KvSpIAaPOP98D+tcl8Ko2bXbyQBTGluAwPXk8V0vj2eT/hELny4jLvkRXbHCLnOePcAfjXK/C6bZ4juYiSA9sWz7hlx/M1pHSDM5fEc/4o0ZdC166skJ8ofNHuHIUjIB+nT8K97iwIY1U/MF/OvIPieoHitWBLb7RGxg+rD+n612viHXJvDfhm21CKMTyTFY13EhVJUnJx9PanLVIFo2dbuwRx+NLvXncQFAyWJwAK8ff4maxJCyCCziYnO8IxP6tVFG8T+K23Bbu7i7bj5cQH6A/rS5e4+Y9E8Q+PNK0mOS3tXW8vBlfLjPyof9o/0rgfDWlXXi3xR9ouyzQq4luZT0wOij3PT6Vv6R8MXE0bateJ5WNxgtc8+xY4/QfjXoWm6baabZrbWkKRQr0RR/P1NF7bBZvctlE2BVXhRgZqs0bhmON2fTtVsDPHNV52Zc7elRJFojZyxUHPWpkIxyQPekWRQo3lR9akVoiQQy5NSkMheBN/mLn8KVyUICcDrn1qZ8K3QHioMOh3gcdcZpgSRO0gIJ59aSQNHllGaaZQWDAkeoxTllSVSAc0CFD5XPSmn5ed31pksWR92nBUMZQHDYpMY5AHXcMZ9BTMKXOcqelRRsY5doPI7+tSllzjHJoTAhYSR5wCQe+KSFSSdudx7mryggAYqKZgoPQHtRYLkYhCqMyBie4p2V3BYw2R1JHFIqP94kAYzmml2PG75fyzSATafMLc/WigOOeDRQmM4bQMNcTk9doxXTD5AEzk+lc34fi3SXDDk/KAK6H5wwIQg+4rSW5EdiRJJFc7iNvYVLkPz2qBhuT5hk561JFGVXPapKH42c4qGfruUZqWT5hzTI1x1oGKjbYgSOnNef8AjcE63DJyFa3AH1BOcfnXoBV34IGPauY8aacZNPhulILQsVfj+E//AF/510YWSjUVzCum4OxL4Hm87RniOG8qQg+2eR/WukdwvyKOvpXlmha7JoVzIfL86KQYePdt57EHn+VbN344kCsLC18knPzytvI+g4A/Wtq2GnKbcdmZU68VHU6vU9at9GtfNnw8hHyRbsM3/wBb3rgHe/8AFOq4jQImflAztQfX196isdNv/EV680jMEZjvmYHH0HvXoOn2FvYWiwQAL6nHJqW4YdaayGlKs9dELo+lQ6Xa+VEi7sctjlvxrSxtTLcfSoMlUG0ZNSCdsAbePeuRtt3Z0pWVkNVw5wSacCFbjtSbQRuP3j2p3lNsyeD6ZqRkvnAfWk3cc1GrRg5dhn0p/mKSW2kiiwxckYOcClJzyKazBlA9f0pFYKMHnA70AOUnOae0YdskColk3cqeKHkcHjoaLiBlCEjGQeoPeuC1LwbfQXpk06IT20hJA3Kpj9jkjI9xXoAkJXnvxSkEjgjFbUq0qbvEzqUozWpzWheGUsnE97smuM/KF+6nuPU+9dIqNHgEEr2PWj5lYYUAUs0r4GOPpUzm5u8hxgoqyEeXaRhR71FvYkfICSewqbBYfN1oxtPAqCxMRiMM0eD7Dmlyo+6M9+aYXYDFLHH8pY5JpoQGUg9DgH060jGSSTGMjHFIQytkE4prtgEuCwPoeaAPLtMtxq/i5Rc42tOzuMZBwc4/pXrRPeuY0vwzDp2py38c0jh92xCPuZ65PeumAO0ccYroxFRVJLl2RhSg4rU4v4gaFJeWSanbKXng4dR3j659yDXKeHfF13oSmEoLi1ZtxjJwQf8AZPavXicZPUelcrrfgfTdSZp7bNlcNkkoMoxOOSvb8Mda0o14cvs6i0JqU5X5obj08b+HryAM9xc2zD7yvCWJPsVzWDrXjRLuze106OWKNuHmkwGI9ABnHHfOarP8O9ZQtsms2QdGMjDP4bas6d4AmYhtRu1Eefu2+efxI/pWqjhoe9e5m5V5aWKfg/TpL7WFvAjCG3BO/HDMRgDPrzn8Kt/EW7mt9PtbHLKLhy7AdGVccH8SD+FdlbadFYIkVnGIo16L1/n1rgfiVLI2pWELndshY5x1yfT8KyjU9tXT6GvJ7OnY5NLW6/s9Lkq32UyNGG7BgAT9OD+hrqPAFzK2uS2zTMYWgYhGPyggryB+dX9MEa/DCdfKBLJK+733Ef0ri7KcWysw3Av8rEHt6V1p+1jKPyOd/u2pHZeLtUsrsw2iBZHhYsZBggcdAR19+3A/DZ8B/u9IuTtIR5vl/Ac1geGPCya4ReXF2q2inBVGy7H0/wBnt7/TrXo62As7SO3tBGEUbQMdq568owp+yiaUlKU/aSHpEZG35wvTApTaqDkMSffmlDNAghbBU/maSOWRg45Cg4AIrhsdQgiwxycinmMBA2APpVfyJnJHQE8VbIxGEDZFILkax7gDjaQTxmlbzEYjdkVBtAYyEkLu4zVgqmSzgYx1NFguQ+fGYriYHbHGpKs38Rry3Rlb+29ODdDcRhvpuGa9UYO8TFGQbgQCBnHFeG3E7F2EjtkEghjivSwMbqSOPFNppntl1rWkWRbzr21iKZ3J5gL8dflHJ/KsS98e6XaSxKsNxLDISDMFAx7hTyf0/GvMrPT769w1pY3Ey5xujiJH59K62x8Gahf28Yv0FoqdSxBbn0A/rTlhaNP45Aq1SXwo9Ct7mO6to57d1kjkUMpU9jz+FSqcjJ4PpUemQW9pZw2dttMEK43FgSasugyG98YrzmlfQ609CJEYuXkxj2prRI1wSeCOBUoLKBuAyD0J4pQo+Z8jPpSsMikk8oDYADnHpXhUcbapqu6Y4a5uPnOccs3J/WvcCrybd64J9BXj99ZNo97dxsPnhkKp27/Kfywa7sE1eSObEaJHsbuFYjAyP5Up+75qnnHPvXBfD+5vrtdTN1NPKC6OGclvmwQeT7Bf0rtElUI6KSWU/nXHUg4ScWdEJcyuclr3g241O8kuYbiNY5X3FXyCD36fzrKm8EaxtXyEglUYUKkmCB/wLFejeW7jpxUnleWgIPzHrzWscVUirGcqEHqc94P8PXOiQXX2l1eW427kUcJtz379f/111EcbIGQ/d+mKgHySk/8A66n3hVBB5NYzm5y5pGkYKKshzogGfX161VZSWy2Qo9B1qR5GYYDDHc07zUUqhXKHgknmo0KIdiqfNJYj+HnGfrUkf71gecdgaguXJICrhegPanWxO9RnjNCA86jaJdakeZsL/aRIwep889f1r0oOSuCOledxtnVrnjYRdsR0Of3mc816ApwxOBwea1nsRAnwABnHPSpFw5II+ao2YGTJwABwKZI+Cu0kseuO1ZFkvmMrEFjwemacSrgc4J79qauGweC3c+ppskhRsEjBHamAoUqrnHTnA70xCTgr909qeQxjY9sfnUQPy5U/L04pMCxnjrTDwOuaap2j1WnKjOTxwPWpsMGOD9elIDlsY/GkmkACMei8EUBsYxyO1DGmYXijwrb+JbNAz+TdQ58qYDP1BHcfy/nwsPw417zDGzWYH98ynB/8dzXrBJHSml88AfhTUmhOKZxmm/DaziKyandvdMP+WUfyIOO56nn6fSu0tba2tYBDb28cES9EjUKB+AoBGacWww9aTk3uFkScYyOaRomYYHT1xTQcLxUquAQM800BXCnJDYOD2FPj60sqYO7r7U0YI560gJVGTjPPYUwqGyCMEUh/Wpgysu3GCB1pgV8EPgHFTyOOMUxlycdxSYJBzRcYh3A5BpcnHoaTPPFLtB68k0AIHPtntTWY9Cak2/lSmNW6nFFguQBFLtvYhT6UpVNg2ZJDd6kMaPlcc9qRIX2EkBQD0BosIk3Exnj56kij2fNnk9RTUCEdTRvSINtbNMQ7ztpOck+lIblmGAOe1V2dm9RTd7xOCSPpScmPlLaPg4I5okPHBGah+0B+i4PvSsQ/IOB6incLCLywyelSDO4kKCuPWkVPxoR2TK4oQitE0YeQFduTjr0qu9tMjnG0qenNWw0CxkycsT3HShzuIVTkdaAM2/smutJvbV0bEsLrx7g15f8AD25+zeLoAOfNieMY+mf6V7E58obAcb+Dk14v4WJ0zx1ZpJnclw8B4yckMn8yK0jsyZbo0vig5fxNEwPP2Nce3zPXo32CPWfDcVrdfNBNCuQRgjjgj+ded/E3B8R2+Mf8egB/77avSPDsok8Naaexto8/XaKG9ECWrPFb+wvPDWuNC+POgcPE5X5XGeGx6cV7V4f1aHXNIhvIcDeuJEzko46j/PbFYvjfw8utaU0ttAftlsC8ZXq47r/nvXCeCvE//CPantnJ+wzkLMCD+7PQPj27/wD1qH7yDZntAl7FcEVIhLJuIwSe1M+WeNJI2DoRuDg5DD2NTBlAA71KKDOPrTJR8nQUpBXk9KJCGUHtQxopXKgKrHoaqnJOATj61qOI2QB1ycYzWay7GK9getZtFII5pIRsZtyHsatC63sgA+U9zVZFVmBfoO3rViMqpI2DafTtQmDJJHxKNxAUdutMJIUmM4HbinSLEygjJamYAUrjr2piLELsUzJjimu5L5GQtPiO2Pay5oZA2AT+FAhoGBkqCfek2FjkjHrUpQkADtTWJGRt5osMc7gJhTz0FREgjkDcOhNRg4zkc0FwCCy556etFwFkLBAryY9qjBIHTio5mLSZYfhSoTg8c+tSMkzjtRTVZFHJ+aihAcjoRKLKyg53Ac/SuhDM4+Y4rA0NsJISOr46e1bZbkYq5PUmOxIPmYLmp1BAHpUKkMcgDPfFO3so6cChDHsu8Y5+tGw9BR5g2g+tNLZBB60wFJK8EflVeZBKrLIoKsCCD3FSLgHk/nTnCtgA8+tIDlbrwhY3MhaF5IMnkH5h/wDWqSPwppNqqtmS4kByTIfl/IV0EijaMHp1qIxs3AHGK1dapa1zP2UL3sRQRrFGI0UKo6ADFWQAcBRUSxyq2GXH41MSUHBwfasfU1FIZRyOaFdt25kAXHeo2kbPLEn3NSAmVShAyf0ouBPEBIfNNQX84jX5ScnoKsxRhI9maY1om4Mzk4PQ+tMkit0Kx/OAWPOanyIwB27Uu3AxyfrTXViRjjFAw2AnPGTQ2AB3pOi7sZNPKfIGPApMCMAMOmKUKTSj5ugqRR8tIYijigjJxmnD60cZpoRGi7GPJIPrTwmUI3g45oVskgjmjAQk+tMBqt6HpT801VHUUpxigBjkg8U5J8p755FNkyecc1X84AbHUgH0600Jk7ksM5AFCglQB196ax2guOnpShwHUAjNAhw3qSpXnHHpUKu+cNkVK0yuwAcD1pkiMCSrgr7DmmAom52jIPTPWlj8xC3mNuPbA6UyJirZYj+tPM0SKS5yO3vSAa5Mi4GcmpNmyNUGTjuabaSmQF2UYB4ANPYtv3E8HtQwGrnvXmvxEgaTW4ZONq2w/wDQmr01iOnQ1zvifQJdXiiaB4w6gqxckZB+gNbYaahUTkZVouULIoQ2yJ8M2RcHNi78euC3864HRtHm1qaW1t2AkERkUHoSCOK9Uh0lbHwodLRy/wC4dN23qWyT+prjfBNq0XiO53AgLG2PpmuqjUtCckY1I3lFM5nTdT1Hw3qrNGWjdG2ywt918diP6+/FevaHr9prFoLq2bD9JIXPzRn/AA9D3/SsfxP4at9ahEkZWK9QfI/ZvZvb+Wa4HTb298OaiLjYymNtksZPUd1IoajiIc0dJIOZ0pWex7es6t1OCexFShAxBxkdawbLUYtQtIru2YGOTkZ6j2PvVwSvtyztx0weK4HKzs0dNr6o0XWOP5jtHrmoVSERlowFBPSq9svmZ3Nz1p8snzBQMCjmHYlKx7gEcFh2JprxOo3SZcdlxUAJVgynB9cUiGQSbnP4mi4WJkdlyUQhj0B9KZEsEd5LItuhlbln2Abj9aCGjfzAx2Hk05Zk3EhMj1ouFh0txI2PnKnHIUClTlQCd2ByW4JpWI4CgAGmqME4Ye9FwHKYXbGNhHQrxU+0sTukVkwMcVXYgdFG7HYUvnYIDIAD3zRcLDnMm9lIIUdGC9aQMVI2RlpTyQxxkUouG3HkEdsVIY2AMyYd8Y25ximgK6yA3Ehf5ZAcKh7Cquq6Lp2sQI19b7pAMb1JDYz046j61ejjIBGSHOWZto/LNZc97c2dwI5IJWgLbTIql8D/AHR8x79Aaabi7xE0mrMmsNJttMhMVihWLrs3E5J7mnxXMc7MqhlK5BA7EHv/AD/GstNXluWRFt7u2L5C+fCUbjknoR09a0rVnCPlyWY96iTd9RrbQsQx+Vks2c9qUuxfI6elRB/mqwCBFkDmkMhLA9unNTpyN+flI4xUSbWzjBBpwQLhADgc8UgHmP5cq3XtQshjTMiq3ooAzTty8k5z0pWUPtzwRyCOtMCs7scjywq5J5HAqSONjggDAPr1qbcD94c+lCbF+QDGOaEhM81Qg67O4LA/bCuO/wDretegeYAxweR19a86AP8AbcvJ+e83Aj/rrXokaIbn7oJ68VrMmA/zMsOwoPIHAOc4GeaeIsb3bqBwKRpRANyxFiazLEt3ZDgodwbqRUzuoYKULDOdw7U0yNgEAqxHQ0BiVONxYdu1MRKuWLEcAjgZpjJvwq9FPzUhkJRcnBFK2+I5BwCeBnrSAVVByF4PvUhLxxkAk/QVE2XxwM5/SnedhehA/WkMh2B33OAQfvA03Z8/DEKv8u1Sbg43ogBPc03LHIPHvSY0OYq/Q8jmkyCcA5GOuKaGdSTxjHTFCDGQfTOaQxw5cDGeacepzmkDYboD2p7OMAuBx0FFgHKwVcscHGajV/mJx1NM3Oxye9OAwDRcBxkbOD0pdvGTTOpGDzT0xt+Y5GcGgBxKmMcgGmbidy4zgUhwWG0cU6MHd6mmIVSQAMmnEZHNN56MMelO/GhghjDbjAp33mHal60KADknpQhgcjrRtbgjOPWoZZyMqq596dHMxGDgUXFYkkk2YwBnNNM22AsTgk+lMeNnZT2HelaPz7V0UjK859fanqBFliRhqd04HU1EY5UT5gB9etTLGzYxy1TYYiiR1JH59KcIznMnIA52mnyMUcKzfgO9BKrlVzlh36U7BcEKO2FUbewPNWA67drBcDoMVSRJN46YqzjApAOYE/d49hSFn29uD6Uc7eAc0NkgjNUhWGzpuHAz7UxAoXGMYqQK7HGOajY7HO5cn1WgQ5gruhbqteJ66g0jx1cud22K8W4GPQkP2+te2RE8sPTHNeSfEe1WHxQZFUj7Rbo5PuMr/ICtIEy2LvxMhH2jTbhMkOjoTjgYwR/M12fge5+2eDtPdsbkjMRH+6Sv9KwvFVrLrPgKy1ARN5kUcdwcDkqVw388/hWL4L8T/wBgv/Z95HI9rcvuiMQ3MrnAxj0P86W8Q2Z6oQd3y15l8QPCrwTya3YxboZP+PpFH3G/vgeh7/n3r0pW3MdoxnnmnEKUdHUOpG1lYZBB7Uk7FNXPL/A/jY6SY9M1Ft9gx/dynkxEnp/u/wAq9QadDho8Mrcg5zxXl3i3wRJp7yX+lIXtCd0kCjmL1I9R7dqq+GPE0+lKIrhjJZDoc/NF9PUe1N6q6EtNGet+c5YAtx0xipkAHAGfrWdY3MV5axXEEoljdcqwq6pY8VncskkwFLYGfSqdwgYbl696slflwzYz6VGqNkqxpsCug+XHXHIqRT8mTkUBMMVBFBBzz096gocSFUmhCjEHJBFMOcbT0pjI2cjIoEXGnVBg8k+tPSRWXd0IqsrPtAZRu9ajd+dqviruKxdLh1PPFQo4WTBP4moEeTHPI9qlwp5JpbgPk2M3HeopQrNxn8aAN54wKR8hdoxRYBnlq2d8m0dqeItoxkn3qMow5o3OMc8elIYjcNRQASTnGaKSEzm9IVTbE4/jP9K141LKe1ZOif8AHopPdj/OtgKT3pvcI7CKpJyOgqR2KxgnmpFAK4XimSSAoVI9qrYbKrnccq2D6GpYWbJ3/hVds7jx1pVY8jOKVwsXCqkAg/jTfp2psSsDgnINTFQBgCmIjkbaMAZPrUbbsZOQPUGhtzNlckUsjEDAyT6YoAUSoFA5J9aYZA74WlB+TJ+tRhl3Fgu0+1JjHMmVxj6Gn4444NBJAGO9PZtuCRSACuzaQcN/OldycZ59qYrb5cjr0q4kasBnqe9NCK6yMD8xIqRJdxIAAxTZY1QnI/WpGRBGoXg+lUBHklsYp5yV25pQuKRyAM5pAKiletO701H3LTiaQC45pMZ7UbsCjd8uKAHKOaRhzTBJ0OODS5zTAZnY2O1PByKY+G4pqg8/rQA8ngk1VlAaQMABjsamLDkcfjUZ2FsNgsf4TTQmSIQqcEfSq0s2GG3O7uaWSVI4X3OiLnGScCqMt/ZQDMl3Av8A20FPlb2JukX1clMgZanO8h2hGCZ68ZrHfxJpFunOoQhj/dy2PyFRJ4w0ZNwM0shbusR/rirVKb6C9pDubQgnYZaZcE8gd6kjijUYODjgD0rm28caYgwlreOe/wAij/2aqs3jtSR5WmMOeC0wB/LFV9Xq9iXWprqdou1VCgAD2p2Sa4N/Hd44UQ2ES49XLfypp8Ya9J80dlAq/wDXJz/Wn9VqdSPrEDvP4jzRkHqMgdq8+/4SXxFJwPLjPb9z1/OmHVvEjk7r3aOmAsYP8qf1SfdB9Yj2Z6ERhSwBA9xUENrEjvJHGkZk+ZmRQC59/WuBFx4gkdf9PmLDptIz+gp72viCQEyX18QeMeY/9BT+rW3khOtf7LO5nC5B6MevoKx9W0C31uPHywy4wZMfe9M/SuaGjavICxubwnHXe/8AhQfDuouAZGnYDpuZs/qacKfs3dTFKbkrOJ21jYx6XZpZqP3cff1J5OatQ7JXwSAqjP1rg18ITlA0wk5OcHj/ANmp8fg4vwFdmHbIpOjTbu5jVWSVlE703VrEABJGh/2nANV5L+xSU/6fbcc4Mq/41x0fgxw2CGzjgHb/AIVIvgyQkll9+Spz+lP2NL+YXtKn8p1R1WwH/MQtA3oZ1H9aQ6rpbKobVLPODkLMtctL4MlTgwIF6/MwH9KVPBk2VPlQDucSf/Y0eyor7Q/aVH9k6ca5pTsR/aFmFHUGdef1pF1jSY0z/aVq5bovnpx+tc6vgiXC/uowT3EhIH6dKcPBZMoQmHJ6/vDx+lHs6P8AMHPV7HRLrekiP5tStCew85f8aRtd0rgJqFrknn98v+Nc9J4MaJtgWNgDkszkAfpUQ8Hu/QQZ93P+FHs6P8wc9XsdY+taSSCdTswcdp1/xqD+2NKLE/2nZnH/AE3X/GucHgyXGFSH3Jkbj9KiHg+VlJCwDHrI3+FL2dH+YOer/KdWmraWW3DU7NG951/xq5HrOkJbj/ibWTMOf+PhB/WuKPg2cDmKH2O8/wCFSr4MmIBZIQPUuaqNOj/MJzqfynSza9pfVNTtdn3v9cvP61INf0nbtk1OxJzkYlXA/WuXbwNcFjhISQBgCQ/4VAfBd0j/AOriweMeaeP/AB2q9lR/mF7Sp/KdcNY0khmj1W12nqrzKM/TJqL+2dNypS+syc4CiZP8a5c+BryRCVa2Qj1lJ/8AZaij8AzSlHurmOOPPIj5J/EjA/KolSo78xSqVNuU7ZZQ4WRRlXGQw6H6VbaQeXjj8azdK0q10i2Nva8ITvYsSdzcAkn14FXWQOSfMAI4+7XG7J6HQttRMHaD1Cnt61JvBGT/APWqLyyT/rF9zinOpQjbsZMdTnJNK4ybJDYGCRUocHGTg+9RRMgQswA+lKVX7wUP3yaYiR1BHHLHpSRhsnIwabhiQc4z1NSoWAORmqQmeVoznWuRj/TAMdP+WnSvSVcCVs9O2OtedxlE8QOQBhb4dO370V6JkeaVI98VpMmBZAyFJLYPYnNRugE6EFQBx0qRcDA54pCBjI6+9ZlETsXlYntyDUvGzcOpFMGN2CelDtyMHgdaAE2eYVGcH0pyYywdi5bt1AqBNwkyeEz1p7MCfTHp3pDJPN+bAwxHB7CiRcDBzyeg7VGArfNkg46YqSRgV3nrxxQIaOFIzxS9j600LtPByM08qSAWwBSZQ3ApCCoUNwD0pjXPOxAAAcdKRRuIX3z9aQyxHHvIORgH1omQb92cnuKlIESgEgUxnyflxTERZOOhOOuKcmSOlN24PB4pyBVbk4zSGDemfpSquFIGfepCq/e601jgjA61ViRmxlGVweMmnLIVIyMVJ0jDDIJ4waYY8L8zjHUeoosArp5ijBx6Gl4VQO4qJ9ykeW/y9gaTed21gQT0PrSAe8yqD3PpUJkZgcd+1Mb5SSe/SlyQeKRQZKrk5yKQEtzj8qdtkc5NTxqEQnFFgEabaVUqwIHJFT25iBdznjjk1GArscgkY4HrTirPGWCj0xVoljmlhlGFXJ96jWQswES4Ap0YSFd7/M5/gTtTwrkFlwGPZuQKAGFYSBu2qw6HNSCP5l3GMjvUDW7sTuZT64FPSJYvujJ70gJHHzgrjZ3GKUn5M46U3efSlyeTgYxSGAyR169abgj2pFBxz/KnBucdaAuIuScscYpzBHPGNx7im43HHSn+SSuMgUxEcxSFdnAY9684+KFs4bT5ljLMd0e5Bn0OP8+9eiuAA4D1FC6uB1LDqT2qk7ag9UUtAtJE8LWEF3HhxbKkiMPboR9Kx7XwBpkOsJf+fcOkbh44CRtUg5HOM4BrsCRs46e1RkYO0Z5pXAbGpSQEkVJwVPpUeRnilVicZNIojc/MQwyO4PeuV1bwFp2qyPNbzSWbOcuicqT64Ndjkd+aiZcHK9Km7T0CyZn6Zp8WlWEFjBny4V2gnGT7n3rRikPQ0wqe9J93qKQyxnJ7GnbWDq3tjFQr0BFSpJgYI5qkxEU8W1hIvGDzSNhkDgk5FTurFgxXK/nUM0ZiPA+Q9qGhoaRlRSx8vhvu0A7hTiAq896lDHZCHJHHTOKqTBWlJXv1q6VPljJ69qqvy/QAiqZKGKSvHrT0XLZHFNIyOuCKE3E8HNSMtHlc5Ut9aicF3xwKYp2nk0pwTlWOadxWArjgsv1NNxxgc0OPmwR+JoHXikMZt96KcF+f37UUgOe0ZgLNF6bicfnW0o2Lk96zNERTZx5UZ6/rWwQDjpWltSVsMjUsucEe1Qy5U4zwe9WiSqntVSZvm+ahjRDg565HrSEHIwRinFRxjGKAAGwelSMfltop6yNg45pvH8RFRl1U/L3pgTxuw+XHBqJpWLEA49cVIOYwe9QKOTnoabEPB3Z3c0gIDYIBHrSFuTxkdqEG/mpYycDgHtTXwT7j1qSJvk5Pymhwp+6vNNIBiKd24DGParKkqgB/CoY41G4udq9yTgGqkmsabCzJ/admrJ1VpVz9MZq4xfQltGizbuM5NNAUPuY5PbNYc3i/QoMg36u47RxMc/Q4x+tZ0vxA0nBEdvdysAccBR7d609jUeyIdSC6nYjk5prBSSDjj1rgpPiSQrBNOAJGAHl6fkOapN441mZC8NrEgP8AGkTN/MkVawlR9CXXgejj5GwxHNSlOM5Bx1ryyTxD4kuxhbgj1EaopH5c0z7P4jvlwbq8kXuC74+nTFUsLb4pIl4hdEeoyXFtAN00yxjOMsdo/WqU3iTRYYyTqEGeg2tn+VefxeD9RmwXVwe+9cfru/pV6HwJMeS2z2Lg/wAhR7Kit5C9pUe0Tfn8aaMpUrO8rDqEjI/mBVKXx/YqCIbW4kP+1hRn9ajj8CxHBd1XnnaWP8zV6Hwfp6jcx/eDHKooz+lK2GXdheszJfx/NkiHT0LHoZJOh+gFVp/FuvOwxaJEfURMf58V1i+HrAMC0bt/vOT/AFq4NMsYx8trED0B2DP50/a0FtEPZ1XvI8+l1rxHMQftJUEHgKi8fzpDD4gu4zI95dEHn5ZHIP5CvRGt4XwrRDA6AcCkWBELKq5XuKPrKXwxQvYN7yPPovDOpXgGTM/+8p/qRVqLwNcZ+cMPXlQD/Ou98tIj+6HzEY600GQSEOQVpvFz6B9XichD4H2n5mUf7Jcnj8AKn/4Qu3HO5TgdFDf1aurZgy4XgYpFQ7eOvrWbxNR9S1Qguhhx+FLBhtdSV90Xn9Ktr4e0+LhEbgdjj+VaLAryDn1oZtoyzAD0xWbqzfUpU4LoZ50ixTpESe+WJzUsenWYwVtYwP8AdHWrYKPjCEnGck0pWTaOFC5zjHNS5SfUrlj2GpaWyZ2wRg+u0U8IoH3V/Kk8wHOB9Mmk3d84/CpuxpIcVGeAKbgM2T1pDIuOG5+lNK7x1Oe1IY9ielM+Vj86Bsf3hmkPyhQ7gHFMYLu4kz+FAh7MGJDDcfU0y32oxbkN2p4iIHBB4yMCoSdjEEEt9KYFxWDZZhkn0p8OEyCvFU4g/mKSCAR1PFWQ3zkZHA6mqQhJMu5PTsAaf5fGQwz/ACp4lhdQDIuPTOKQLEAURuRzyc9aGAB2jj+8C1RMNuWI+amCIhiATnnIXk1KE8sKHycdM96QxPKLxndnGOM1UYjf8ueKuJvudzK5G1ugPf0pk8QfJRQJB29aTQCRSAjYxxnpTygRggXCnv71RJZT8w2kVaSQlQX4PalcCwFXJ+YnH6UjEbhnkDt60CQEcfd/nTgAeR3pgWo5PMHzKF445qN0zMB1U9SO1VWLiTqRipnd2gJjxkdB0B/GqUrk2sKYmLb5SBjoFPb3qO52tGjE/KOc1axuiZWxu284rOmOYNgGAvSiQIaJlKrnJ+nFPVzgjOffNVY13Yz07mrGwEfLn0rIseZFAB/OmmXcPQ9MUxl6AE4pqlQ/zZHv2oGWEyRnmpUO9gBkd6riTjAFSyFo029GY+tNCZKBtPXNTKflOaoRFkzk8Vchy0RbB6GrRLPJjdqvjExc/PdqBjrnzB/n8q9SOd3Jx715CyFvGO/cd39oAfT97XrwGWIP3RWtXoZUpc1ybPHXn1pATu5PBpccUwuq5BIz61iajwoxnd9aiDtHu2c59aV3OQB0pkmCMpyKBmH4n1a/0fQ5byxt0uHDL5hdSRGnJJwCO4A/Gue0f4lWjIkep20lvJkfvIvnT3JB5H613Ss0ZbIBUj5s1554n+HhVpL3RVGD8zWufzKH+h/DsKuPLsyZX6HVw+NNBu5D5WqW+08Hzcx4/wC+gK0IdZ0y7YR2+o2kh6YSdTz+BrxPRNITV9WXTprs2UzkqpaHd8w6qRkEGurl+F9wrbI9WidiDjMBUf8AoRpuMV1Em2enISF3AZVv4uopJwWiUkHC+npXlH/CtNdiJaO4seDwRKwJ/wDHac3hbxnaLsguJivbyb3aPyJFTyruO77HqKrnkDdmn4COcgkjnOK8pFh4/gwN2o47A3iv/wCzGpm1P4gWnyYvyOgxbq+f/HTRyeY+Y9SkYs6sxz7UqoCcg8jrXkzeIfHe/Lw3xKnPOnAY/JKUeKPG4YuIbvJ6/wDEv/8AsaPZsOZHreCB06Ugyecc15OPFnjXOPKuRxkj7B/9j7Uf8JX40UZ8q5ABzk2X/wBjS9mw5j1onKgHigyoD6kV5K3inxtIQjJcZH/TiOf/AB2mL4g8a5DAXXpxYjB/8dp8jDmPYYJBKh/venpUTFx/Efoa8lj8R+NVf5ftW7OOLIf/ABNLJ4h8cbwWF/kdf+JeP/iKfKxXPW2iDICv1pmVXDMxx7V5QNe8bkHH27BH/Pj/APYU06741zyt99DY/wD2FLlY7nq7TRpG5Xr0z6U1EzyCMV5R/bHjKQYIv+OeLI8/+OfSlGqeNBwP7Sx7Wjf/ABNHKHMeuKAB0p3Yn1ryI3/jY8E6oP8Atgy/+y05ZvHEgKhtX9fuso/lRyhc9aGdxQDtT1UquM4FeSmLxy5BMmqex+0Y/wDZqbJB41i/1txfpnn571R/N6fL5iuewKpXBUmgsSowT6kV4tJN4ijkAk1WRSDnnU4+P/IlRCbWGfLavgn/AKiSdf8AvunyhzHtwBBwOD39aMEnkkCvGYrPXbgDytU359NSU/yerg8MeKsbllk55GLvrx9anl8x8x62FUclaCB9M15OPCPil2+aRhnruuqX/hCvEx53rkHjNyf8KVl3C56scA4JxRnFeUt4L8SAZaWPHT/j5PH6Uo8FeIHBJniI64M7f/E0WXcLnqCnMjBiMdhTiV25DDHsa8u/4QTxAxGZoPXm4b/4mnf8ID4hYkebbkD/AKeG/wDiadl3C56aShGdw6etVx5aXOd4EbDsa85/4QDXgRmW2B65M7df++aYvgHXPO2CW23e07f/ABNFl3C56kjAbiXXA9xxQ0yNMFDKB0PNeXN4A1tDu820z0z575/9BpV8Aa44/wBbaY/67t/8TRZdwuz1LMMeN8ic9s0kk8OQRLHjH94V5gfh3rakDzrLnn/Xtx/45TB4A1zOPMtCD6Ttj/0Giy7j5meoNInUSJ/31Qs0TkASoTnGAwPNeXP4D13DBZrYHnB+0Nx/47XFTRXmlXr206PBPGcOhOP/ANf1oUL9RObR9EfKrgkjjsTTZWV2zuUH614/pGh6nrdkLmwuomGSro1wQyfUVfPgzxGDwyZ9BdH/AAocPMakenhlA+8PXk0CTkDIJHbNeX/8In4kAwWA9P8ASTSt4R8R4ySCPX7SankXcfN5HrAuVC54475pJJY0i3s6gdueteT/APCIeJG4OD9bqnx+CPEU7bWEXT+K4J/pVJeYrs9Njkty24zxjP8AtDFOkvLQEk3MIAH98V5n/wAIDrucE2x9R5zf4U8/DvVu89oPX5mP9KLILs9Dl1vTUQbtQtk9jIKzZfEWjBstqVsP+B1yA+HWoggte2oHtGTSj4cXJYbtUhUDriEn+tDUe4XfY6ZvFegoTnUoz9ATn9Kg/wCE40NFP+kOx/2YzWLH8Os5L6mxHokQH8yamT4c2ZX5tRuff5V/wqbRHeRek8faPjCpcNx/cxWfcfEeCJGNtZSSSYwm8gLn3q1H8O9J35ee6kA6jzMZ/IVYj8B+H0kGYJnPvM1P3Be8HhLxU/iJ5Yri08qeFQWdAfLP+B68e1dOQSc44qrY6TZaOhWxt0gV/vhR1PuavxjdzjAqZWb0KV1uQAMrEngUVcKhlwQcUUuULmBo4VdNhO3adgOauOC/KHnNZ2nufsUC5OBGv8qvIcVTeoLYG8xWyXzxjFUNV1TT9NjEt9dRwA8AMck/RRyfyrRGM1yPiLwd/bupfaRcyRtgKe4GO4FXCMW/eehMm0tBs3xB0OKYrGLqZP78cQA/8eINV3+ImlBcpaXjk/3gq/1NVf8AhWQH/MVdv+2GP61InwzgJ+fUpPwjFdCjhu5leqSN8RdPKcWdwCO2RTf+FiWIGVsLgnHQsOKd/wAK3sw3N1cY9doH9KlX4d6Wx/4+rsfiv/xNO2GFesV3+JUQ/wBXpjkc4DTAfyU0wfEdcZXSifXNx/8AY1px/DzSEc72u3GBj5wP5CrFt4J0KFh5lu0h/wBtyabeG7Bar3Ocm+Il0+fJsIE543MzfyxUP/Cfas42RW9qG6fIjH+prvYdB0W1w8VjGuB3JbP5k1Zjt7SI5ht4lGc8IKl1aC2gPkqPeR5r/wAJL4nmcBWlGey2w/nigHxXdOQbrUBk87ZGUD/vnivT0chvuADqMDpSOpY5PI9KPrMV8MUHsW95Hmf/AAiOtXEu+XLqer+Zk/kcGrMHga6kcLJKmz64P5c16CIyDnP60+LAfkYNDxlToCw0Opx0fw9ii+aS6Lj028/nn+laNv4J02Ply8mRyGAx/KurdVaPb6GoXZUKr3rOdeo+pUaUOxk2/hvSrYBY7cgem84P4VcTStOgPyWcCt6hBmrkYG8HrUkiIVGcZ65rLmm92WoxWyKiqmSmF/KnKoHA4+lMKcjZ+dOGSOeDWdyh2ewH40/oMCoi7bguOMVIuSKdgHZ4xSZH40jsscbyOwRFG5mY4AHrXMah440+zkKWsRumXq+7Yv4cZP8AL3qoU5TdoomU4x3OqUZpGGa8/i+ItysuZrKF0/uoxUj8ea7HTNYtdXthcWrEjoyN1U+hrSpQnTV5ImFWMnZMvY+XAHNJjjBp3X6UoGTWJoQA7Z9p69RTictlqV8cvwCTT8CRQRimhEWUQ88+lKjjPJzStGCpxUQCx8hcn1zQIe0pbIUdKERZEBLYY8ZqVXQAAqAT2xUBClm+UA9qYC71gDbCHfpkjgU5J5G+8Bn6daase7ggAelSqigcUh2EQfIQ4HJzxSDYoOAcfWpOMYphODjpSuFhjqo+ZR3/AIjTlD5GABTOWlAHKqKl5XmgGQHKtmUdPQUZjDZIIJ7GpThjuYioJFBPyimIUuzD5focDtUscmY9oJyPWo13KOT1oAPJVeT3pgOICDc5HHNMdSwyMBewqccccHHWmu3IHSkBB5ZTGORUiFQoAHJ/OnE/Ljv9KfEu0fe3E/hQACURjCj5/WpEmYgBwpXPVjio2jVGyx3OecelHJ4I4HSldjsPY7XDKwCjqBTfNXORt4PY00yhT8vaozKSeANx74p3CxNcQKQJM4z3HNRtE/l5YjHr3pyzyLwSMfyqwsu+MnapC/rRoIqhW25VdzD+EU7f5JGQcE96lYb/AJkba/oTwKUw715bv0BoC4i7XmyST3xTlcSNhJF8tQRgHNJtO04OAeMEUkYWMkhAo9cYzTQiwuQTnIBXrms0SIjOu4cn+71/GtJZEOFBBHtWbeoySEhT9QM05AhqqAMjP+FSjBHp71DHjCkMcYp7MXPIxnoKzKGFhuJycDgYpwTPJIx1wTTihGU7e1L5Y4Cgk0DHou4M4GMDgmgL56jbu3DqT0p2CwwAQBxyKevyQuGA20ySF3EYG089CTUscucbc9OcVXaQspBAI7E9RUlsOcelNA9jytE3eLFIIOdRByO/72vVt+2ZgR1NeWQqT4njYj/mJKSPX97XqG8vOyOAVB4rWq9jGirXLG7zOCSOe1AQB8Mee1R5AZigO7b+FKk0TI5fjactkdP/AK1ZGw4x7UJ3HfnvTF+Y4ZcEc5WppFaQ5BBU88VFuZSFC+xNMBwDEbQAwPBp7sIpFXaenYd6OUJGefXNRO0gmXcAyd+eaAKY06xbVm1FbS2W72487ygHx06/TirRUndwM9RU8zFchceX0+tMXuNvb8aGCGhcgA0uAoA27scDNKCpzzj60riPAO7p6UrANZsDg4PakWNVZjI/PbaetPhmQkjYSBySfWoeXO5FCjOSMUATKBKQwLADuabuIbcRwfbrUoIaNQRjHYd6QH5vUelMCLPXilAyRk/SnNGNww3XjFIrc4JwAamwx5Qbs8gj0qIMhYqeOc1M7Ddx3HWozEGXg/jTC42OQC42Jgju2KtsBt9+1ZwLQyDd17VdimB+/wAA8Ae9AgwB1FV5VO4MD9asM6kkDNV5QdmcnrzSGRjlx3NT4DEOMg0yLlSf1p69D0oGKDzz+ted+PvEmuaTrEdvaTNa2jRBldVB8w555I4x6fj3r0Fs7SepqNgGXEqK4PYjIoi7O7E1c8MOo65rLMPtN/enHzJGWcfkOKs2/hDxBcrvj0qbGf8AloVQ/wDjxFer6nr2j6Mp+03Ucb44ijGWPtgdPxxXLXXxMCq8dhp+cn5ZJ2x/46P8a2U29kZcvdnNL4G8RO2DpwB75nj/AKGp/wDhAPEGCTbQj/tsKln+IGtSN+7lt7c+kcef/Qs03/hMfFEg3/bpGB6EW0f/AMTReQWRC/gTxCo+WwSQY/hmT+pFQP4V1+3HOmTrjnCMD+imr6+O/EEJ+e8jkz2lhXH6YrXsPiTcoR9t0+GUZHzQsVwPoc5/MUm5D0OXjh8RwD93FrMYHdFlA/Sk/tXX7T719qcWc/ekcZ/P616hpXjDSdTZEjufJmY8RTjac+x6H863SC3fP9Knna3RSjc8V/4SzXEHOrXAB/vNn+dOXxjricjV5Rn/AHf8K9tWNduCgPbOKT7JBjmNf++RRzrsHKzxYeNdextOryfiEP8ASlHjfX1GP7Xk/wC+U/wr2VrS12ktbxE98oKrrY2LSA/Y4MdATGtHMuwcrPIT41189NXkHGOFT/CmHxjrrOHOryhx/ENo/pXtQ0+z6/ZYPXiMCgWVqAALaEAf9MxQpLsHKzxM+K9acfNq9ycdxJSrrmuyrlb++ZScZVmOT+Fe2mGJRjykwDx8o5pybUzhFAPoKfMuwcp4dJea8wG6bVCuO/mdKM66wzs1VgRwdsle3s/HYCm43pnOAOpo5vIOU8SA10MSI9VB/wBySq10t7dSbb77UZFU7DMDnPpzXquqeL9H0tij3P2mUf8ALKAhj+J6CuK1jx9qF6HSziSzjPQ/ff8AM8fpVK5LSOY0+/v9FvVurSR4JuxI4YehB4Ir1Tw345s9eeOzuwLbUDwAPuSn/Z9D7V5MEu9QuDtSe5mY/wAKljn8K6bQfBOty6ja3M9ubSGKVJC8jDdwc8D1pytbUUW+h7CCudrZ+U8U18Fgo4zREDkEKPfmgp87EmsTYRODgirRyijAAqFVUkFsgUNK+7AUsgOM0JWBsGfBz3NJGfmJJ/OmzMPMUgYOMU4AEZpNgg43fe/CnFWaQKMYxzTHQsVwelPVty43c00DEMZOdoojiOcEDB9aUhyMKSPoajiaff8Ad496AHPFsHBB+lNhbJwR19qUTZk2tG/uQKYHCS5A4PSiwFkrtG05qASMGK56VLJIGHDfMajx8p3D5vehgRs7l/vcUU7GeCRRSQGHZqypGpJyEX+VaCgH61Tg2krgEAKP5VajB3DGc0W1BClSH3Z49KfnjrUgXj5hUTYB46VQDXYomRjj1psc6uTjtUq4IIbikLDaVAGO+KAAnf8ALuzUSgCTrS/uhghck96QhdwIfoelAFpiFUYFV2G99wFPBJ6sMVyniHxvaaQXtbELcXIGGJztQ+h9T9K0jCU3aJEpKOrOlleOOJpJXWNFGSXOAPxqh/bWl7ljTUbMseg85f8AGvOUtvEXiN1lZZpIs58yVtqc9xnr+ANJf+GNU06PzJbdZIurPCSwX68A10LCwvaUtTJ1pbqOh6msoAB3Ag+lSCQEjGTXlGj67d6RMiby9oSN8Tc4HqPzr0myvYbyCOaCRXVlDAisa1CVJ67F06qmXweoAP1NH8YJYjBpFbI9+1ByKwNS4HDL8vFV3AmkIBII60iylTUqSYbIABanuIlVRHH+HJqKRwyAFahmldHPzcf3e1N85SKTY0iddqr0x2pu3BBpUYN0pxAyCakCNgQcjpST3ENnbSXFxII4o13MxqbgrXnPjzXDcXI0mB/3UJBnIP3m6gfh/P6VtRpOpLlM6k1CNzO8ReJrnW7kxxB47TO2OEdXOerepz27fqdjQfA6vGLnWGZnYcQI2NoI/iPXP0P51J4L8OqIk1a7Hzt/qIyOFHTd9fT2+vHbldr4HSumtWUP3dLSxjTp83vzOT1rwdpy6Zc3NhEYLiNS/wB8lWAHTB4H4Vz3gy9ltdfSAOfLnBVlB4JHIr0HVrtbHR7yeTG1IzgHpk8AfmRXnHhK3N14jt8ZKxhpWIPPAwP1IqqMpToy59SKkVGpHlPVWcgY6c9aA+7+lRqMHrUgwSM1wHYI5AI9abISMYbBPPHFOkwRjB+tNIOAMZApAIruCQBwBQJDtOOtOBABJ4pzImMjHPamIrKjElmJ69cVOUVvnGdvfimknHAP0xTzI6IqMoGfegBqgjjOal5FMJpR6/pSY7igZ60pGRRkmg5GaEAgXGcU3J9cnsKRpAB1H0z1p6AyD5QFbsTTsIayYAB4pCi9A2fXAqNmEWVbk9STSrGze1AD2JUDJ2jr0pHfy1ALMS3OemKcEkH3umeDTLhlA+bJNAEDynPvVgYkiUng464quqKzYVskdqVWkX5W2r7ZoAldgiAY+bPWpI2CndJ90DrTY2SRgg3H6U87GOwEZFADTJ5kmSCM8mnEnBxUR4cnnFSpgNhsVLGRsoIBzk1C2QT1qycfMMYHXNRMgOeTzQMbncM5/Op7Ylht7E1GQsa+ppFkZGGOD6UAW8gcU7fhug+tQKXYksv444NTA5HFFxWHqxZyxORjgEdPenbPMHJwKrSMF7/rTfMlxtYAqDkVVxWJ5CsA5PPbFOY705545qPzg3ejzAgG84B7+lMVitsWM524B7Z6Uo3SH5Fzt702U7mDKc+npUsLhGIZlGOOveptqMaF2sSIyAOrHvQ0hiBCn5mHJHanST/OC/dsKB0+tV3Uhmxgg9zQ9AJ1zIo+Y0pMiArkH2qFCFAJGVHWoxKS/YUhk2QWJKkE+gqaAAHjgc1Du3ccfWrEA2Ywdx5waqInseZRRg+IoOOTfpnJ/wCmgr0bAEzt715wrbtfh56X69ev+sFejFiZiNvANaVDOBOCc5XikLjzQQuc8HjrTt3ynGD2ppBHX86yNB0a7chT8p6L0x9KGPI2jn9aYU3DqeO4qQsuF39QeSaYiF/M3HdkH0NSovmR85bDdM9KcVy7K447H1pREUyBIMfrTSAdHtcuhPHt2pF2g53N5mME54zSjcqgKxbJ5qEqQCGOOcc0wJC6OOVye5qF1Ak2qCydCQelWAoSFwPXmoANoCKuOODSGRQn940ZPGOmOahv7600618y+u0t4yOC5wT9B1P4Vy/inx0NLkfT9M2S3q5WWdhlYj6Ad2+vA9+QOM0/RNc8W3LXWZJVY/Pd3DEJ34Hr0Iwo49qah3JcjupviVolv8kSXdyQOHSMKp/76IP6VUX4m6eX+axukB43Da39RRZfDTT4VR766uJ2J5CYRCPTuf1rQf4f+HnTatvLG3Tcs7f1NNuCCzNPSPEWm6xzZXaPIBkwt8rj14PX8MitdmVx86/ka8t13wLc6NEL/SruaZYvmK4xLHj+IEdfwwfrXR+C/Fv9tqunX8gGoJyj7eJ17n6jv+frhW0uh37nYbcksM/SlGd3T8M1VkvTHKU8sfKeTUovoNw8wkLjg46GloPUncAjcE+Zfao33MVZRnHYUeaxAKP8p6H1pMMjFg/PpimIlywH3dpI6GlRwCCTwaYHL5yMY/OnyhDsU8DHXNIYxthb5UApDw+TTkQDHIYYqMv1AHJ4pDQ1ycgcV554w8bPFNLpekybSh2zXA657qvp9fyrofG2r3Gi+HHltxiaeQQK+ceXkE7vrgHHuRXldvbtptnb6rPBFKsshW3il5V9v3mYDqAcDHc+wwahHqyJS6GvofgvVdbxcyt9mt5OfOmG5n9wvf6kj8a7nTfh9olkA0ySXkg53TNx/wB8jAx9c1P4S8QnxHpRuJo0jnhfy5EToTjIIzzjB/Q10IbHJ6UpSlew1FEVvYWdqoW2tIIl64jjC/yqd22/McnHakRyH4wVPTmnTY2cD8KkqxCyI6lDGrow5VlyD9RWRc+EdFvEJfTolOc5hHlnP1XGa21AOBxzStJ5Q2hfx7U72Eec6t8OpoYzJpU5nAXJgnIDH6MBj8Dj61X8O+LrvQbg2WqLNJbJ8rJIP3kHTpnkjHb8q9NBbcD0rnPF3hxNWsWntkUX0KkxkceYOpQ+vt7/AI01K+jFy9jqIrmK6tYp7eQSRSKGV1PBFG5s15x8OdcMV02izsTFLukt8/wt1ZfxGT+B9a9IwMg9amSsyk7gfmpqxqGLdzS5weKc3IxSGLx07Up+7/LNNp6lWOCcDtQgAxlSCXBH0qNvk65Oakyd2OvpWL4nOsDR5Do0LSXJIXKOAVHcjPetLE3Ket+K9P0bfCWM13/zxjxkfU9q881jxdqur5jluPKhzjyoTtB+vc1Z0zwNrF9P5moE2UbEl3dg7k/QHv6k13+j+FdL0cKbaASTDrPKNzn6en4U7xiLVnm2m+DNa1NRItsLaE877j5c/ReprstP+Gum2ih7+WS7lHJX7qZ+grtQxyAeQKMgykZzmpc2xqCKlhaW1lF5NrbRQqOyIAKtlSUIBwfpShBnOcU5QSTnpSKGxo/OWzmnlDu5I+tI/wAh4ODRjPLEkkUxD3OVCqBx3qIg5wrMvOc1Om0pyOKj2YJ5FMCvIoLEt1Hen4KikuHC7VVhknnAzU0bSbQAv4mk1cYig7M9qC6r6A0PIAcd6gYA9D+dK9gJ1yxyMYFJ5gzgAihCBGcDBquvDHPWlcCR5DngEe5pGkOMYBJ601zuBDdKYAMcUrjsWFOBngYpu7dznIpg+770pIUYAxTbCw/bntzRSqVdeDj3ooTAx7VXRh/UVcBZU+bGSe1VImMnzITwcYFXym9Rx0FUySuZDmmIpL5yc9akZPrT1ACcdakZFK4AOOSKap+TJ70rKTnd1oxxTGNcYFNDKuS+ABzk9KUklq47xvrL24j0q3J8yYBpNv8AdJwB+lXTg5y5UROXLG5T8SeL57+b+zNIDhWOwtGCWk9h7dataD4IihCXeqKs0/UQHlU+vqf0rQ8M+HrfSofPdN95IBukPYdcCuhDEEd63nXUVyU9jOFNv3pkkUapHtzhRwopkr7lMe3INTrhl96qu2H65rmZqcB4r0ZbKRbu3UiGQ4dQPuH/AAo8EXpW7lsWkCA/PHn17iu11GyS/wBPnhYZLoQPY9sV5VaTPYavBMDtMcgyPx5zXoUpe2pOD3RyTj7OopI9eUyEfKNxHGan24HqcZPNCEBA3cio2lbe3T0xXnHYKrqx255p5jKD53UemKiVM8Ec0jRbu4B96AJ2QSxgj5veozAVyegqaEGOPamSPWllK713A9aACGIovJ+lSbSRTFbnJOacxyCM4pAUdT1IaVp9zduoIiTK56Fuig/jivKtKs5da1qGFy0jzyFpG6Ejqxz9M113xCufJsLSzDEGVzIwB6qOx/Eg/hWf4JNrYm5v7y5ihBURR73Az3P9K9GgvZ0XNbs46r56ij0R6EkSxAIqgKowoUcAegqXB644rn5vGGiWqMPt6u4/hRS2foRxXJa949mv4JLbT0e3t3Uq7v8AfYd+n3e/rn2rmhh6k3sbyqxiiTxv4ijv5xp1s3+jQNmVv77j+g/nW14J0Z7Gxa9nUedcgFVI5Re359fyrA8J+FpL90vr+Ii1HMaEYMnv/u/z+nX0gjHTtW1ecYQ9jD5mVKDlL2khwGevWlHytmlTBFB4OMVwnUKcU1lyOvXmlOKa5wuB0oAegG0Zww96RgdvygUm7aQKcX2qT/CBzTQhAdoJ6tTC4dwh5P8AKm5644zTlEasCqf/AK6Yh6IAOS340jDau4HIp7KN29jkelRSo0qfK2PWiwC7h6jPpQVkJyWCDPOR1piBflwN231qaQeY+85BHpSAYiI7ghB5mMbyOlSbNj4Vs8UxV+YZOPen9GGDkUAKHYd8nsaa6Fx8zsPUCnLg/Wg8ZNADEGzKgHb6k0ThXT7pIFHO6lzwcUAVhhUKjChvSlEDD5iy7cdqSZHySozmkjDOu0j60h2JUcIhCLjPU+tQl8Srgc55NAYlzkcDtTSzNJs/lQBMVcEnqKkRlKFu/So0kC8MOvapWI3gjjFAh4OBtABOKilBC5UA59qdvbPB5qYcEbuRjkYpgUAoK8Hk09I+chs88k+tTSW/deh/SowmBnsvSpsO5MucDBO0e+afHkDBGKRSrIAOlOX680AO2K33hUMuACBUpNRyLk5oAiyrLg4HHehZDF1I2+h5pNmCcjJ+tR/Jj5jk54FAy35kTkYz+VMMsEz+XIoU9BnvUakY6cUqR75BwCOvNO4rFgQCVCGQcfd2moGtyvU4A4x3pS8kD4jjIi7ENwPwpizebJngkHsP503YkbNtjQqOfX2qNY0Kj5jzzg1YNsC/mM2c87RUqwRu4OMIB2pWHcq58sbh8x/SrUIVogxyrctjpUMuwMoTOAe3GasRE7C5Bzg8VcdxPY8wjQr4gh/hU36ADHAHmCvRSSJTg98V51Eu3X4SclRex85/6aCvR+Vzx3zV1CYEyjavTt0pwIxzUQk3HIBx2FPDbVyQQewrFlj8Aj5uKURxtGVLcHoKj3fLkcZ9aN2OgBPvQmBYXarBNu4dB3xUcyx7gCQr/wCzUZL7fvHmlRh8u/lh1IqrisPy3KMMe9KqFuegI7+tNl2umQcHt70nmPsyBxjpimIVTvhZQ2DnBFcl448RtounLZ2rst9dLgMpAMcfQt65PQfie1dRvWNGlY7R1OTwK8Tv7m48W+K/3ZbNzKIoQf4Ix049hliPXNOKuwk9DY8F+EU1rN/fK32CNsInQTMOvP8AdHTjqcjtXq0Kx20XlLGqRqMKEAAA+lVrK1isrCOzgUJFEgVF64Aq2mCq55GKTlccVYV0ZhweAMVEBgY5qYE7qG45C8Hqc1LQxPLyPuj/ABrybxfpEnhrxBFf6c3lRSN5kOzjy3HVfoew+o6CvWSz/KVXI7isnxXpH9q6BdQIgeZV82EDGdy8459eR+NVB2YmR2eox6tpdtqEPCXC5ZeuxuhU/Qg1Ntz1FcZ8O9ULwXmjyNlVX7RDk+4DAfiQce5rtCGBA70pKzKi7odbSMkpQAsh6j0q3BLI0+H6EZGajWQIuxQQ+eeKkSYbQsqgjsR1pIBwmIdhuBJPapJUZ8EEAe5qJlRpRIqkdyD2qb5ZUwQemMimAwNIHyMBMdM9adhA5ZW3Ae1G3y0wo6cYFRR7wCTyO9ADbq3ivYHhuIo5Ym6o6hlP1BrzT4iaNdRy211bW5GnwQCIrGvyxHJ5wOgIIH4V6cOOKy/Ea+Z4Z1ZeebSXH1Ckj9aUZWYpK6OJ+F75m1SE/wASRsPw3D+or0mLIj2twK8s+GTMviO6UcqbRiR9HTH869TZ1HUZPpTqfEKGwyZo0zK7ARoCxLHAAHOSaSy1K11GDzrSeGaMNgtG4YA+nFZXiayn1Pwzf21qSJXj3KOm7aQ238cY/GvOvh7qZs/EQtyT5d7GUxnjeOVP5bh+NKMbq427Ox7CSpOARk9hTHCheTzVeORyQCeM1P1BAwSe9SMmVcru4FI8fmKVPpUcQPTrips5FAzyDxHBN4d8VNPbYQh1uYgp9TyPpkEfSvXYZ0mtopYyNrqGGDnqM1538TYUWbTpQBvZJFJxzwVx+HJrp/CV0ZvB2nzSZykflr77SV/pVy1imQt7HQMyr1PSlVwxOKzTulfex+oqyBtkG2oLLe4c1GPmlAzilVx3FIFRTukI/rTQmT8qxOQfpTIpdynnGelRbsfKD19adEvlNgnirERlF3gFuhqwVXOQce1RlFds54J60itgYJxUsaJAQpwRmhvlkBwRnpUbKC2TUgUBRgnOKRQ8/M+0dqUDGcdajCumeck0/Py+4oEDEquTg0xJQWAbg/pTTySSSajbd2ouOxOZctwKEJwd5I9/Soy2AAKehLCmmIZJsiO9ug6E0JLI7CQNuQ06dBLbMHXOORioLOWIxgHKsOMdqALLAPk4wajQnPC5Iqcd8VG8hyAFyB6UmgGyybwcYHrimjLc45FDgKM460R5PQZz0FSMR1LLxzk0uESP5vvdhT2GwE9TVbc75LH6CgBc8gmpCQR1qIPxipFO7sKQxUwvNFLxRTAz7ZozIwztOeRWiuAKyUhljmIOApOOtaS7UUHdk9KtMge7qrDIAOcVCRgk9alGGB7mgoCMUWGQd6cUJHABpxTZjJ4zTgwZcjp6UAVJCsT+rV534x0+6j1VtX2hoW25I6qQABmvRGGXPFVpog4KlQUPUEcVdKq6crkzhzKxR0WaW40q3mkXG5B3zn3rSX5uwyKiBIyDUydDWbd3cpKysPJ2hsVXABds5yKsLjbg1HJwcnvTAQ4X5e1eR69CLbWLxUxhZSRjp61644yM968r8QsZteu8DJM20DP4V2YP4mc+I2R6bZOGs4SCDlAc/hU4GTUNlGI7SJOpVACcdeKsqcnA9K43udC2ANz0pQm7tz70qp1yKf2wDzQMdEGQHI4HNNcB23GhiREA0mD3PrTFDBuSCPWgQ8DgYpRkUudvbNIrhjjvSA8y8cXQn8RtGT/qEWPp/wAC/rWf/wAIzrGoWcV3a2wlgccASBSMcdDj9Kk8TMZPEt6zdfOxz7cV6XpChNHslwM+ShO3kdBXqVKro0o8pwwgqlSVzzi28A63PzKILdR1Ekm4/X5c/wA66jSPAun6cyy3Ob2Uc/vUGwdei8/rnpmuvC7iPWnFdveuOeJqSVtjojRhEYpUrwMADGMUj/LxnrT/AMKHAdcdCK5rmwxT8uAaUkgE96McdelJkMcUwGg/Lmo3nXeoJHFJPP5ZKIPm9fSmpbpkFstIR1PSmK5MZC7BQoHHBJoY5wkpbaeymkEYXbtzmp1AwQTz70xDdxEewIOBxk5NG9mGX4GOQKlXAkOOnrTGZDyp3Z6UMBmf3ZUZAzxnrQ7Njy16etMVnD4KDHrTTId5pAOTcuRUyZxz1qObdtRk6jrUgPekA8gED2pAR0pM80ZHWmA4ctnGKUnim5BPXijdg8jigBvQUueKecYpnGKAIXXktzn0FRHIHBIq1s/2qrvA+4HIIpMYyRDGQc0mQOe+aklAZQGYCkRcLlgDnvQMU8LuB6UBiVyfzp2N5KqvXtT1RViPmknB+6DxQSGRjn5R6mnCfOAuWx/dFODq4HT2oJbHycZ9KYDhJlSHIGeuKTblTtPGaYQCnuKVWxjPGaAGAMjZzxUyngNjmlfauM9aiLEtkdqQ9ywCD/hRjiolkOBxg07exA4NIBGQHpVdlIzUvnbcg9aY5aQYUcnp70hjFUAj58E/3ulKJEQMgZVyeopWUKmXPA7VAHRTkR8+54poCWTzNvGWQ9xyKaHUDIbGPzp0O9j1OOw7VKygg7o1+uOaYrC2zeex5wR6DoKmbKx8MBj0HWoo1Z0KRZHqc9qWRW2pHF90dTnvVCEIxhmye4zTVZzKcqcEEfTinSy4YibDenGKWKVWU7QRwcd6aE9jzSNGOqxlGbLXcfTn/loOa9JA3M2MgZ615pDka5E2WA+1xhcenmDivR13CZvmJGelVUZMCchTzjp19ace1IuOtLnr/WsWaWGYA7UdRSls9uKMgCgYoNNx34ozkU0sAwzQAoO0525HcVKpbbt2kL1FQ9DxUiMwUgHJ7A1SYmjI8V+bF4T1WSHJY27A+w7/AKZrzX4dxJJ4qUuuTHA7KfQ5A/kSPxr2C6hhubOW2uYzJDKhSRPUEc1wmkeAbjRfEkF/BeiW1j3kKy4k5BAU9jwev6CtFazRm9zuonCyrkfn9KBhe/5UwABuCQcdGFKvPYcHk1mWSrIdy5xjocCnLsZWQZOD19KYgAb5yBnpmiRztB4XJ5xQBJgKODTTIpHP50xGJHXOPWlH0zQB5PCB4e+JCpGoWJbsxbBwAknAH0AcflXpssZEvy8gn8q81+IiGLxIs6LtkaCNyw4ywLDP5KK9LhlWTT4boLhZEVhg5yCKqWtmJAwIl3Z6jkU9SpbHeh4jkMo6jJpAMgHjNZlil9hwOPWp4SGII6VVwCC3U0iM8cikAlT1FNMLGhKMQnZ1NRujJDjHQZpxdeAAcDvmklYFMg5GMVRKIkbK5qlq436Lfp/et5AMf7pq0vBwTUd4AbKdSM5jYfoalblHmHw4YJ4olBPDWjqPf5kP9K9TkyORXlHw+LL4rGOF+zvnjtkV6wWAGSM1VT4iIbDVaMbgynG3GPevGvEtm+heKpZLY7T5guoPbJzj6bgR9BXsg3BSQ3XrXnPxMWFbzTmyBOYn3DuVyNp+md1FJ6hPY9AtpUuLeG4hH7uVQ6nOcg8g/kaugADPGa8m0Xx/d6XaQWk1nFcQwqqKQ5Rto468jpjtXbaT440bVmSHe1pcucLFPgBj7N0P44PtQ4NDUkdGVCjI60obNJv7EGuT8YeKY9Ht2srRle+kHPfyge59/Qf5MJN6FXsct8QtYjvtXW0hYOlmCpYf3yfmH4YA+oNd5oWnvp/hnTbR1KyJEGkU9nb5mH5k15/4N8ONq18NRvEP2GB8/MP9c47D2B6/l649VxhAAABVzsvdREdXcaqc8jbTpAy49KRACc9/U1I+GTFZljUkKkD9KnmVZIMgZI7VSZQRkdfWpI5CgHJpphYdGOOQePWrWd6jnnvTfMic5OQTQhCvkfMB1qkAwIUmJ7VM0fnL8oANISGOOlSIducdKAIREVbDfnUgwOBUjDILbsepqInPY/WhgPBycUhIRctTDIEU5qq7FznNSBPuBOR0ppbnjpSIMJSHOeelIolkxtDDpTVbjuKkLAwgEc1ECP72KoknQb8AtjPvVOSCWOclWUKeTVlcBdwOaWTbJH33flTC5HFJtTgbj0ODT0Db8kGiBdnpUr5DfLxQA9V+X61G+FGUBz60oOwAHk0McdKAIy2Y8EZ9eKrL0xVhmG2o9gPSoY0MK/LTAMHk8U4gg4oC98c0hkm8YFFNCkDpRTAZMg8xuOjcipoUG0gioAxJOTnJ61ZXj1q0QxOVPA707OOp59M0pOD60zkt0pgDAHrURXaMZ4qR1JHFROpBz1pMZByDzzUbHA6VY6npUTqB/OkMrnk4pyHnGKApH0pQMHmiwEnUZzT+CuM/nUYBK+1NkuIIFJlniTH99wMU0JsCQpyzYVeSa8ptl+3+IocgnzrkEgdgW5rvNf1uyj0e6MF1bySuhQBZQTzxkAelcj4Ptxda35ueIELfieB/Wu3DpwhKbOWq+acYo9GjXOAOwqY4jQDuetMgUZ3ZNThEI+Y1xHUM81V6UxZAxJBJpxjRei5FHkoDlTt+lACjk8809cVGPTNAP7wdfxoAlIw3BNIdinJ60nSkfafvD86QHk/iYFPEd8G5Pmbs+uQDXpmiOsmiWRAO3yVAyAOgx2rzvxjbLB4mlwMCaNXHHTjH9K7Dwfcf8U7bLnITcvA77jXfiNaEWcdHSrJHTKADT2IPFRBgQMelPGMc9K4TsGk80hPFB79qTdliMDp1NTYBC2O340iHLthgcdKhLBcs7VIrFkGFZc+o7VSEwdYidwyzHt6U8gyYzwB2pEjCe5NSCgQ8YC7RxTCRmlyabtGaAA5Ck00YTkfhTwpJ9R3qMbfLbJ+ZT0oGDP8ALuYf0prqWCnAAzk0AcYJJPXpThx3J9iOlAg27x7CngYHP4Co849Mk1KnzdO1IbFONuec008c9R6U446g5ppUkdKYiOUKnzjfk9gOKlVsYz0pgiwuPU1JgEc0AKDmlwKOBjFBakApHHQU1wdnFKWJNA5yOxoAqGLdznj2qRYxnGKmAAGBSEDgigdxAGHC8U1lJJDg4qTcVUvjgUxmZ1wcjNAgjhT5gxLf3ccU1Vk54J/GpAmEAPakC8c9KAAqQvH6UwqxUHGacUPam+WD96gaHxg85Ix7mkYLtyCd3oKAgA49KcqYoC4iDYMDk+pFBJQE5J9qeBzk0pIosO5WMp2nJGc9CKfuZlxnAHYU8qp7U0JzkkbfQUgG7Sy8D86YttnqevWpx06jilye3SgBURUUAUMM9s0uaO1ACxkISV71DMm4H07CpjjpTSccYFAii8r5AAJXPU9qtwhtxbHVTUXkpgjnB5IFTwKqq2AcY59AKuO4pHm0P/IYtRuJJuYjj33ivRFJMrEYxnkV5rY4/tOylLHc88RYeh3gV6QSQ5Oe/IqqhECyKG+6aF+6D2psnXNZGozcSBjmlFKBjmgkM2aAEPT/AAprDJw3TtS7gTmmuc/SgBQTjHPFLuIPTBzxUa9PQ0uce9IC2GBUEkA1HIgz1+Zu9RoTnnnNTbl3FSoZcY+lap3RFiIfwht3ynANSOQiKVHWo5ZRDGuM7CcAEc0kS74ucnPINIYY7nnvT3AY7F+YDncO1QAuABIMHpipFkwuF4B9KkY4HAx7Uu7B/CmPwm8E46GqGoa1YaVDvvblE9EHLn6DrQBx/wATY1M9jKCSzRsp9sEEf+hGuy0BD/wiul7nDbrOI8/7orzPxZ4ig12aFbeJ1jh3AM/Vs47dulPsvHWp2Nja2ccds8dugjTehyQOmcEc8VrZ2IvqerRZCPGwyV6c9qZEpGR+FUNC1G81rR1vLq0a0uA5UKQRvHqAeQD7+laag4wevWspI0TI3BU8CrG1VTI6nqKRVy248DvTk3EnB70JCbEY7FXBFKDCXJByx4OKrTgHcSCG7c9ajjwV3AcjrVXCw+6A2+YoO4Go5JQ9nMe4jYk+mBUqOHBViSDWdqbG3sLslsYhckj/AHTU21A89+HpA8VqD/z7ycflXqcrDIBXIHvXl/w9Td4pY5+5bOffqo/rXqRReeB9adTcUNhsbAjn7vavG/Ft+2oeKr92PywyGBB6BPl/Ugn8a9ichenT1rxnxHZTWXia9WdCEmmeaNuzKzE/pnFVS3FM6Pwd4d03W/D1xLf2vmSR3TKsgYqcbF4yPrVHxD4Jl0qFryylM9oMl0k++g+v8Q/X61R0nxPeaJYT2doI9ssnmFnGSpwBx+VG/XvFM/H2i7BPGOI1+n8I/nV2d73J0sWrLxvq1lo5sFZXYcRTvy8a+nv9TS+HfC934lumvbpnSy3bpJWPzTHPIH9T/PsuoeB9U07TFvN0dxtyZoogS0a+vPX3rS8G+LRamPTNQlAtiQsM5P8Aq/8AZb29D2+nRX090FvqeiwW8NpYRWsESRwoAqqB90U7HODSOoZzjnHpTVkzMVwMD0rJmiJAmD7UrLv6HGBSgUhJBpDE8rHPFNIPYVJnj1pu7aNzce1IbGkYAYnHtipo5AFJyaiZtwH505VHrTETjJ5qTJx14qEZIwadu2jmi4Eu7ggGo3JUc4pFYkkdu1Qzsc7eadwI3lDDGT7GkAJA5P4Cl28AninAk8A/hSAch6j+dOzkc4qDPz1IDzSGSofkIJ6UiEb1bbkZpin5+QalO184OCOxqkIfw3zA49qjcqP4smm5IjJ4zn1qLcGPvQ2FizGVYcH5h604SLkgn8qqk8YB20qDyxn8zQmFi6ME0/CkdKqK+SOevpU6ybR8350wAryQehqIxMDlenpVkYPSmNnnBpNAVnUKOc0wHAqWRWbj+dM9iKkYhBI60Umc8EfrRQMqRHJzk1N5jseeBz0qshOMdM+lTxkZx7VSJJg4Iznp60/f7c1WXJfANWFI/DFMTJO1NP3SKashPUU4sAM1QEZVQBjr6VBcHbjFTnnkVS1C4isbKa7umKxxjJwOvsKVruyC9ipqWp22m23nXL7V/hXux9BXG3/ja6lYrYolumfvMN7H8+P0rDvr2/8AEWqALGZJXOI407D2/wATXRab4HRQW1OYyN2jiOF/E9T+ld6pUqKvU1ZyOpUqO0NjnJ9Wu7pmM95K+7qpcgfl0FJBDNPnyIJZMnnYhbmvR7LRdOs8eTZQAjoxTc35nmrN7Omm2Ul46KFiXgHgE9h+Jo+txvaEQ+rveTPKbuGSOQxzIUk7hhgiux8FaG9nC9/K5BuEAVQCMLnPPqTXOafbTa1rQVzuZ33ysegFenRMI4FjUEKoCqPani6rUVDqxYeF25EwIB4IIqZfeq8YGcetTITjH615x2ka5juGUnKnpmnLnJIPHpUrLlcGoj3A4xQAg3Zycc+lOA/GlBzz6UhbAHucUhj1PPtSSgOR046U7bmkPAJPOKBM4Px9blbixuhn51aM/hz/AFq34CmJsLu2POyQOP8AgQ/+tV3xrai68P8AngYaCQP+B4/qKwfA9z5GtSQkDE0PHPcHP8s16EbTw1uxxv3a/qegJujznp2Ip6vvOBmjrg9B2qR3ygxwfWuCx13Iifm2gHjrRld2OuaPMbOC35ikCyJPwBg0BcbLDtAZsEZBxTg5JJ9aJGJIVhgDinKQKAHfWjOcUDk4pCccHrQIexCpwMmmLkgZHFOCgDIBo6cUAGSq/KefWmBtpBbGDwc048nrTZFJQgdeooGhDw570p96ihQmJSWyRUnO7PUUARyH96ozwP1qcDio2OXAK4HrUo7UgDHpTuwpCcDNC5xnHWmICaN3FJtJJ+tAGByaAGu5KHjHvmmocDPpUjbWXHT2pAgHTqfagBQw4HP1oJ5HvTSDnaM5+lI4LjZnn1oAcZF3bQMn9KeDuA3ADHpTUhx04ApxHrQApbjAHFMZtrBcdqVjimHryaQEgJY0pwelR7iThT9aUNxQA45xmk6igNlh2pelADAQVwG5zinAlchqZjknpUYyXznjsDQBZ6gc9aXHSo1JxmmNI3bt3oAkyTkGjOMjHFJHKrKN3B9KV1wc+tFihgb5+eVqQfdzjg+1NRc07cR8v60rCHLgZJ9KXr700UueCaYg7cVEc55zmpByMmgsVUuOcCgBgHl7mfAA70qTB43CnI2kk4qtuDsWJOT1FSwJsDkjnaTVx3EzzOwi2alYnOVM0RYf8CGTXo+MXL5x8x7V57YDZfWQOTtmiH1wwr0IH98T3zVVCYFnI4APApeM1HjnPanEj/8AXWLNBeeOlMJ2jOckdqdu+maYxwBQMRjuGfzoU5NNYkcimp164oAVmOfXmnqMdaXYBjA60HBwBk0gHLxz1FTAg4wOD+FQxK232/nUsRDKysO1aRJYrqksTKxBPUH0psSkDOSRg010YgCNgGHf2qE3LruVmAYHG0cU2IleYxorjkk8g1VvtSt7aJri5mSCIDkt0J9u5NZHiHxPa6Jb4fbNcvzHbqcH6k9hXnTtrHi3U+QZ5f4VHEcQ/kB+px3oSuDdjb1vx/c3IaDS0+zw9DMw+dvcdhWZpvhfWdebzyrJE3JuLgn5voOp/l712GgeCbTTis18BdXOcjj5YjngqO/1P4YrqSpi+QYxjrTulsKze5474m0aHQrxLWO4aZhEGkJwMMc8AduMH8a9b0XTodL06C3igjjdYlWTaoBZgOST3NeY6kx1zxwsZXzFkulRgvdFIBP/AHyua9ZjHOfWiTegJIsfKsDOwwBUaBZVDr97OAfapY2BBVuh4oVFViFwMdhSGOaMCMKOvrSKAqEevWmysyLuXJPpVc3ZwMptJ7+tACXBBOMdOKiQkMAe/FSTEuAVII9jzUZUKcE/41D3KQ8JsfAGBVDXox/Ymok8sbWTBH+4a0VLSEetZnio/wDFN3ztuDLCwwO+RimtRM4P4e5HiWc9hZvnA/20r02E5Uk85rz34ZIH12+Y9rQr09WX/CvQ2idcgsP8ac1dihsRy8DA9a5Lx4pOgIXUA+egBx7H+ldjJCMKQSeO/WuQ+IAKaHbBu90o6dfkc/0pRWo5bGV4B061vYr6S5tIJtjoFMqBscHpnp2r0KNUiQAbQMcBa4/4cEJo964QFjc7c/RV/wAa68jc3Jyxpy3COw9l/c7s8NXnXjDwmLMPqmnp+4bJnhUf6v1Ye3qO306eimYMBGFOVPzZpA29iAMr0JpJtMGrnEeBfFbBo9Fvm3B8JbSk8+yE/wAvyru5YRAMBTuB5FeV+L/Df9jXgubUEWMxyuOPJb+79O4/Kus8I+I/7YszBdSf6dbjDZ/5aL2YfyP/ANerltdCTs7HUoxIPynJqQjPGKjRjsXk808HPFZMsaT2A+tQOD0ySasEYzTCOelAFdRJv9fap43weRjnpQ+5UynXPNK4Idd3cUgRMGBGaOTTU57dKk4xigoRmx061XcluTU2Tn2qNghPXBoAjDbjgdBT2wFx3xxULZDYB4qQYIwc+1MQi9tx+pqU7R0P50RyJEMYz60kg3tuTj60WESK2D1zjtimuw6jIpoQ4IYY96aWjT/WZHvQMccFRnimkZOeCO1SYBTrkUxhtA2rx70AMLqGKng1Ij5QrwaY6AYccsOx70wSB/4CnrSAsxMgAx19qsFSRggAHvVWFFSQFgSOn0q4Wz9O1NCGqRtwDSEEc9qVep+Xn2o+bvTAQtweRmoWBye9SMAAc9TTBx71LGiMsd33elFOIznFFCYGeUY4PQVIMK2VbI6YpiBzGC3ftT1h7k4zVCFDMzAAVb2/JzmoUCbMD+GpEkDKODTELznpQwz9KYXUPgGn9Mc0wEJ2An9K888das91fjToXPkQAFwO8hB/kD+prv5XWJWd2wqgkk9BXlVtnWvES+YmRNM0jjtgknH0HSurDJczm+hhXbsorqdN4S0YWNiLyVT58y9COUXsP0zXSKuTyMVKBtAXJNHauWpNzk5M2hFRVkR/dJx0rhvGWsfablbGMgxw8sRjlvT8P55rpde1QaRp7SgjznysQJ7+v4Vw2haa2sasPO3PGv7yUnPze2fc/wBa6cLBK9WWyMK8m/cjuzp/CekmzsTdyx4uJ+cnqF7D+v5V0JOTSpkDHb+VIyfNkGuepNzk5M6IRUY2RLCcPgnjFTBgT0GarBRkHvUqHbzUjJyfzqN9xPzcLSFiGBzQVZ1OCAaQxYycjg0q/M5x0Hr3qBZpUGwkFPYdasAjAIX3oQDwSc9qO3FMyacMnNAihrEH2jRryLaCTEcfhz/SvNtDmFvrdjOe0gB+h4P6V6wR8jZG4YIwe9eOzI1pdSoT80MpH5Gu/Bu8ZROPE6SjI9jVwwGRx2xTioK7lb8DVe3YS28cqkbXUEY6c1Lk81ws60LgA7sgYpwOWyzA9hxTByaVRgk4oBkbAMW+bPOQcU4DA681EJVWYR9yam7Y4oBDTnIw2aCSuC/FL3xTW+YYcZFAyVHHUtTjgnjFVQpUfu/mH1qSKYMMkYNIVibGOaQHJpGORRuwvvQMhlVozvj6dwafvBAPqKcTlSD3FRHKt93j1oEyRQZEB6Y7U45C8ck1EJAkfI4JqYAkccUxCqMjBp5Hy4HFJ0pRyeaAEA6ZowD1p2D1zTSQD1oATAA5pMgnPSlLKdp7UdXznjsPSgA5OVycUAKvYUEnt+NG0dxk/WgAV8gsPu4yPekLjgjk+lJJG0jAscL3weaYG2cIAqDt3oAe/wB0AA575poUinJknJ704gEYoAjGe4607BIJB57UjZ/CnpkZ9DSAaB604ZxigjOKM80wEIA47VGV2ksMZPfFSE1GxOKQxBI23JHFNaU7SWHOeKaThAC3fNNeUFcAZOKAHiQOQRx+FTBg2cdRUIk2qqFR/hUwXkgD3zQIhSRg5U/WpxgjJppXA5GTQnOPSgZJmgNgYxS4460hoCw7pjNMfk8DNJvOQDTh1ouFiJ0CD5FGRz9TQkkkjbmXbhDxUwPrilI+RzjACnNVHcTPL7H5bywyCcTRAg/7wr0TP79uO9ebaZLNLq1oZF2qbiLAPQfOK9KfCyMR61dQimSAYx19cU7gn+dMV/MHFPUYNZM1AcU1umKcRk4zTOc80gE6nFIVHUYxS8g4HU0gyODQA4HPenAqCMVGRg8U8DgHjNCAmduQpJBPAojbardT9e9NblfRhyDTkHyDJ7VaJGM4VmJRipHOD0rnfFGsxaJbG8V1a6k+SKI85OOp9h3/AAHeuilXfGfm28fhXjupXE3inxOEtiWWR/Kgz0CDq2Pplj3/ACqkr7ibsg0fSbzxPqbzTysIy2Z7lhnH+yPf26AfgD6lZabZ6TaC2so1WPHOOrH1J7mnaVpdtpWmxWNoPlQcsernuT7mrYiUKVPGfSlJ3BIS2J8tlzz2Jqlq+oHStIu7otho0O0n+8eB+pFXZFAYBnXJ7A81wnxE1PYIdMD5YfvZQfT+H+v6UJXdgbM/wBZLd69NeSplLeMhM/324H/job8xXpkZLMAFxzisLwhpR0zQIEkQpcykzSqRyCeg+oAAPuK6P5Ew8nJ6nFD1YLREkg8v8qZvwxbA3N3phd2fJB2k8H2pshPmAr0x0oYEoJLfMSR6UxUA3KRlOuTQM+tDqd4b0qShGVFcLggkZ+tRmLBYu2fcVZDDcJMEnHHFM4UE4JzzxTaFchhO35ax/Grsnha9PO1lRTg+rgf1raUxuTtPzDqP/rVheNXK+Dr8N1Plf+jEojuDOZ+GuV1DUZP4REik/Un/AAr0MgP3NcJ8LYxJdaqGHAjiPtnLV3sqywvnyt6mqnuTHYY25WQg8DgnHFcT8SbgtDp8IZgrM8m0j0AGf/Hq65rmQsc4Az90iuC+Il61xqNnFgDy4C+Ac8s2Pw+4KUdxvY2Ph/EY/DMjNn97cs6/kq/zWupWJi3PSsXwcn2bwlZK4OWDOOOzMWz+tdDb/MpLYqXuylsJszhBjH8R9alEaqMDpQARzxzTu1SMoX+mwahZy2dypeGRcEHsfUehBryWaG+8K69j/lvbsGB5Cyof6Ef54r2giuZ8YaAdXsBcQqPtduCVH99e6/4e9VF20JkjY029g1OwgvbY5jlXPup7g+4PFXgBj0ryrwb4hOjX/wBlncCxuTyW/wCWb9m9geAfz7V6uy5zRJWGncbjNMkYIOmakAxxTJBlhnP4VIxgkzxjFOlj3FDv6VHg7txzz7VI5DYIBoGInDdanCjGaqxlyTngfSrCuOcmkMaSB2z9KjeIhwR0J5qVuTlTzmo5JGVTgDPrQAm5CcHmkY8YH51Cu4jvUsRzGVz09aBDdw3ANnFSrgnaenY1G8ZyDk5p+5SuG7dcU7hYCj9zS4ATawz6H0pxwybh3pq7t2T9KBDSXQ4DArimM2Xyc59qdMh37h0poRgAR0oAmCAxg9SacAsak5XI7UwhhtKscU5gApOKBkRuEwVPX0HapopAyVFHggZO31p4JV+MFaQEgOHzmpyO4yahCsWDYGOtTHFUhET5JwOtG3C0NkOWz2pGcbTjrUsYzd7UUbgaKBlJHLuM8YqUl8YJH1p0ccbNxnPoTSyJkdashFcq5+XIwecU6IsPk4JFKshX5eoNIVZXyBjNIY9s5UYByamUgKKjwMjBp2RTRJmeIpxb6BfSH/niwHOOSMCuE8ExLJrbM2SUiLL9c4rs/GB/4pm8IwflHGcdxXGeCHVNaYN1aMgZNdlJfuJMwn/Fiei7u2DQSvJLBVAJJJ4AFIGyc8VzXjDVjaW62cB/fTD95jsn/wBeuWnTc5cqN5zUFdnM+IdUOqaq5XmFD5cQx1APX8etdnoGljS9MjjbHnP80h68ntXN+EdJN5cNqEyBoouIwR1b1ruCpAzXTiZpJUo7IwoRb999R3HXqKa2SKAfWpVAYVxnUQ9BzxShgG5PHWnNH17/AEqBshuRSuBYVgX69PWpQfyqqrZPSrSkYHrQA1shSRjpRC5kXnr0qTblTnkelL90DAximAnQ9M0ucCjqMUEbV/HpQAquM4NeV+IYVi1/UEVSFMm7r1yAcj869ODEN7V574vA/wCEhuDgZ2J/6CK7ME/faOTFfCmdpoU5n0OykL7j5QBP04/pWirjmsrw4F/4R6ywMfJ/U1qlc9vxrmnpNo6IfChSwGMUobIzScDoKM4qChZAoBO0E+tRo2akUbuTTAAGOKYDgMnFNfcGx1FKppSSTmkAzbu4xzTlQqgHfsaVeORTgfamK4zeQCCDn2ojbzGIUdO5o5LbgSKWR/MAU5/OgLjmVl5JAFBIZM8Go0iUDp+tO2KW42/TNAhCoXAqdeR1qo0Kk8O24HI5qeJtqgE8+9MCXrQeDSZ596XOSMUDAscYzUb8xkAZJODWbeeI9IsSRPqVsMHBVX3sD9Fyf0qO28VaFdPsi1OFWHOJMx5/FgKv2c7XsRzx7mtHCkS5VNvtmpBjr2pqsJVDKwK4zkcjFIT2BqCkKZMnAHXtTXfYoYgjNN/izUE7N97Py0gJVkJ7k/XtSnjBxmq0D7zuX7oGTT4720kYIl1AWzjaJBn+dOzFcshs06mkBehyO2KUEn2NIYuM0d6BzRjBoAcaT2FKDRkUARk/hSEKVJANPIycZpGXavXBoArSYAzUQ+UgnBHpVs/N6UwJlyx/LFAyupLSYHGelX1McMeMZPc55qurRtF5iYZTyCKY5LAEEFicAelOwizuB59aAw3Y700L5ag5yT3pE+8ACcDqaQE/TIpqkE4NNG7JYqQD0zSE7TnFIYshAYYHJ7+lOXpTN4JI5pwOOlAxT7U4fLC+T0U0m7JAC9KR+Y5ARnKniqjuSzzGwCve2gQlgZ4yCvcbh0r0Jh+8b1zzXBQN5ep2jLjH2mMZx0G4Cu/4E7bucnHFXUIpk0QHIUf/AF6k560xCCuQKk6jnNZM1G4GPQ018gZAp3A60hwRxzSAjB9RxTyAV6UEUUANA6gU8cgDvQTgcfnR1Iz16GhATY+TPrxUIYq2M09mJx/IVGT8/A5FVck53xtqTWPh6ZFJ33JEKEHsfvH8gR+IrD+HmlFvtGqEfMD5MXHbqx/kPwNU/iJfCbWYbZSMW8O5uOjMe/4BfzruNAtDp2iWtoMBooxux3Y8t+pNXshbs0449oy56UodWxkZwelBZ8YIDZoEeSMcDuc1I7FTVLmDTraa9uCAkS7uf5CvM9BtJvFfitrm7VngRvPnyMjH8Kfie3oDV/x3r0moXy6VbEtFC+H2Dl5Om33x/M11fhfRDommLBIALh/3kzA5+Y9voOn5nvVrRE7s3YYxGMM2SOg9RUkm58dAMYIFC9iRzT3IIyvBpIZEMphlc7V4KU0AkKRjcM5B71ME+YnA561FkLMVTHT1oYCbsHGRmplwRz1poCP/AA8jnNJI5wPu57YqbWGOxsz3B98U0KrcEdP0qIzMzgYH0qXcVTceDii4WIkgUN3JzkEnmuf8bB18I6gHYNzEQCOceYtdBFJvYnnnp7Vh+N2V/Cd8o6gIeR1w6miO4NHOfDKTbf6mu7BMUZx+Lf416FKC7ZLt7YPSvNPhwQdbvUK5P2YEfgw/xFemhNzAeo6057ijsVpyEhTKbjnlsdPxryrxtceZ4guc4xFGiAD027v5sa9SnLI+xmAVjjmvJrcf2v4shGN6z3e8g/3N24/+Og0QBnqtnarZabZ2bliIYkjDqeBgAVcUlThcFe5pXGQfaq3mFTgDI96gsujBHFKP5VFG20cDrTtwUUrASdqaxGd3SmBs9aRhvGDgg9RRYDz3xv4eFvcyanax/wCiyH98o/gcn730P8/rWh4L8UmRE0fUHJlUf6PMzffH9w+47e3HbnsZLdJIGhkQPGylSp6EdMV5X4m8PSaHeqY94tJDmCXujdcE+o7GtFqrMh6ao9aB9PrTXPbP1rlfCHij+1ohZXrhdQjXgsP9eo7j3Hcfj611TDIHbFQ1YpO5HuIYZPFKUbJIIZT0NIVyw9BTlyOjZxSGGWA5/DNLgEEjrShd3PemsQv1NIoAOOv4VIRu4puM0o4OKAIym3ocetISFOOtSOcUixhucUAMJyOlMzjjHAqwFGPeq8mIyCepoAVZPwo3MpyD0qNjkcVLGu4buuOtAibcWXBb8MUqFUTk0zYSwZTx6E0rOVl27Rx61YiRpAiAgcelN80OCSDg0SNu4BA4qPyDnjnvmk7gNKHJxyPShpFTaoRmPf2oz5ZzycdqbOrtskUcd8UhlpN20HnnnGaeCCeOtVY5iMcHGPSrCNu5zz7UADrznmot7ewH0qZgW+tRZB60gFAz1xRSYx070UAUC3zZBP8AhTxKxGOcU6D/AFexqGZY2IAOKoQ5U+Xd6DNQ73dwC+ADzgVJGxZjkEqeDUbIYpGxjn1piLCjbgilHJqqkzAYJz2qyvTpQFijrVsLvRryBV3s8TBQR3xxXmHhe7FtrNvI+MMduW6jOa9clVSuGz07V5Brdg+k6zNAUKxE7ojn+Hr+ldmFakpQfU56901I9Kv7+PTrF7ibBA4VehZvQV50Uu9a1Xao3TTv82OiD1/CovtN3qLxxEzTv91F5YjnoK7/AMO6AukWgmuObqUfMP7oz0rTlWHi31Zm260rdDRsLSLTrOO1iACoAOB1PrUx6496Vxu5A5FIpzwetedJtu7OxKysRvwaej4HWhh1zTVUHk0iiVSG6VHIM9+RT0XFP2gnGM0AVwu4DHX61P5YU53YHXmnCMIeBg0zy2YktzTsIkjbdUh5qFfkIA/M1MB3oATGDQQcZoPtSj7uDSGRgDOa858WOW8QXPttH/jor0jHNeW67ObnXbtwNw89lA9QDgfyrswa99s5MU/dSPQvD6bNBs13ZHlBuRjg8/1rSIzjFV7OHyLOCIjaUjVMfQYqxXNJ3k2dEVZIADn/AArn9X8X6VpUxt5JXmnXho4QG2+xPT8M5q34nnurfw3fzWQbzxHgFeoB4JHuBk15XoXhq/19y8JWOBThppOn4eprooUYSTlN6IzqTadoncx/ELS5DtaG6jH97YDj9a6Gz1C21G0FxayB4ycZB5BHb2rz698CX+n2zTxTx3KJyyKpVvwHOfzqt4Uv5rPxBHbxnEVwdjjPfsfr/jW08PTlBypvYzVWalaZ6t2BqK6uobK1luZ22xxjJP44H604EhATXEeN9XD3MenxN8sQ3S4P8R6D8B/OuSjTdSaia1Z8kbjR4yuhrdtCiIYZZVTy8ZY7jjOa71Tuwa4jwbo8Nwv9qXEIdg+INw6Y6t/h6YrtxjoO9a4nkUuWC2Jo8zjeRIdpGNvPrSlUbnoaaR0waQ9uK5jUdgCmOpydqgE98UrZFLnuenegBrMVQgkY9SKiVthyRwe9VNYvrXTNOe5vJzGin5QBlnb+6o7n/J4rzjVvE1/rTLaIGS2Zgqwx5Yvnsx6n6f4V0UqEqmvQzqVVA7HV/G9lYsYbEC8mHVlOI1/H+L8OPeuPuNQ17xPcGBTNKvQxQjbGo689u38Rrd0PwMWUXGqSYVhlYEPOP9oj+n512MaW2nweWixwRDgYARR/St+elS0grvuY8s6msnZHn8Pw81SSMSM9umR0LnI+vFUtU8J32lDfLh4sZ8yI5UexyAR+VeqxyLJHlHV1PRlOQaSaGO4heGVA8bqUZT3BHNKOMmnqN4eLWh534T12bTbxNPnYtaTNgZ6xt7exPB+tejgDvXj99C1lfTwc7reYoCepweD+Ir1q2mM9vFLjiRA4x7jNGMirqa6hh5Ozi+hT1zWbXQ9Oa8utzLu2IidXbsB+AP5V51qPxE1K7V0t7aC1U/dYkyOv0JwP0rsvGmiXGt6KI7TBuIpBKkZON+ARj0Bwev8AKvHRkgcdaWHpwkrvcupKSZcuNRvL5993dSzHOcOxIH0HQfhVlDdXMkMNkkspHO2FSxJ78Cu+8I+FdKXRrW9ntkubmdN5Mw3Bc9AAeB0HPX3rr0jjjAWNFRV4AUYFaSxSh7qRCotu7ZWsWuU022juVAnESeaSc/PgZ/XNXU6YJ5qGXeuG9TWdrWq/2RpM98Y/MaMAKmcAkkD+ufwrgScnZdTo2V2bOMU7II96830X4hXAuwmqqjQt/wAtIkwU/DuP1r0JJUliWWNg8bjKspyCPUVdSjKm/eFGalsSE4FcS/xItBq/lLbFtPUlTOD8x/2gPT269/ar3jjWRpmhNBG2Lm8zEg7hf4z+Rx+IrzbQdNGq61aWZXdEz5l7fIOT+nH41vQoRcHOZnOo1KyPcSvUEnjvTQmRkkk0udxzQM5rkNhwj+XAFcV8R5L+HSYDbuy2pkIuCmQf9nOP4ev44rtt2BjuKr3CLPE8LxLIjjDKyggjvkGqhLlkpCkrqx4dp2rX+nOWsrqWId1VvlP1Xoa6G38c6yke2RLaU/3mjIP/AI6QK6K48C6RdszwLLbSDJ2xN8p/A5x+GKpP4EWIF/7Q2RoCXLxjCj1JzXoKtQn8S/A5ZQqx+EksvHl26hZrODYuMkFgfzya67SNYt9Zty8I2tGcOpPIryGYqGdIWLIGO1sY3DscV6H4C0me006a7nUo1zt2KeuwZ5/HNGIoUow5loTRqTlKzOslOQAW6etIBxinMikYPP1NNPHArzmjtQgjUAlSTzzSIc44PNCjBJ5560mVXgdR61IDiGXgkc9qbjMUjH72081H5e6TcxNTnIicjH3TxVREzzOzcPqtquSczxtjpj5ga9AcZlc5xya4KxjVdZtTgFVuI8t/wLiu8fAkbPdqqoTTLMY+Rakz2qJclRz9Kk61kahjjBpxwBRgfjSEgHDdaGAgHGKRsgcDilOQRxQDz7GkA0fdBxijBBz27052AzzTWJHfHFMByndyO1ISpY56+tNZiCAOlK3C8oSO+O1MTPJbn/ib+P3j8tWEl8IivYojYP8A46teuFdqkheTzivIPB7vc+NLW4b5mLSytj3RufzNeweZ5idDmrl2JiCAgj3HSuX8Y+Jf7KtGsLWT/Tpl5I/5Yr6/U9vz+q+IvFEOk24hhIkvmHCHpH7t/hXHeH9CuPEl+1zdPK1qr5lmY8yN/dB/rQl1YN9DS8DeHluJRrV4B5MZIt0PVm7sfYcge+fQV6CzsPnAyB2qOCJIYEiCKsaABVUYAHYVJ2HapbuykrEqygx5UE+o9KCWJBGR7etRQnaj4H8VSI+WwfxxRcLEhUnknkdBUaKIY2VFDN709chgMZBPWq/7sXpUk+YR17UySxFPvUq3DelRtHtOc/ialVMEsQCfWhwrcMSB6igaIlXeTgjimSSAtjv+lSMFSMBevrUD/KfaoZQ9SRkj9KztfUP4c1JDk5tnI47gZH8qudR6UpWKRGWU/I4KsPUEUJiPN/h86J4kk3kDfauF56ncp/kDXqg4AIPbivE5kufD2oSPC+J7OYqjMOGGcZx6Efoa9gsLlLy2iukb93KgkXJzgEAj+daS7kRMrxHerZ6Rd3BOHCFU9dzcDH0zn8K5D4f2ButdlvCAUtI8ck5DPwMfgGo8eahdQa3HYu3+iSRrMq8cHLDIPWur8D6b/ZugrJIAJLpjK3HIHRf0GfxpLSI92dJt/EUMuehA98U7AHAp2BUjIwCMU14ycFMkdxUho5HTigdyPaOhzT1C7goB6ZpjuVUkgkj0p6sHjyOuaAAcjkVXvbG31G1ktrqMSROCCP6g9j71YY85xgGkzngUhnj2u6FdeHtTUb3Me7dbXI4PqAT2Yf0zXa+FPFqasFsL4rHfAYQjgTfT0PtXR39hbanZyWl1GJImGDnqD6j0NeU+IPDl14fugSWktC2YrheqnsG9D79/0q7qWjIatsetyOUYKFye/tTlOVbpkCvOtC8cS26pBq2+aIcC5XlwP9od/r1rubXUbW8hEtrcRzKRn5GBI+o7VDTRSdy2j0pAY5xk1HGOM+tPIGKksch9TSkj1xTPpRtJ7UASL97A5zTsA9BimKeQoFSdOKBDT9KjljDipjxSHPYUBcq+SQOtSR5U/dzUnbpSRimgbDkKSAePSgdNztkH1pxbZx61BcKUhdg+FI6VTJEZtsmcZqUyjlckZHSqMUm4dTmrCsPQ5NRcoljhDdTipTGCuzPTvmo921D0pqSgDAx1pqwAdh+UNhh61NEdkeCPm9ajDhjgkKT+tG9UGGzQxE+4kVH5Yc9aSNs85wKkPBzSGM2EDnOBRQ75AOcAUU0gM5GKj5Tip4xuYsRk1VjX3qxv2JhRnHehCJshWOPxpJcEZCbj9KgSU55OM96VZjjJbK/SquKwCJTMG5x3FT4IPA4znFMDIvzUCbdzQA5xms/UNJtdTRRdQrLg5G7nHGP5VpNyowRUYO04xxTTad0D1RnafpFnpgzbwqhXv1P5mre/L5Y09mBOablXGAeR1x2pOTb1EklsOZcYpjLu5B2kd6cocD5jxQRnsaRRCytxnketIvUehqaT7vBpqHPBosA/bjPenL1zQOeD1o24NFgH9Tk0E9hQenGaaCFNAAynqRVO/wBb07S1T7bdJGz/AHVwST74Hb3q8zEoxU4IBIJryFm/t7xDGbqQhZ5xu2/3c9B+FdFCiql29kY1avJZLqeupIrqroQysMgjkEU/HFRoqqAFGFHAHoKc/asDYp6lqA0+wmueN0a/KG7nsK850O3a/wBetkY7/m3tn0HJ/l+tbfjLVAzJpsLcKd8xGMZ7L/X8qk8EWDfv791G0/u4yT6dT/n3rupr2VFye7OOb9pVUV0Ow+tOQ5+nrRjv2oJxxXCdhIQhUqeQRgg0xY40XCKFHoBimZ/OnBweadxMp6pefYNOuLvKARIThgSCew/HpXmHhO2N54ktiw4QmRj6YHH64rp/iHqRis7fTomIacmSUD+6CMD8T/6DUHgWx8iwlvyP3krmNc9lGM/r/wCg1201yUHJ9Tmn71VLsdTqmox6Tpst3INwXhFzjcx6CvJl+0apqKxKd1xcydfcnJP9a1vFniAareCKAkW0IwuD99u7f4e31rT8CaPw2rzoDuBS3BHT1b29PzrSlH2FJzluzOb9rU5VsjuLG2js7OG3h4SNAqj6f1q1g569Kj3hQOxoWTdnIxXmttu7O1KyJS3IGeKTcRSAAHjnNO2gNnHNAMQOSMGqepapDpGnvd3J+RThVHV2PQD3q25CqWJxgcmvJvEmttrmqkxsfs0WVgHqO7fjj8sVvQo+0l5GVWpyLzIr281LxLqal1MkzfLHEnCoPQf413Wh+GbbSrUO+JLv+J9vTnovt/P9Kk8MaKulaeJXUfa5hlz1KjqF/wAff6Cti6uIbO0luZ5NkUSl3PoB7VtWr837uGxnTp296W5ma/4ij0GxEsgElzJxDDnG71J9h/8AWryq+1G+1i4a5vJ5JmX1J2oPQDsOlT3E134l13OCZrh9salshF5OPoOf1r0n+wYdP8JXtjaR75mtpMtj5nfaf/1CtY8mHSvq2S71Hpsc58O9Qlj1GawJ3RSIXAJ+6R6fh/SvR84Oa8n8BTW9p4gkN3KIpGTyY0dTkuWH5dMc+ter5JwB1rDFq1S5pR+E8p8Skf8ACR6pgDBdGxjvtFeg6VI66VZKB0gjGP8AgIrzDUZGvtcv5VO5J7tkjI7jJAx+GK9bS3CqEBO1QAB6ADitMVpCCM6GspMmWTcQCOa8IvoBDqN1Cp+WOZ0H4EivdhGR3/GvFNXUDX9SHb7ZKP8Ax80YLWTKruyR614dYDw3paDHFpH04/hFafSs3w8pTQNOBIP+ixn81BrV6D61xz+Jm8diNySuOo96o6hYQ6jYva3Q3QzDaQDgjnt71efOKhcdGAqU7O6HueQ6/oU2gagIWbzIJMmKX1HofcV0fgfxEId+l3swSEK0kEjnhcDJX6Yyfz9a6jXtKTWdHltWX98Pmhc/wP8A/X6H2NeSbHidkdSroxDA9QQcEV6dKSr0+WW5xVL0pXRf8Ras+u61Lc4PkqfLgHT5B0P1PX8fau08BaKLO1k1GYATXHyxj0j9fxP6AVy/hnRV1jVhG7KsMY3y+pGeg+teqRxBNuFVUUYVRwAKjFVFCKpRLoRcnzssDg1n6vrVto9sJJjud/8AVxjq3/1ver/tmsHxTocusWkL2zL58JO1WOAwPX6dK4qSi5Ln2OifMo+7uM0bxjZaxetZeW8Fy2Sik5D4GTg+wBrbmcqp5PPFcn4c8GPpuqx6leXCGWPdsjj5HIIySfYnjH411k2GQnOBmnWUFL93sFPmcfeKynbg5xisbxVfyW/h6QI5BuZBEdvp1P54x+NbDj5O+K47xjJ+8s4QeAGcj64A/kaeHXNVSJrO0GZ3hnSf7Y1hYpBmGJDLID3AIAH5kfhmvVYXyuCenFcV4CHlwX0oAy7Kg9RgEn/0IflXXQJtXJ+8eprXFT5qluxnQhaF+5ZxuJzTZU2RZHWnLKBwR+NMnBYoR1B5rnZuKpOzPrUZQgjHNPGMUpORkVAwU4OO9K/+qkH+yaamM89adIcRuR2UmqiJ7HnensJdRtNuNpnU4z713TAeYwPXNeZ+FVma/ilc/umnjIGcjJJzj9K9L6zNz1aqqEwJhxipAeajKnOQcU9RwCayNR3OetJ/FnrSgc+1J34OaYhM8mkBKg55GaXI7nFHmDHyj8aQhm3dyTUm0Y600ZIz+tPCjb3yKYAoGARzjoaR9zLheppXPyDHU9qYpZjtx/8AXoA8f8FyrY+MLZbiRYVUSxuzsAFIRup+oxXYeIfHEFrDJa6W6zTngzgZRPp6n9PrVTxF4AlvtUkvNOmii8075IpMgB+5BA79frUmh/D2OG4jn1a4W4UHPkRg7CQe5PJHtgfjWrcXqRZowNB8O3XiS4kubh3S13ZeVuXlPsf5n/I9NtbaOxgjtoI1jjjAVVUcCrcMEVvG0MEe1MfKo6D0xTWjlIHH1qJXZS0Glj1pCx6AUYO3B7Uw1BZLGQYSO+eTUe7uByDUsJAiIwDUYXLcEAdTmmImjdsHk896hu1dNkxXfjggelOXlW+YEE9qnbDxkBvmxxVC6leJ2LnB2q3JB7VM/CZJ+9wDmoIXO5F9sVZaNdq8cUgY1YsNkfiKY8J3ZUZFToQCVH60859sYosFyskar1+96elV5gTMFJyPQVZxtYtnOarOSZMnGal6DMPWvCdjrdws8zzRyDhjGQNwHTOQa247ZLSyhggG2KNFiUZzhQMD+VSFwR6VEXZeGP4U7hYiubG2uoIvtMEU4jbKeYgbafbNW4m2AZwB2Apg2lD83OeKmhhIO9ySSOnagCYEk5p1J2oPTGaBC4oJprA9j0o6jNACZAbB60LwSwA98UEZGaM45HFIdhS3mKFwMDvTPujH601oxsICdeuKhkdraIySNiFeWLnG0euaNwLA3EHHFQywxSxtFKqyo4w4YZBFVrPVrDUfMWxvIZ9v3hG4JFXCVAA9KWw1qcFq3gRhK0ukyqoOT5EvT6Kf8a5+bTtY09tkdlcJcno0YJx+Ir1xQGOadtI9jVKbJcTK8PPqP9gWo1UH7YFO/cBnGTjOO+MVqgk8jmlB29OT60zGW3dAeozUspEifMOn40kkmwhQC2e4p5O0ADpSGNVYM5/AUgERwgy4x9alB3DjpQGQplufY01WAxhDj60wJCvHrQQccDP0oDADnNN8wBtpGAehFOwEbyELxgexqJJWOADzT7mMcEkk+tEYBGFT6mgCxw0fSoJFjkTawyB271YCqY8DP9arBRuOck0xIgKRgcDbinI+5eAKJEy3Q0scTgZAJHpipZQrDdik8pscEfjT244HBoKkY5qRkBSQjoCM9M1bSIPF8xBbHQ00NtjKgDmlgcqxLD8KaExAu31BHbNSmVCMEc0nHXjnjmjIB7fSqsIRwdu7BPsKKcWyeelFCC5lRHJ4qbBI5xyO9NjjTswNSDng/pSGJ5SYySc+1RFWI45AqbGefSlz+7I7mhCFgjBX5iM+lDRZYnoaahMbEkGpuGw1UA1CqDDHrTWwSQvNDLlgCOKcMAAAYoAjIwegzTduMkDGeuKeeG96O9IBuTnFIevP60rZ/hHNNwT1oAdgd6QAg8Cl7e9Krc4oAlRgrcikY4PHTrzSDBOKDnB9KYhN2efWot5Uk4yKlXBppIBpDDKyRFWAIYEV5XeWkujas8MgI2tlHxwR2Ir1QAk9hWfrmj2+s2hjdQs68xy/3T/hXTh6ypy12ZhWpc6ut0Y+n+L4kiC3schkA+/GAQ34ZGKq6v4ymuEMVhE0KEYMjfeP0A4Hf1rNHhfWYZzH5KSp/eVxg/nzWpZ+DpSVa9lCqTyiHkj+ldDWHi+YxTrNcpz2m6Xc6xeeXEOAcyOeQufX3r0y0tktLaO3iXEcYwoptpZQWMAgt41RB2Udas9B1rmr13Ufkb0qXIvMdkYppOcGjFAGT1rA2MjxBrsGh2oeRTJM5+WIHB9yfQVzVl8QYvNC3Vm0aE8vG27H4HH86zPENlq2reKLi3W2kZt+1CQdoTsd3pVTVfB+paVA9y7QS26ZLMr4IA5yQf6V6FOhR5UpvVnHOpUbbjsiLxZqqarrLXUMpeERqseVxgY6fmTT7nxTjQrfR7GNoo1jxLIfvOSSWAweBk/U/nnnXbd0BpmDXX7ONlHsY8z1fc3NA0SbXdSWLDi3Qhp5B2HoPc//AF69dhiSKNYo1CxooVVHQAdBXnuieMLfTdJjtk01Q0f3ysmA59SMZ/Wuu8Oa7/b1nJOIfKZJNhGfpXBivaSd2tEdNDkWi3NVxyM4wPanIMDNYUHiRrzxNJpUFvuhiRvMkxyHXg+2O1bQdTJsLDcBnGa5ZQcdzdST2J87afuJGc1ErZ4pdwzUFHP+M79rLw/L5ZIedhCpHbPJ/QEe2a4zwbp632vIXUlLdDLjsSCAP1INdD8QSxsLQc7TNn8cH/GuS0XU7vTNQgFu2VmlVJECglhkcD/PXFenQi/YPl3Zw1Wvaq560rFWwOnrXJfEC9WLTILKMZe5k3Oeo2rg4/Mr+VdYOm79a4b4hRky2Mqr8uHXI9cg/wCfpXLhknUVzes2oNh4C0tRFc6kwBbd5CdeOAWP45H5Guk8Ta2NG0WRkdRdTDZAuecnq34dfrgd64PSvFd/pWntZxRxMoJKM4Pyk9fr3rJurq51C4ae5laWVjyzH9B6D2rreHlOrzS2MPbKMLLcn0eyl1PWraAO2+SUMz7vm65Jz69TXrGt3/8AZmgXl5uCusZWPj+M8DA+pFch8PrVBc3dw6AuqKiH6kk4/IVS8da8moXQsLds29ux3t2d/wD63T659qKsfa1lDogg+Snzdyj4RsjqHiC1jJ/dwHz2x/s9P12j8TXrXtXJeAtINhppvp0InuwCgI+7H27d85+mK63gnniufFVOedl0NqEOWPqAJzxXiM8pu7u4uiMmeR5OnqSa9i1S6NppN5cJ/rI4XZP94KcV5Ro0Cz6vZwlNyNKgZfVcjP6ZrXBqylIyxLu1E9ftYVtrWKBfuxIEUewGB/Kp+1Rqc08HiuBu7OvoBzjGKiKn0461MT7dKqX9/Fp1lLdT58uNdxA6n0H58UJNuyBu2pkeJ9cXRbIpHg3kykRL/d7bj7D9T+OPLlVnlZmJZmJYk9ST1NX767udW1GS5n3PNKeFUE4HZVH+fzrpLjwqLLws1zIub5SsrADO1e6/gDkn2r1acY0IpPdnnzcqrbWyGeAwItUuUJI3w5+uCP8AGvQiD+NeY6LfwWOrWk0svlrkq/PUEY/ng/hXp6kAf1rkxcWql+50YZ+5YQjGD0pwG73NNklhjKpJKiu/3VZgC309akA+WuU6LkOQDyKikUHjFTkc8dKNvynAGaQFRIWk4IIX3rhPGI3a6qf3IFXj6sf616ChIDEk5rzrxOu3xBNk5BVCD+GK6sIv3hhiX7h0ngyAxaIzKw/eys/T0wP6V0idfesTwcc6BGvJ+Zwc9vnJx+tb4QBjWVXWoy6fwIaR27UvJHTNBwTSAnGMVmaAWBAAp44PWm4yM4xShQpzSAXblqJRiCQdtppBkdulOk/1Dk5+6aqInseeaYojeyj8vy1WaPheB2/rXcdJWHTmuJsJ1W8tix4aRCpH1xXa/wDLVgexzmrqEwLGdq+tKPlUknmo8jOM1IOW49KyLGqxA64A65pBuQnHQ0pORilX0PbpQAwkt+NKqHHTj0p4BAoUMsg4yp/SgYqhgrBRkgdKcCVU7zSsD9oLLuOOo7UrxFwCDj1piI5eArAckcU5Hw6hjn3FKVHlg/eIHApsWZCS6bT7c0DI9pMuCDtPc1MFWMkbhnsM0wOSdoOcVGxLHPcUATGYqBx16+1So2UJB61TLbhUqSptZScd6ExNDHYByMjimcMBnmkl4bOQc9KCKRQ+NVBK59xRuDlWUfU1GjfPg5HFSsuSQMEY+73poQrAE/uhwOuKftZRu6DHSmK+2FnGRjpULFiv3jz2oFYsHOxSMYByKn3BlABqhEwjO7Jb1XtUqSGRt4OwDoBTCxawCOOtNBOOtMjkOe5HrUv3+mCKYiNhgEVVwNxyKuTEIhJxx71CoDAbxjPTFS0NMhZehA+ooIDjA61O8eBkUxFKHeSBipsO4lugVyGHPvVpjxwahLKMyDk05HVyMHrTESdB704c03nPGMUZwKAHdKZnFHm4ByefSkyO/FA0Bb0oA3Dj86iDFm46U8E5pDHfdrnPGtjdah4cuYbQFpflbyx1cA5IHvxXR9aQ7WUk4oTsJngWl6lPo+pRXltkSRN8y9Nw7qa9rk1C2GjHVwzPbGD7RlRkldu7p64riPiLoUcRTWLWNVBxHcqo79n/AKH8KtfD2+OoaTdaRcDzVg5CHvG3UY9M5/76rWVpLmIjdOxLovxEtb3UVtbu0FpHJwk3m7gD2DcDr613IHOCK8d8VeEm0Nvtdo7S6fI2Mn70R7A+o9D+fbPY+AfEzapbHTL2QNeW6ZR2PMiD19SOPr+dTKKtdDUnezO0Kj0qPGOadv7ZppbsKzLHI21snuMUFe/NIPrzTxnb70DIpJI4YnllbaiKWY+gHesLRvGNnrGrzadHFIjIpaN26SgdT7dap+O9YNhp6WcLgTXJ+YA9Ix1/Pp+dZvw809WludWZQuP3Efv0LH+Q/OqS0uyG9bI9C2gtmh/XtSA4HPWkY5HSkUOCq4GQCKVCuPlX9KYM4GDimHPJyRRcLD3kEfQ800Es2SagaNgM7t31p+GMYAOG7UrhYkcYOS1RKZAQd2Rmn+Sdq7hmmsPLcM3A9qbBC/efLHNPIJHYCmB1Z+ByelPDHHIqBjQPlxxz3p5DAYHNNPAHFPQjIz0oGG35efu/Wo5HKFSoz7YqRxwdpqNGZOvNUIY8hSQcYLd+1FWXAVOcepFFNIRlQnCtt9e9TJ05/Sq+8qNoXk1OrM6ZVaQyRulNpBvPU9KXdjjvSAViTTkVmxkmnJhk5PNRy/d46fWqELKwjK7uaiaXkdhSqqyMA3Jpz2ykYJI9KAFBBUGmtkYweRTVIHAHHrS7uOBzSYCkEjjrTihwKVTx707PFNAR7dvI6HrS7iANgzSnBpU+VsEfTFMBXVldXXr6U6R1UHHLU5vWo5B3GMUxEMbnPPSpSAelRlOQy/pQpO4kgjn1pDJcBRSdgaByOvNLSAN22M4GTSYJ/Cl6UE80AMU4wTxSMwFOK5UkkVXkYZAB5pgTB89qXdkYpiHnB/OuV8Q+MxZO1rpqo8wGHlb5lU+g9T+n1q6dOVR2iROairs39U1ex0e2M97NsyPlQDLP7Af5FeXeIPEt3rsoRsxWinKQqevu3qf5fnmjNLd6nel3aW5uJT7kn2Fdh4e8DBzHdaqM4bK24IIP+9/gP/rV6EadPDrmm7s5XOdXSOxgeHvDU+ryCSRTHZDO6UYyx9Fz/PGKva/4NGm2Mt3aztJHGAWR0G7GR0I6+vQV6OlssK4RdqgYVR0A9AO1ZfiWVIvDWoMy9Ytg+rEL/WsFiZyqK2xp7GMY6nlWkWq3ur21o77FnbYTjPavT2gh8I+GLya0Xc0SlwXGdznCjOO3SvPPDcTN4m09QMkShvwAyT+lel+JEW68LakrBeIGkx6lRuH6gVpim+eMehNFLlcjh/CfiS9PiERXcvmi9JBdwMh+x4HTPGPese01K603xAL597TrKfOV8gvz8wP+eKz7K4NpqFtcYP7mVJPyOa3PF1ibLxFOQDtnAmGe+7r+oNbqEVO1t0Q27X7HqtpMtzDHNCcpIgZT6g9KlRWDkNiuc8ETmfw1DuJPkO0XJ98j8MMB+FT+KNeGl6WyR8XU+VjOeVHdvy/UivN9k/aciOrnXLzHN+NdYivrn7DAVMdu2WcfxP359B/jVPweLY68i3CBm2Ew57OOf5ZrO0XTptX1FLeMgAAl2PRVFCGfTNSBHyz20v6g/wAq9NQioOlF62ODmblzs9a+9jniq99YwajaPa3Sb425x3B9QexpNLvV1KyS6jYCMj5hj7rd1/CrSFJPnziMHGc9a8qzi/M9DRo5CP4eWck7ltRn8nPyoEAb/vrp+lV/EfhiGw0yCWyhKrCSJW6lgejE9+n613jkYAUcYyCDUbBHQq65BGCD3rVYiopJt3M3Rg1ZI8ji1W7sYpYraUxCUYYqeT9PTr2rR8LeFpNWuVvLpSthGwIB/wCWxHYf7PqfwHt2qeF9IWQzCwjLA5wxJX/vknFa6P8AKFC4AGMAdK3qYtNWgrNmcKDT95kh253YIb2pXRmGVPPpTR05p6luvTNcR02Oe8YSNF4ZugSVdwijHf5xn9M1yfgyEyeIYmH/ACyVnx68bf8A2auk+IDk6JboP4rlc/Ta39cVj+BYT/aM8o6LDtPHqR/hXdS0w0mck9ayR3yja3PWpQQeM1WDkE9xUycgHHNeedYrHBGBwa4TxtqQluorAMAkR3MP7zkcfkD+vtXe5wK8z1Tw3ql14skYQuYpJS4lP3Ap56/j0rqwvKp3l0Ma93GyLfg3Rhc3LX8qZjgICe79c/gP5iu7bk4IGO4qPT7OOxsYbaMnbGuOep9T+eanK5BNZ1qvtJ8xVOmoRscHqXgKW71Tfa3Ucdo5ywbO9B6DjB/T/Htbq4jtLOa5nYrFCpkcj0HPHvUx4HSuV8e3xg8PLbKoJuZlVs9lX5uPxC1SlKtKMZA0qabRxM1zeeI9c8wlvPnkxGoJPljPAz6D1/GvZVbaqqecDk15p8PbMTavcXjAYtogq+oZ8j+QYfjXpIq8XJcyguhFCLs5PqLkUhGe+BSZ3HilOMVyG5FMSVGwgiuG8X2rQ6jb3B4EsRX/AL5P/wBkK7sgg8CsLxZZm70VpAuZLc+YCOuOjD8jn8BW+Hly1EZV43gyv4JuFbTrm1+bzEl357bSAP5g11MQ2oQWJJ9a878MXv2HWIyxwk48ph9SMfrivRRyD/OrxMOWpfuTQlzQGtwacpFNI465NV5jIFDRpuA+9XMblguN+AcmlPPBOKrBwGypzxU6sAQR1pAAkIZkYjK/yp8p/wBHbn+E1HsG8lVwW5Y0jZETj1Q81cRM4bTV829sgwAHmIR7Ec8enSuy+9K/sa5bT18u5slQgnzEznuMV1Y/1nbrVVCYDyjZBHpQCSAPWn7sDnvTQrDBArIscD29KVRk5FIxyDgAHvgU4LkAgGgaFHDBeg7mnFlB45ppGAc0nXnFAweV2fIbC4xipY3Aj2bag4PIqWJjhz+VCFYVTyfrTyMhjjHHJpiqu7nnNSsvyYxx71SAgjUY3nv0zTSyliMfjU42lMYx2qoQdu0dKTAcynC4BI9aYw43AHr1pVYq2AelDMCB7dvWpGPkAaUErgYyMUj7ccYB9TTYrnYChUnJ4NM8p/M3ZH0piHq23GeVHelbg53cntUZBxu5AoZd+1gfmx931oBjzuEYAJ256VGflb1p6g4XOAen09KRgQBuYE5xjFAhAcKSOg5p42tEZAeR2HeofmE23O3d0zQCY0KsmSRzQUWI+QGxipw5C5UdO3rVaB2lPAIC4z6GrJAUe3YGmSx5VJQCwzUMj7JFCjipQc84ppjJPqKYhHAbDqc03hwV6fSpMAZXFN2KHyGJz2pMZAUIyD931pgbPTilkLZIz+dR5KdQfrSGi0rMMHPOORTGlznrzTDIAuc0x3XHvSGObg5pBK65PUmo9zAZIPJ6EUrfKchhQBbjbKn1qRSKgi5GM5qXdtPApAKWycKeaa7hQMjrxSE5OcYo69TQBXvNOi1HT57aUjbNGyEHtkdfr3ryDwzdHRfFluLjcgEptpwOMZ+U/gDg/hXs7KrYyOleSePbAWfid5UGEuoxKMf3uh/kD+NaU9dCJ9z1K9tIbu2ktnjV4pBtdCOCOn4GvHJI7nwn4n+TJltZMoScb0P+K8fnXruhXY1LQrO8LbnmiBY/7XRv1BrlfiNo/m2EOqxJ88B8uYjqUJ+U/g3H/AqIOzsEldXOstryG9tIbqBi0cqB1J9CM1YVjj3riPh5frdWE+nSP+8gbfFk9UbqPwP8xXa7XAKnt3rOSs7Fxd0SoN34Us11Da20lxcNshiUu7YJwByaSCMhm3HAI4zXB+PNcwf7Ggk3AENcHH0Kr/U/h704q7Buxy+p3114j1wuq5luJBHCmeFBOFH+J+pr1vSdOi0nSreyiGViTBPdj1JP1OTXF/DvRFkL61PG3ysY7X9Qzf0/76r0IEgf41U30RMV1BXBHGKcM/hUb7c5VQD3Ip65xxUFjuoNIeMU1iwwV59aZJKFBUnDYpAO3bh7UKRnHeo4yO9SBgGyB+dAyUEqp3N+dMkKueCOlEnzdKamVj+Yc+tWSCxKgBzn+lSFA4yrmmAF+/NPCtjk1AChQOuCKdwfu4qHy2LcfrUm1V5JGR6U0MVz26GozjA5ANRNKxYkdAaduDjgDePU8UNgSKCcZIPuDRSNnaDtwfSihCKsar34zT128jkGmAZYelPWIg5z0oADEM5BzSlU4Bxmmybs8CgIWbnimA4cDGOtJ7YpXYRr71EjZPJouANmNg2OKexaRB0APemADeAW+lOJIGKYmQhAo4YkCpEwBTCjdRzn0oYMg4GR3pWGTKcjg00tzjORTA2/px7UuQGwASaAHhsjpinxg7t3p1pqrkcYpyghsHimJi/M7e3WkcHOKikd4Zt+GKnsKmDCTkVQrhuAAAHNQyc5IyD/ADp7ffzjkUqrnJOOaQIgR2LY71Mc8YqIqscmKkDcCpKHA/L0pDmnjFGAfemAw47j/wCvUTwq53HORVjI6ECmOU3DHFFhXMDxTqJsNL8mM7Zbj5AQeQO5/wA+tcDY6TJqeopaQkIDyzEZCr3P/wBau38b2U1xpEVxBGziByXC88Edce2P1rkvCGqvFrqxeT5okUgMoJKe/wBK9Gh7tFyjucdVOVVJ7HeaPodjo0JEEQ8xhteVvvN06/4VfV2VwsaDGM57U6ACQZJ/ChiFYhT7HFcEpNu7OtJLREineMVxfxAvxHBb6eucsfNfB7dB9e/5V2SHavI4rynxbcm58Q3ZBJCP5Sj028fzBrowkOapfsY4iXLCxq+AbAy3lxfupKIvlJ/vHBP6Y/Ou01aFpdIvYYly8lvIqjOOSpA/nUfhuzWw8P2sABBMYds4+83zH+f6VqJg5B+YfSprVOao5FU48sLHgBXPrXZeLis9vpF0Mb5bf5snJA4KjPfq1c7qtv5WsX0YOQtxIBj/AHjXTawvn+D9IuMA7dsf5KQT+a13yfvQZzfZki54Ck22l/GXRFV1c5I7g8/+O1zXiHV21bVZp84iB2xD0QdP55/GooL17O1u4Y+PtKhGIOCB3/PpVnwtpv8AaevQrIAYISJJM9/Qfn/I0cihOVVk8znFQR3fhLRhpWkhphie4IeQdxxwKz/Fui/aJDfWoO5V/er3OP4v89hXX7QAAvSomwrEDqwIJ788V50a0lU5zsdOLhyHnugazJpM5jkUvC5/eR54PuPeu8trqG9iEsDq0X8vYiud1nwrteS5tv8AVkZMeQCPpXPxyX2kzb7eR0b0I6/WuucIV/ei9TmjOVLSWx6cnzd6CdpzmuItvG15D/x8WSOc8lCV/wARVg+OEY/Npz/hL/8AWrneFqrobqvTfU65kJAbn3ppbY4O4BTwM964a+8c6gY9lpFFATxvK72A/Hj9Kr+HNN1DWtYTVdSmmeGBtyu5OXfsF9ADycemPXDeGlGLlN2BVU3aJ6SpDKM0oOFqCMkDaPrUqcjArmNjkPH5byLBf4WdyfqAMfzNQ+BFDm9BYjBQhQev3s/0q/44tml0y3mVc+VLg+wI6/mBXJaV4hGgPcMiea0igBd2ACDwT+Zr0aSc8Pyrc45vlrXZ6W222R3uJESIDJZjgAVymv8AjLbE8GkEfdIa4I5z/sg/z9/xrjtS8Q6hq8mbmc7M5Ea8KOuOKm0XS7zWpxDbJ8g4eVh8qD69z7daKeFjBc1QKleUnaJ0vgDUNRu/t0VxJLcRR7XDyNkhjnPXk5/p713PUjIwar6Polto1kLa3UAnl3PVz6mrdwykBec9a46zjKbcdjpppqNmKCMUg4HNJkEA0oIPasixjH2rgviKSW04H/pocf8AfNd/sBPTBrhviJC7Jp0wHyBnQ/U7SP5Gt8L/ABUY1vgY34dnEOogHktGSP8Avqu6HPNeb+Db6PTby5S4dYoZow29jgArk/yJrrvD3iO3143nkRPH5DgDefvKc4Pt0PFXiacudytoKjJciRt/SmyukcTPI6oiglmY4AHqTS8Vma9YNquj3VjHIEeRRtY9AQQcfjjFc0Um7M1b0IG8WaPtZkvVcLx8qNz9OOawdU8doYZIbK13s4KlphhR+HU9/SuROl39jceXNZTIwOPuEg/Qjg1dt/D+r6lJiGwlVT/HIuxQPqf6Zr0Y4ejHVs45Vqj0SMy1u7ttRt1jYtI0qqqjuSQAK9uMg5x0J4BrlfDvg2HSZRd3Lie7A+U4wsfrj1PXnj6CulchnDDjnGK58VVjOS5ehtRg4rUHZgMgcUisdjBSeeop54GM8U0r6DGa5DciXlgCuB6VZCYGaRUU8kU/JUUCE4z70102W0gBLfKcZ5puACD0PWnzDMD47rVxBnDaY+NTseTgOox+BFdg/D56YNcDoNw9ze2zY5WaNXOfXJ6fga71gpbOD161UyYbE6uGHKZNPPHPTNMGFIA6mnHDk9eO1ZFgv3snpUgbnioSRwAaQNg8mgaLBwaZ5gBpm4ZKnrSgc0hjwvGKdkeWy498im57UfWmMXv6D1qQklhjpj1qosm2UqSSDU4yZI2XoeoPamiQlbbgY696jyM4zTpHRnKkjNR8DlTkUMaGydOOeKZjjmpQRwQRUe0E4zipANocZAw4708lmRXHDdCBTUO05J4qSMKZBtz74pgNBcr7j1o2KxVk6r94U9/lmwefT2pAGP3RnHXFADTKjHJBBHOPWo9wZ93TnNIMMenTt3py/K4YLkdaAJJ1ZuvQngd6jWBuRuGB2qXzTIxbv2HvTZmZtgRdre/emIehMTI/8LcYFTEg5GM1SLytjIXYvYdasqdy8AdKAJV+bgNx3prsVA+bB6imooVuB1pLgISGIJI9+lMQ9GLcsRk0mN5JznHcUsaq68HOPSnIiRjvQIilUlCeA1VmMjZHmNkds1cmcqBhcntVNyfPLNgeoHepZSDLZwcHHqKepGQQq8d6aSrAEZB70rcAcZz0pDAozcs5NO8lM8t+IpPmx9KYrHfQBYWN4+2V7GlZ8DBqGTO3crkEDpQJWd1LY9KAJ1KsMin7V696jIVh9KcpG3A6UgHM4xXFfEnT/P0W3v1+9bS7T/uPwf1C/nXYmPIwW49Kr39kmoabcWUhws0Zj3DtkdapOzuJq6OR+Gmo+fp91prkl7d/MjBP8DdQPo2T/wACrs76zh1Cxns5x+7mQo3GcZ71454cvZfD3imF5yUVJDb3A6YUnBz9CAfwr2tjkEYI/CqmrO4ovSx4nod3L4f8UQmfMflzGC4UnHy5wc/Q859q9leTyWIlRlHYnkGvMviHpZtdXTUEQCK7XDf76gA/mMfka6LQvFVr/wAIaLnUZ/ntR5DrgFnYfdwOMkjH6+hNOa5tUKOmho+I/EUejaazIVa5k+WBD3Pc/Qf4DvXmOk6bc+INYFsHLMxMk8rNzjPzMT6kn8zUeoX91rmqmVlLSyNsijB4Vey/4n6mvUvDGhwaLpnkqEa6fBnlUn5j6D2HQfn3ofuLzD4mbltbw2ltFbQLthiUIijsAMVJ0pntn8qkUZWsjQQAU8HpTORQpzQAkrOANrYpgTzx82Nw/iFEysRkHpSICR0AoAf5DovqPanLG3U8YoRWJ5Y/nUkjIF2vTQrjC21DtAJ7E0iMxH7xh+FIoQp8hJFRgseGGKGBKWUfdyfegO2elNCjsacFIwc8GpGSjJAPamSgE4NL97AANI2N2B2p9BEDJ3BpAdp4qRiQeaTAPOKkZIuHT5xRUYYDtzRTCxCHB6LShzjHIFNGOtPA+YEnimA8AkClYhVA4Bpgb+ED8aG+9TEQyKScioSTuqwzZHSoyAec1Ix0Tdu/rTnzj1zUacNwBUvXv07VSEMRiAQaftycggio2Ukt0PelhJXg4C/SmJjlRQ5x1p4UZzSEqp5pRyflIoAdvAHzHGKXcT0HBpjLlhmlJOcYpgPIA4z2pn3RkdKazBOcilWTIweBRcVhxcEcim5wcYpq8E54HrmgSge+aBiSBWB6k+gqMMR16VMrAOCCOtEgBYHigB4IKillIVe+aYHVUPHXpTPMYEbufrSvYBeFAJz+NRtIWOcYoaRix569KbtwOTSuOwpYkEEnB96iitbWBmZII0Z+WZVwT9akzg5pwOR0ppsLC4RYuOp6UwEHoKezZO3AxQEAPSgBw5HNeWa9ZS22v3ayKcNKZFPsxz/X9K9RYEdD+FZ2qaRb6rCEnTa6niReGH41vh6vs5XexjWp88dDjG8aX9nYpDHFEWQBRIw5wP0zXVeFdSv9S0RLi8VfMZmAcDG8A4z+eR+FZi+BbTeWnupJwDkIFCA/XnP8q6u0gSCBIo0VI0UKqqOABWledJq0FqTSjNfEeX+JrEweJbxQOHIcfiAf5mtyOCO9+H20p+8twX3E/wB1iT+maf43hFvepesNyvHt445H/wBbFc8viOSDwrNprRlZppT8wGAIyB+pOfwJrpV504OPSxhpGckzn5G+Y8c16n4S0n+zNGjE6AXE/wC8kOMEZ6KfoP1JrzCyha5u41AJJYDA7k8Yr2xEkAUO6lgPmwc81GNk1FR7l4eKu2ScqpPftimYG0OexpeVOM07aWU4wB6GvOOwa6NMFJ24qCayt54/LmgRw3YipwdiYFOV8n5sH2FNNrYloxJvC1hMGYF0Y/3W6fnVf/hCrHOTc3BHoNv+FdIB8xyO3FI4KEHqK1VeotmR7KD6GJaeFNIt2y0LTEdDI39BgH8q3IV2xeUihI0ACqBjApEPORSplSSTUSnKXxMtRUdkRhip5OanQ4GR3qMqM896cn3QKkor6nZf2lptxahgrSIQrEZ2nHBxXk7+FtcF39lGmzGT142n/gRwP1r2TpSZzW9KvKmmkZTpqTucFonw+2ss+sOGGMi3iY4+jMP5D25ruLa2htYUggjWOJBhVXtU2cij3qKlWdR+8yowjHYcHKkZ5HeldN3zAA5phyOlG8j8eKzuUQCZWfahzg4Oas55qBrVTIWRsE9RUw+UEd6Bi54rO1vS11jTJLRiFbO5CRnDD/OPxq8CeeaUHnmnFuLuiWk1Znjuo21xas0E2UZThl7V2HgLSJ7GyuLyYMn2llCIwwdq5+b8dx/KuvaNXGGUEehFOA2gAce1dNXFOcOWxjCjySvcaD6ZpTknJwaRjSMWK4XrXIbC8Y5HB/SnQNhmTPHUCohkKNwqZFBTdj5s8GmgY4Z3Njn0FQIrLywwTU6gqpOec8VAUfJYuWJpsQM2GA/WnoemaYcjjv6+lSLjGRSGO60Me1IGx9KRjnHHX3pAIeop7n925P8Adpqjnnp60l1uaynCY3eWduTxnFXETPN/Cls0E1pKCGeaVSeeMAH/ABNehSF1k46Z4rjtMjC6jaELz5i5OMdjiu0C5lYZ781U9yYAcFgec9aEYZ75NS7BjOB7ZpQoJ24GayLISBtOBTlBJVs9KcyEnH86ULs7fnQNDJGBY45OM5qJZHHQcVMAUO7aD701lIfO088njpQMeHyucfjTweOnNRBQM/N16UvO1QJD7r60AKwJcsADjvTvM8tgMZGMZ96F5LALtx2NBGcYbgdqYiEjDlqcvAwBgE5IqwNjJ9R3qJkwu87etFguQkMM8YBOaeVAHIySOtOX5qHyh6ZoGQNgvtA4pwJVh6rzxS9FBIoXnBOKQDpHJbeCMsOM/wAqdHlkz+dRBWlVwD82cqKlI2xHbweuB1FADvJzcFwDhh0pwj2uuDwOoqMk43k4YjbmnImFDljwaYhRGAGIY4z0NMnBLx5PCjPFMYlZCQ2VNCyErhuaBD1dfL2Y+8etJFknb6UAFVztGM557U2MGXl8bR6dKBllAY25INI6Zzihdsa5PQ1JjIJHTGaYiujkSL0B6cVZXawJB6HFVnRXIYHvmp0YYOBigCJyACCeaqltzKOw4q1OQeg5NVjgcZqWNDQPrUqkMAFYbvQ1GGwfpSBgsme/rSGWSmEI3A+4qFVKsfUU7AI3Kpz7UoSQYJwAfU80wGMe2OaWNTnG3P0FP2gsQTSLMyfLGOvWlYCXyMty+KeNq8jk1WVGDbm61OtAB94k4HtShcEE4oCnseKDkck59qAPL/iLpH2bVU1KNSYrsBXP/TQDH6jH5Gul8Da+dW0sWc5/0mzVYySeXTGFP6YP/wBet/VdOt9W02ayuB8ki8EdVbsR7g15Gz6n4N1zzFKpOoKHIyrqf5jgH8BWi95WM37ruek+MLW3u/DV4Ll1iMK+bG78AOOg+p6fjXjm4gEZ47jPFXdX1zUNcmWW+uDIqZ2IBhV+g9ffrWpa+CdZubKO48pULnHlO211HGCQen061aXKtSW+Z6HU+B9ASwt01S7iV7mdMxhufKQjr9SOvoOO5rrgikkxsAfQ1T0i1msdFtLSaTe8MSo3HoMf/Wq3sPcisJO7uapWRKkhDbXIBzjrVjPOP5VUQk8MuferCbudw49aRQ85PtSBcc04AEZBoJxxQAbdwxQRgcUm7HNN8w9qQx+4Iu4ke1UpGd3+Zsin3BZio4GKFTNAgWQpgdKs8OP9qq5X5hxn6VN6AA5oATkdsChX29uO9P6qQePemFDtyCPpQMcZACG/hoeTnjFQlXzg9D61IF2KKBCZyOvNIDg4NGN3OaGHuc0gF2+lFPRfl5//AFUU0gKQz3qRGCnB70mQcU11IOex5FAEm7DbjjFOdlJzUBYtGFAGakVdo5P50xCHkHNMHXBp5yW9qaykHNIoaeOQeKFYk9acTuGMc0zDc8dKYiVsEcUgBKkEjimFhwB6U4MQOF5PvTuIj8zcdp69zViNlT7xqpIGQhh164p6TZAXAOelCYi43zEMDwetRtLxxTom45PFV7khVJUgimA4DdzzilwB0zTLeQEAGpiCTSGNYFkC56UJHtAB5pduOeaa5IIpgLIxj+YDJp8ZEqBm656VGFB5PSpwFAGBjPpTQmROBvphOTTjwcZ+tMI54P41DKFBwRTJMqcjJHakGe9OzhPWhAQ725AU8U6MnGDxSrycg04tuz8oqhDlGOfSpM96iBCdKUEnvSAk7g0088UgPHNMbfnpxmmA4gAj0qVGyeKgbO3OCPqKeh+T+VAFXWdLh1ixNtKxXB3Kw9fpXldxoGrTak1rHZTO+/aGA+U++7pXsQGTlvwFNZAenf0ropYiVNWRjOipO5z+h6DbaRYpGEVrrGZZsZJYjkA9hWwuw8859amUBAxxyRTNjEAisZScndmkUkrIepbJzgDpmnq4CYA/GocHoetLGrtnripKB2AAHWkjG403IJxtxinQkI/PegC0AAMYzTHAHrinAg+hFRyNu4oEhpbZz6Uv8Qz35xUTZAI7U7cXVMjoMA0DJccBqbzu3CnDI696QemaAJc7qQHjFRkspyM47inBgRkUwHglaBk00sODSnJ5pEik9eaaeetH8qazBcE96AFBx0oHyAliST1JpoYE1KuOQf1oGxp46HIpR1qEnamOnPGKfGdygnrTAe+eKb2px7Gg0hEZPrTd/pTmxmmdTxxQMdy3HU1PHlVCntnOKiSAudzMRj061KGVOM9TTSJYlw4jRcdc9PWog245JIHpTJSXnJ5x0p5IyAPzouOwOCPm/hpqNgk9jUrnavGcDqKhweTGRtP8PekwJc/pS9cVAj4BJBBHapInLAnigCQHBz2olI8hxx900yR1j460x2zDKfVKqO4nscZpeXvtPAb/AJaDPv8AKa7QD5yfftXF6a4W/wBNBwD5oAz/ALpruIxuzn1q5kwJFOB7UMMbW6EcnHcUooPr7YrM0D7wDLQQXZAcY70wfLwuSB7UecQuQvXjBoAJY23MVY4HIwaRmdiOoA9KASRgHIFLSCwDIVVyOnNQbSoB64PrVgjHNNACsSR160DEDFjnOadjB9qaF2kkDgninZPQjrTEDHGF6Cng4TYRkZ700jK47juankyV4YDOOaaEyDakOST1OR7UmQ3J609g2zJ5x6VENpOTwelDAXCkEdqZg4zz9KcExk5FJn2qShFIR1YnvUgB3uQx56imxqXOD0qYMiuzjGTwaaQmROBJGM5XaeD7015GQeWFye9KCEyhyFPPNRtL5iKy56kUMROgDR7W6nvUcmyOTIBwO3pTAzk5z8vpUka7myQKBjYRlJBk7T6dqbHvjR1xlf7wqwHQA7eTnkAU19sco/d8N7UCBXyArn2qZSR+7AJGO9QxRAOS3IHSpwfz7U0BGH2sVxxSocHb70ksiK2D96mBi3QH8KAJZBjr6VXx3I4NTs3A3cn2qIEt1GD6UmMZ5cZPJI9s0khGfk2jHbvT9mT97vzimtHmPcMA56d6QXBZZF601gZH3M3NKp+Q5BNC0hkcgLtk9MVPbqApPeo2TL57VOq8jk8CgB/1pQBjpScilHSgBQcGopCVYY71LxjOaYxA4NADW4Ge/uKgu9Ntb+1ktru3jljcYORyPoe1TtywAp5PTkD60rgYGneENE0mdZ4LUNMv3WkYuV9xnoffrWq4wwCnipnGTiogrdxgUXvuFrCq6Idjt8xHFPGGzxkCo3iUsGDZH1qSPA4HSkMbja/AqSN2AZCflNMbO7PanqAOe1FwJEOOKGIJ60wqc8Hr3poJ3FWpAP8AxoyAOopFHPWkkXkEcUxg33c8E1GjMD2p4PGDSrHz2pCFIbg4qNyw/iIqY5zTG5PJFAEak45PNSA5OTTcLjjqKU9sAfjQBKGIx3Ap5+YdMVCMYzx9KkVieAMU0wIxGUznpSd+amLZGCPxpgA2kfrQA8yCOPB79KKruWzg84oppiZUU9KlVsNk1GuMcdaOaRRYQozZ706XaFyRk9KhjYK3PA+lS53HHamSRAn6H0zSklh6051xjacilA2NlulKwXJIo9oz3qKZ8sUX8adJNxhc896gxtptiQpQAe9NbijODk0jHJ60irDd3IxninbwGzsXP0qM8nHSl+lNCZOHJGSOKbcLmDimhhkDOcVZGGGNvBqhbFCFwrfNwM9a0GKtyp4qhcQ7JMjkU+OQHgGkMtg9qGxnmowexPFOkORQAgAyfSiTIxg03JwKUncP60rgOcFsAYBxyaaVwOTRux3pGbPfgUDEwOtJ0HPSms2OvU0m7jk0AKoxnAp4UBfU0zdxTt2abAAODxQMmm7irE5pwOetADiMil5I60gyRxQDxQIDggj1pIvTtSHODimwswyG6UICwQcCko3e/amnk8GmAvXtTtuO9M3AKetKrggUCGO3bFIjED/CnSdBiowaQxrHnJpwGRntSsvHTPehOTgUAA56ZpSGXrg08Ltzil5HXvTFcjHJ56U4/dBx0PFI6NkEdKXcPL2kYPrQMcHGATS5UHNV1z9Kk6AHvSAkJyCMVHt2tkU5WwfakY5b2oAcGBPOKl3cc81WB2tjPFP83OR2piJGYdKhkiEn7wOd3oO9DE9Qe1C9CTkUCGqSr+9S7sj5qiVcNkZqwFGAQKYAcYJboO1NTavToeRS+Z8wGMfWg8nHpQMXNBOBSbsHFDEYzikIIwWkxjIPWnSbIT0yeoHpSw4HzY56daJNobLfjVW0BsYsu4MTximB92QOvr3pHk86IgDbj3psWBkFSWoEORMZJOTT2wq5UZY02VQhDA4LdqUbtozyaQxDuK4fj+tNCnqARS5JOM0YOOT9aQDZCFK8ZBpw24JQAe1AIHVc07cMdMUANKtIMcYHc9qRlC2spBydp5onm8qEJxuc9MdqUnfaSk9NpHNXETOHsONV01mwT5oGB24ruckMcHBrg9OG7W7IEkYlz/46a71CCxznNVMmBMinGTjNOPzDbQp498UoQNzWZdxqgrn0x1prkNgfrUjHaMA5qIqAMdj0oGEY55PFGef5UrAZOBSAnoaQCqSRkjrRwW9fakJJwPakCHBNAx2Scex4pxODimr6mmsWxx1oEO38nI6U4DnI5AGRUQYEcjnNOB54PApiHFOB+8JBNOYKcHb161GytDzncue9PydhLAdO1MQ2RQDhRw3cVE5IBAAI7mnxTebux8pHABqKXIkxnrwQO9IYqSkEY6nip3XMYyTnPaqu3uh5HareGVSSA39aaBiS58hlAy+3j3qkokVAjgA96myXB7Dr9Kj37HYEfeHWhgh4BC4BBHepPNRFwoJ96rBjyRUoGf8AGpKEEpqUTgx5b7o746VHsQZyxGPSmhWc5HTuKLiLIkWLB6qeh9akWYNggYA7EVEqB4RyDzxTduWOGwwqhD5oi6lgc+2aZC8iJtZcYOKkjZcbSRnvUMn+sYA9eaQIkb5Wzzk0si5jB/io25wSc49acQrDv9KBjYlMiFQw5qGWMwuSrGnSJsPQ+xqQYkUbiNxoAgjkbdg9KkU/Pz0PSkJRcgdaVgG+62GHY0hkiqOpp2eaiRyRjuOtPBzjPekJklIelJmmMxPAxQA/NMY5+tNHBx60DOfagY/bnGB07UMuQKUNinEhlpARkdz1+tNx1IJ5qTbjqaAAaRRFwM9M08dO34UrIpPTFG0DgGgCMHLYxU4GFAqLaw6dRUgyRz+VAhe1ISpI3DNL1FNZTjOKQCgrkbRzTWyxHIoQAnk8Yo3xuxVWG+gBNwLYHapB/Oq4VkJJ6E1KrfU0AOJ29KaeeaccGmsDjj0pAEYUHJ/WhypOR0qF2JPIxjpTRI27BXimBOFH4U8YBxTEdSOKdigY/ce1JnJ5pAKRicelADecn5c0UhbD8cUUXEV1wKYRzjJpu7HFODCmMVQRzUobjFNHIxR7dhSESg/KOaRuVGec0wjqRRklBzTEMPBpxOR1pnSlzx70ANJowAM0p6+1J1XigLDOCODQO/1obg0lABVmBxtwTmqx5pwODkGmmFi0wBGGqnJH5bkxnnr9KlDcZJp3y8460xIZE7NndyakKknAbNMiJjcsfuntinsOjjoelDGGccUhbCH1oC8ZoKgikARkuCegqMnk4pd3JUHK9OKX2xxQMhc4Pc0wsT2I+tSn72BSFcjnNACq3AqZRxzUKkDrxTw27gdKYCkZanY/Sk78DihmxxSAcCKcMYPFRKQeDTgRQIGPao42IY5IP0qTPzYA61FM6r8oGD3poCXcQOBSnJ6D86ijkLLjvU3IXsaAGuPk6ioCxDdRUrAng9KhZF45J5oAmSTjFAGWzTI6kOC2BQA5nbbsAAWmI+G6UrrlgV60ikmQDHSmBYXGOQaU4xikFBGOc0xC9RUTKA+RS598UyQkn0xQAMwLdD9aONmc5xTWfd2ppO3oOO9IZIo3d+KWToMU0ZU8dDQ7EEfyoAYRjGTUqqMA44qMsCee9KGCtjORQJjuOMcUoGTTSPmz2qQDFAhRj8KdnsDTQeMUh4JxQA45JGOtDuqkkGkUZ7DFNcAc0xj+HJzxUbRMr5J+UHrTmAUq2Tk9qjyxYkk4PbNAFhWAHB6UwIHDOSck4HvTEViCSOPWpQDtCgEjrmmSEa7hkDp0pvmlQeME+lDtIDjIFRgAdKTYxwG/DNnIp4457UmcDpRvIIPakA1928lelJk+hJp/OcgdacE7g80ARsMAZpVwcClIIPzH5T3p6gB0QLw3egBiRLK24jpRcFRbSqB8oUjAqTBikcH7tQXWBbT8/wAJ/lWkUSzhtLIbWrDJG7fwO/3TXdouGya85tCR4y0jrt29fX5WP+FeiK5BIPQU5igWaUsenSmoQaTIGSTisyx2eeKQ8tjOMU3dk4pEYF2z0zSAQsQfagSZHJ/CmyDB69aaoIPtQNEqE5684pwbHWmqMZP6UBtw5FADg3FKTleKh3/NSq5zg0CEGefrSjkEZwCaV8kA9+4pmCSMHjvTAl3kEA5I7UpDGIEEE1G7BIw56ngCo45Dnax75FCYDwwzyMHPaldASHbpSZjVyQnI9TSNPvTawBPfHagCVYkVBjrjJNP3Dy1yfrmoXlCRjjnHeq/nZ4NO4WJ+PNJOdv8ASmOgHOeM8U4OIyFP8QBoZiWYFc460hhGiM33unJFPduduMVFGFD5XPoQaVAc88ipYCsKX5tuFOM0pHBxTcFiBnikhkkRWMhmznHIqR0Vxu6nPA9qjZHYdM47ihUzg/lVisLsG7b39M0rBlYYHHSm7CXyDnn1qTcCeeaAFU9qcRgZqJcjOT16VIvJwWzQAjDcpwetRmMqvXOKlxtz6Ubht4IpiuViu1iSPyp6MAelOAY9cEUoAAPAFTYZC2VkJxgGgu2PSnyg/KQOKicGpYxdzZ5NOZxx6VCcAUqsTmgCTeGJOOlSrkrmoo+G6VPnAouAmcinDAHFIaQEAZoAdnJp2aYGGOKXd60gFIpPrTS2MYzQTwcDmkMeo5HrTiT61GjcY707mgBw+tIxxxnmk3HNJuycZoAgDN5h7e1SpChkEvRh196UxbhnIoBIGKAEkYsxG3inAAdBTMknFOBO4LQA4njFIaeADyKPLz3wKQERHTNKQq9qViF6n/69GR9aAISuH+Xv2qZenTmmuCG5FOVsHB/OmBJgGmkUuD1JpD0460hibVJ5PJ96Kiwyvnt6UUAV9g4yetNkXa3FSLjgUko5GBVANU+9SqMmo1we2DUwwKQhrDmm8inNnNMLAEZoAYAd3NOxilPPIFITwKYCHGKTqOKM8f1ppyORQMUoMEnrnimNwKXJNJjK0AInLdafx0xUY+XOOKVTigRKpANKBh89qaMHmnH27UxC+XuPBwKmHyrtAziotxVRSiQMeeDVITQrP2GKYxwoBNPcjAAHPrTGUsPvDNAIb15xSnijZtPLZx6UjH06VNihvUZoIweeKQ5FOJBwR6UwAIXPSnKMcGjJHejP1pAL0FNblcY5pxPFNz+dAAibe1L3opetABnvUUoyd4FSfrRjKbfemhEa8Gpt2DUIJHbOKfk4yR9aYDsA80FA3ekB5HpTh1FAABt4xSEfNntUjAbRzUR9aAAkhgwpASHoO3gdaYWG/wCXOPegC0rjHvSbvWmjBANIzDNMQrDPPNMb7tOZxjHFRdsDpSATPHFPQ7h0poXgndTo2ANAx3Y+lM24bP608uKQ4xzQAhKqMmn7FwSBSIoJLNjA7UpfJwqgD6UCGKe5qTcCtMZSTkDnuKFPGP0oBDwc0vt2pgOelPHvQMeAByOaa3QEGk3Hpijfn6d6CRXZXjOeopibcZfp6UvB6jI9aGKkc9vTqaYyUMZAMKFUdqJZdsWMkHsBUJdmJIAXjApoJPLdaLiHLnqTn605hnocGkCkGlC5+tIBoJHDDFDSfLgCntkrg800JgZFICSPpT8gVGvoKdjP4UwJCFZdpxzT0VVO0dhVfBPbFPiLBmPoOTVIGSMoLHI4qtdp/o83HG01MGd2GeFqpqDuljdv12xMQPXiqW5LOJtY1/t7TnCgMJsA9P4TXbE5c+ma4+w3f2lpbMCu5gRk88oTXZRgY/HrRMUCZeBQwyOOtAHFOCnPrUGhA7eWPmHPpUcTSFiT8tSPEzyb3B2g4qRVVWIU5+vagBEJzggYNS+WtJtA5796dk0AMY47UuARTZGxikDngCkITaVNNBAJz+FS4zimYyBjkUAIrHOKkVQQc8DuahJwfSpD12nrQBFMjPJuH3RwAKdEAjqxHH0pHJUjFJkheuVyM0DsLcYSYsDwT+FRebhwAozUpCy7sdOtQEKCMc49e1MCQtvanbQCDt96hTJcc1Z6pkADNIYBlyC3OD+VTNF8xYcjHSo4UJG78KcJDkhRyR3qhMgDlJV4GD60/wC8CFGMU75d+SpGD3pwZd3TOT1qbAhq5NIeGqVo1HSkLIoGVH1pWHcdGw8rnv1qKQER7QcgVNGPUZB7VC+VYYGAKoRGCChUnnsaAzLweh70SA5+UZ47dqaz/ugpAGO9IZJlg/OSPWpEPJI4FMTbgAU9cA47mmImzkZNRlNxxTskgYqReTz1piZF2Ao27qGDO/QYpR6ZzikMH4QD9ajKgrzj6VICrgg9qAyBcHp60mCKpXd8opfL25wKe6jPH50qqcY7CpKIs7DjoakD5U+tDruGe4pq46elIB4f86U9Tiogp2ZFP+YKD370ALzngU7GRSBsryMU7Py5piD24pM7RzgfSonkGPpxTOo56UhljhlyDT88cVXRjwual3gKcZJoGPx6VHICKBL2PFLtDffyfpSENWVgSP51KOxIqJoB2Zh/Sp41AXGc0AHA6U0cmn4wcVHgqfagCQcUrPkcUn1oPSgCJo8jPH+FMGQRx+NT4GOe1RkjNIBX65zx3poYk8DI7UE84xj2pygA5xTAlAyKax29BzQOOc/lSPn8KBkG87iSO1FSbM0UAVlzv4pSck5/GkH3sg8CnYz/AI0xDf4hzUo6fWo8DBzinK3zbSeaAuDZ9KiZecnipXYjocVXbOaBXJAeMA0hORioQ3OQaeDQAuPejoKM8U3ORQMXOfrTgP8A9VMHrThmgCNhgnHSkDdyae3K0wCmIkVsA+tLu9jUfvTwOaaAfuGKbweaXGBQi5HtQA8Ofwp455FR4wKAcdDTTAbJI442imBuORmnurYypqL5j24oAeGQ8d6QAg4pgjwMqSTUoJI+YZPagBc+9KPc1GMqeelOLYqRgTxmo2YAg559KUnPQUpQMPemkA5CSKRwQQabGSr4zg1I2GIyeaBADkU/kdKb0FODALg96YDWT+MnGKiD4PfFWFI5B5zUDL5bHBHNADg4NOLe9QZ2nGetOwTg/lQBMDu4pGOCABTS3l8E4J7UisMHv70xXFbJ6CmNycAilL454INNRkP8IAosMeDtXrRnmmg5PJ4pSQBw3f1pALt5zjNOL8YIFR7zyRyBSg5560ALwAeMU1QR3oByxB6ikUtzzTFcmUA4ycVJszioA3zZOakEjBMEjJoAUjnCjikQgEqTilU5YEmkYIWJ/WgBSSpyKYUVs4GDj1p2VxgHjtmlBUcjk0ARYYDaO3pUinj6UhznIPFKOR6mgBrOQetOQHHIwvrTyqqoJ5J6ChQXILNhR0NACO42ALyKj4JFI7kHbninJgn0J9qAHgjpTiBgeuaaFyRTyTikIM4pjdRx1pW+7mmg+v50wFVeKdtP4UL7U4fX86QDcE9sCpA+0cCk/Cg8CmApYn0FODHp0FVw/wA2Kk3AjpQMYkjQy+WQSp6H0pL8brG4AHWNh+lSZzTLv/jymO4gBDk4qoslo43R23yaX82cNtUY+6AjcfpXXoa4jQ5ZpdUsAdqxq549PkbArtS2EzTqbkwLGffmlXJ74UdTTQdqAt949hRtJA9PSoNBwZnUg9M8U4KAKMbVwKUY/OgAOOtIQQPrTsd+gFM7ZBznmgTEbk80gQADJ5pMZYk+tPA3HNAxN23k96QZDnjipAo201gCfagQgRWkGfrTXOZM9KUqCpOaYcKBtPT3pAHykEsenSmk988d6QhmILdzwalC4U4oGRoQhPy54oWNZYiANrjofWhxj3pI3OR7UDGqjDG4YwMZqTcQoFSKwIwVBqRY1xuA5HQGmIhRjgIvrT9pWXI5I45ojbLMCMAe1JhQzMR+OaAGlWDfN9alVFzuB6imGY5yFBoDMW4xSAWXdxt79aI4yRknPYilUFieelKxEcZ4zmmAjOsERAOSemKriXJ+c/jSn5lxUB9+KTGi0AokHzde9RSqScM2fSnRPlQpOR71K0bkkEZWgBLdV2kenPNPKnf1wahYunAG36GpId0i/MRuFMRIpYLg8H2p2e47UxwRyPyoDcehoAfv7mmgA8LScmgEr0ouAFcfWoWbjFS7smmFM5zzUsYitxk1IjHHB/GmlSenX0owAmSOaSAA4ZiOxproU+YHNPBBx2pehyOQaYDBJuXpz/Oj+ElsZHbNKFJPH86i34YkmpGPEmVPQ01ZSM010CgSA/Ke1CqHHy/rTAa7d+ppyuMcqf8ACmGPHPekGU5pDJyvQgEUuWGS386YHwvf2zTNx96AJvqcUvPVTxVfefXil3EGgCysxIwQR7mplfjg1RIyvXg1NECFOM/hQBOxbqOtIDnn1pwyBk0UhCYz3pemBQ3tSFn7c/WgBTjtzTTz+dOHPamNgHGeaQChs4BI6d6XHpQE43Zz2xTd3OO1MBdxBHNPJ4+tRfe6dKcpOOnakxjsnAopMgelFCAgUDb0pCoI4zj0NSHJ4XrUZyOo5qhFDVoLyewMWnXX2WdmGZdoYgdwPT61yT+FvERIddYaR85JaWQZ/nzXdfL3pmemK1hVcFZESgmcL/YXi1csb52I7i5Y0x7bxbF1kuG7ZEgP6GvQcmmkVp9ZfVIn2PZnBG68UwjLQTEDsVU/yqSLXPEKA+bYuyj1hP8ASu3J9RTBGHbOAaPbp7xQvZvucbH4o1UMfM09j/wBh/SpR4qvBn/iVSk9xhs/yrrnI6YHHT2qMgN1HP0pe1p/yj5JfzHMJ4ruBjfpc49QMn+lPXxg5fH9nTYPpn/Cui8tSeQPypSgIIx160e0p/yhyy7nPf8ACW9f+Jdde3y0p8Wxg5On3KjuWXFdEEQH7tOKLyAoxS56f8v4j5Zdzmf+EtgC82dyPTinL4vt9pY2two9dvH510HlruyVFDIrYyoz9KfPT/lFyy7nPr4ytGO028+f93pTx4vtlX5bW5JPTK10OwNt4B29PalaJWGWH6U+en/L+Ics+5zo8YR7cfY5ye4A5/QUw+L4s8Wk5+g6V0IgiDDManFS7YwuBGv5Uuen/KHLPucz/wAJaTythOQPQEj+VSDxW2w50yc/7RBx/KugWMEdAB9KjaAbuVGB04o56f8AL+IuWfc50eKJhymmzkHpkHj9KP8AhJ71hkaTKM9zkf0rpBFH02r09KesSKeMCnz0/wCUOWfc5mHXdUm4j0h2U9+R+poOr64QcaSSOo+U5/nXTqduT1pkjE9jzR7SH8ocku5zB1bXmPGnqh9Cp4/Whb/xCwOy2jUjq3H6V1MfXBHanO6qcbfyp+0j/Kg5H3OU8/xEzbjGgI9gP6U8f8JK2WJQDt04/Sum81Dxsx7+tO4I3KM0e08kLkfc5jyvEzfMZ4/wx/hTWg8RlctdIB7f/qrp9rgfMAB7UbMjOADR7V9kHs/M5YWXiAgH7YD7bjT49L8QSKSb7HbJc/yrpdoRcnpRDJ5jn09aPbPsg9ku5zY0zWmYj+0GBHT5jSNpOtpjZfuPcM3P610ssTebvQZHen4YAZ5FP20uyD2aOZ/sTWcEtqRGRjq35Un9hapsI/tNweg5NdOSvBJwaZuz3pOtIPZI5kaJqa8f2gx/E0Lo2pA4+3ye3JFdET1x1pw+bgD86XtpD9lE506JqDN81+4J6nJ/xpf7E1PHGoNjnua6TaQOtSIMCj20g9lE5r+xdVXGNRbbyMb2HFRjRtVB/wCQi5x/tNj+ddWeSajK88Ue2kHsonNHSNXjA/4mBH/AiaT+zdbUcagcZ9/8a6Vhjg0rcDHWj2sg9mjnFsNbIJ+2jjuM80Cy10AD7b3zj1roecdfwFGOcmj2r7IPZruYJtfEB5F0vvkChrfxDj/j5jyB1wP8K6IHtQOCc80e1fZB7NdzmhD4gByZkJ6dB/hTs+IAdoERI6/MP8K6EjLZpuctk8AUe18kHs/MwhP4gC/6uKnLd6990WcJ9T6frW4wbG5RkUYIzxzR7RfyoOR9zn5NQ16SRVFghwMALn/GnnU9WjxH/ZrbgM9c/wBa6SIARgjk1Cy/vCe5pua7ByvuYEms3/8Ay00qU88kcY/Sga9OhxJYTcHjAP8AhXREZznmkwPSlzw/lDkl3MJPEoU/PZTgY5OOBUh8T2hxuhnGf9kf41tAKASFGfpUZijY5aNT9RRzU+wcs+5ljxJYtwWkXHXK9KeniHTSP+PnHvtP+FaDWltyDDGQf9kUxtPsnXa9tEw/3RRen2C0+5CmsaeT/wAfcf48VN/aliy8XcP/AH2BUL6Npzcm0j46HFQN4e06QsfKK54wDii1PzD3zUS5hcfJMhz6MKfuz0INY58L6bjpMrYxxIcVGfDEAK7Lq5Q+qvgilyw7jvPsbbHjAoUnvmsf+w51YFNWvQR2LA1Yis7+BgG1J5UB+7JEvT6jFS4roxpvqi/uxTLlyLC5IGcRsR+RpCDuGOtJdcWNzxzsP8qI7jkef6Cf+Kh08FuNzYHr8hr0FADkngA815/4eCnX9PA6gsfp8hrvQQoPuetVU3IhsWFB3dMDtmpVGOKYjZUYNSYA78+9ZmgmTnGKXrzSEd+KUHI6YoGLjIxSY/Kl6d6Q885oEIRjmlzwKT8aXGecUAKOnNIME0vWk4z70ARSuScAYUcUxRz9akYY5657UbQQPWkAjL065HanK25cYxQB60BsE/pQMXABzSBNuSKUHJpSw9aABR8wHrTZp1UbU6ikkkCoAM7m/SoNvIouBPG5KktjFJIuGyDuWoc/Lj3qVfun0NMBVwVx6UqgMSM03awHHT600eq0gJ1fYuMcnikdQAMnk9qZK+UDDqOoqR5AVBAB4pgQFsDbioiMipG5ak+6aQDYz83HX3q0kny4PWq20bsg96eaAFJJb5ialQBSGFQbuecY9akjkB49aYErNnmmkhj0xUbvhuOKYJCG5oAnyQcg5FKG3fWkUA80OAx56+opAOB9KQkE8Go2yvBPHrSHPODzQBMvY0kmeNppEJCgGn44FAEEhAxninq6bQDmidQwBBC461Ei+nOaBlgBcgrTXVTnoT701kdSCBSbz0INIBoG7hugqT5doH60w5x0696jwfrSAeFBbrmlKDPWhQBg+lGGbkUgHbNwwOlBgUdG/Gn4IjPHPemA4HNAEWwgnkU5UCnBoLAvgUDgk9R70DHFVGDk1IOvU1FhW6cU/wAsFcZOKAJ2HQikzikQ7V2tjp1pJOmQPrQIUnHNLuxiow2RyeaRvu4GTSAe0nOQOKixvbLdaF3Dj2pVJ6EUAP3bV+tIozkZ4pMbutNB2HAJNAyXbjoOKXHHWk8wYpNwz6GgBwXpRTGkAHvRQBEuVIz+dNkNO49ajbmmIAeMDqaDyacAMUmOaBhnGRn3pM+poNIDjrQAuAetNYkDaP0pSwpG6YBoEMABPIp2B2pop+MDNMBCO/Wm7stinjB4NJtQc45oASnK3rSBx0I4p+1M8dqdxDGAYZqNRnjpU20c+lZWs63b6PCryqzO/wB1VHX6ntVRTk7ITaSuzTRtj7Tk+5p7HPtXn0PiV7jVone78iEuNwC8AZ6d+o7116a/o7xbl1K3x23Pgn860nRnHdERqxkXxgZp2Pass69pWN39oW3Bx/rR1pRr+l/9BCAH/fqPZz7Fcy7mrkAU0nNZZ8R6SFyb6EZOOGpv/CTaODzfIMd8Mf5Cn7KfYXPHua2OKNuRmsj/AISnRwD/AKUDgdlJ/pUbeLtJyQs7HHoh5p+yn2B1I9zaxtXHanMg2hs5+lYJ8W6Xz+9c/ROlRnxhpqnH70r/ALKZ/rT9jU7C9pHudABjmkI3d651vGFkpYhJse6D/GkHjKxP/LGfP+6P8aaoVOwvaw7nQ4wchfzp6njnrXOJ40tB/wAu0xH0Aph8ZwE8Wkn/AH0KpYep2F7aHc6dj8vJxSeYMccn1rln8YwuBi2cY9CKT/hLosn/AEaTA6YYc0nQqdg9rDudQX3kBhxSj5ORXK/8JfGDk2j8f7VH/CYA9LVsf74/wo9hU7D9rDudYzlkI4zTFbauK5RfGADnNoxHT7//ANant4tjJGLRyD6uB/Sn7Cp2F7WHc6c8nJ5o5Brlz4vTdn7M+c/3/wD61H/CYLkE2rbfQOM0vq9TsP20O50xBGSe/SnJ65rl28XRsy7rZ9voHH+FOHi+EAgWr57DcKPq9TsHtodzq92BQCc461yqeL4y3Ns+P98VKPGFuOtrL7kMKPq9TsL20O51HbrQBXM/8Jjbn/l1l/MU5fGFr3tpv0o9hU7B7aHc6JhUMhYJlTWL/wAJfZ8/6PP+Q/xqJ/Ftpg4gmH4D/Gl7Cp2H7WHc6BXyvHX0qQZ2ciuZj8VWgPzRT49gP8asDxfZAZ8i4/75H+NHsanYPaw7m7uxxSdPxrnG8XWoBPkT/kP8aF8W2xYEW82B0zgUewqdg9rDudOFz1NNZMtnFcyfGMYHy2Tn0zIB/So38Zux2x2YU46mTP8ASmsPU7B7eHc6wER9CTUU9xDZW815cvtiRc+//wCuuOfxPqsw2xxRxn1RM/zphsdV1uMpcGZgf7xwB/n+laxw1tZuyIdb+VHV6TrNlq8EktjIzKjYZGXDLnOM/XFW3cuQwHSs3w3oK6FDMDL5kk5Bf0GOgH5mtZlySByKxqKPM1HY1g3bUaG460oORyOaY0W0cHj3pVIxWRQ8daXpQAD2pOtAwJJYseaXBxx0pDgUmSDQIUt0HpTdxPehz85ODgDNQxneu8dzQBZySKMc5pM7eO9Ju45oGLv5pjkEAk4zQzEPtxzTlycDjANIBpDKhI69qq3O5dOu3bOfLb+Rq3vbednIJ5yKh1ID+yrveeDC+cf7prSO5Mtjz7wtOr+IrIHhiGH/AI6a9GRUJ2sDnrXnHheEDxNYtnB+Y49fkNejxSgSAPnB71U9yIbFgIqAbE9ec0Bd2TxnNJIABgNg00JhDhhk1mzQlC54pCV5U53etQo7glcnAFTko4BVhnFADDuUYPPvTlPYnrTSSCOcUiEk8jjoDSAkPHekDUnIBDU0DDZzQMevJPTFJnq1OCkx8DJNJjapyetAiPHz7u1P69KMcYHbpTA2MHmkMkPvTT1oPWlHTJOBQAgzjpzSA4PPIoY55BwKRlIPbFAA/wC8YHvTFHzc9KVzngdKReGzigBGQnjFPwcYNBBxwelRtxjmgCVWUDr+FJt9Dj0FRA0oYDjJoACNkmc5B4IpyKfKLE98AUBwG+YZqUgFPlPHpTAiYYAYUxhkA07LAnPGKQtkYpAIp+XnqKlAPakjjJQlh82aQZJG0/WgBWO5ssuCRg8U3O0gqBjvSyhyRzxSgE8DFMBxALZB7dqjaPfyuMipBGxwehzUoQdeAe9AEQygpCxJ4zTnLZP8Q96aTx8pwaAF3HHzAMKXywrZTkehpoDDOfqKeBn5sUABOCMjFO79aGGYzgZxUWcD0pAT8MMECmnEY44FMRiaN7FSGX9aAEkm+YbOg6mpN2V9TUClM8jFKu8HA59qLjEaQlsZ6U0OM4NOZDyWwDUaAVLAlGKXdhuBSL6d6kBHPpSAjJZj1607ouMU5QB3+lKeR1oAg8o7t2cYp3rUmQRTGAHSgYq8HmnjO49cVBu9TUyuGHWkIGCkHdn2pAZFBGM8fnTyuRzQAOhoAr+ZluhU981Kr8e9MlGSOPxpAMIDnJ70xku7PNHLHIGajXcegp6ls0hD6Nq456U8DcfelKHHTrQMgH3yvvTpBgZ7UuznPOKcwyuKAK4ZgwIPHvRT8AD6UUrgRg8Umc0rD5Pwpp+8fxqhCgkHpijOBzSS/fWkxjpSAD+lMLZ4FB+6frTR96mA7OBRuGMUnrTfT6UhigjipASagX7tSxnkU0IViwbpTCSTTpOI6Re9ABw1KVbqOaQfep69qABVOM8g+lVr3TLTU4vKu4VkVclc9QfY9ulXe1MH3xVptaolq+hyUvw/sW/1V1Oh/Aj9aqyfDxQSP7S/8hZ/rXbjrTW+/WyxFTuZ+yj2OJ/4V8ygN/aOeOR5P/2VPj8Ao5w185OOSFFdk1EP36f1mp3F7KHY5QeAoFbc17Lj0CjP5/8A1qePA1oFAN5Pn/gP+FdaepqM9RS+sVO4eyh2OaXwPYDG64uGPfkfpxTx4I0zHEtxj3cf4V0Y6CnD/Vil7ep3D2UOxzw8G6Z1LTn2304+D9KB6TEenmGtw9TSt9wUvb1O4ezh2MP/AIRHSkbd5chHoZD/AI1JF4V0fB3Qtn/ro3T862ZPufhUafeFP2s+4+SPYzn8N6QMAWgyOpLk/wBaQeH9L6C1jwe1aR6tSL981DqT7lckexRGh6Wq/wDHlF/3znFB0jTGAUWUIAGOFq+Pun61AOppe0l3HyR7FcaNpuMfY4sdxsFPGj6YuR9igwe3lira9Ka3+so55dw5Y9io+k6eRg2UOPQIAKkTStM2gGxtxj0jHPfmrB6U9elNTl3Dlj2KbaPpSkMLOLPugIpo0rTGk+aygH0QYq7J/q6hHD8U+eXcnlXYqNoWnRsP9GjI6coKf/Y+mtz9ihz67avS9B9TTE70+eXcOVdiqdD0thzZRYx6Uf2DpWOLOLH0q+ORSr9yjnl3Dlj2M9tB0xhj7HGOeoFC+H9LPP2ZRWh6/Wg8LTU5dw5I9jPHhvSsY+zD67iKY3h3S84W1GT1O4/41rdqYn36XtJ9xKEexiHw7pqTbfJOMf3jUh8O6Xni3/8AHjV64++foKenaj2k+4+SPYof8I5pYTH2b/x4/wCNL/YOlKMfZVPqcnNaLdKjHaj2k+4+SPYrLo+mR9LROexFSLp1pjC20Q+iCp4xluaeON2OKXPJ9Q5Y9hkdtEmNqKMdOKtKVWIknB7moT1qb/lmaE7jasOjCspOQc96ReMnsO1RWJ++P9qpm6D6UwGby6kr1HaoWyvzDHvUyk561HL0f61LGhUfcOtSDP41Xg+8v0NWB1FIYhbn+VNznOaU/epO5oAUklRxwaRQM4XAA9Knj+4KjPVj3zQBHuJJp67c/MeKQAZ6VXJPm4yaQE0mSSepHfFAXaACcsetOfhPyph+/wDgaYD+Bz/KodUydHu8f88WGD9DUinr9ai1D/kF3H/XN/8A0E1cNyZbHB+G1P8AwkFnkf38/wDfJr0BevSuA8P/APIwWX1f/wBANd9HTqbk09iwHDKARmgIhb734U1OtDj5h9f8KgseTsYqelHUbj06Ukn3RTovuCkA0NkENjHb2pRuUY25zQP6mrB6GgZXLMxyacJMHkVJ61EvU/SgAdi3Kkj2FRqcsc9/epCBUQ7fWgCVeAOKYw6nHAqRvvD6Co1+8aAEzkDFIWJGD26UsPeop+jD/PSgCwpHG7kUwtuY46dqF6GhPu0gBT60Y5zR2/CgUgD1JNRseDmnjvUbD5DTAAeBQwKnOOKWPo3+e1QXJO4c96AJRtK8n6VIJf7g/PpVcdamX7p+lAExCz5KnnHSoQpIJ9OtKOG444FAP74/570NAPMmI/lPOO/aokY5yKaetEfYUAWA4OFbOPWlcCN8g8GmCmSfepgS7yp+9ThJ+Z4qu3LL9aevegCZW+frTZRhgVWmnt9aJfvfhTAcHCqR37VEGZchjxmlb/V/iKY33VpMCwrFk4ODSKn95qSPqPpTG/pSAkzsPBzQjgttbv3pjfd/Kmd1/GkMkcYJx0pAcYI69qD1pi/eH4/zpMCUnzD8xwaYcDjjNDdB9KCBk/hQA5eox3pWizgjrSIOamX/AFYpARk7QAeKTODmkm++o9qVP8/maAFyNtRPIaATu6+v86i6mgBS2T7UqnDDHWgdvxpV6fhSGWlYHrjNDHFRD7h+tSnmgQxge9MI54/GpZuCuPWoj9+mAhbHGOKeh45pjAYP4U6L7lICwj8U8uCOKi/hpP8AlmfpQMkzTT19qRPuD6Ckb79IBQO1FMH3zRQhn//Z;movable=0;resizable=0;rotatable=0;deletable=0;editable=0;connectable=0;opacity=30;" vertex="1" parent="1">
          <mxGeometry x="20" y="1118" width="1413.33" height="1060" as="geometry" />
        </mxCell>
        <mxCell id="PNLS9gLG13Q5mSHf56RZ-2" value="&lt;div&gt;$$\frac{\delta \int X_{R^{@[x_i]}}}{\delta \int X_{V^{@[x_i]}}}$$&lt;/div&gt;&lt;div&gt;&lt;br&gt;&lt;/div&gt;" style="text;html=1;strokeColor=none;fillColor=none;align=center;verticalAlign=middle;whiteSpace=wrap;rounded=0;fontSize=44;" vertex="1" parent="1">
          <mxGeometry x="130" y="1480" width="590" height="510" as="geometry" />
        </mxCell>
        <mxCell id="PNLS9gLG13Q5mSHf56RZ-4" value="&lt;div&gt;$$\frac{\delta \overrightarrow{V}_R}{\delta \overrightarrow{R}_V}$$&lt;/div&gt;&lt;div&gt;&lt;br&gt;&lt;/div&gt;" style="text;html=1;strokeColor=none;fillColor=none;align=center;verticalAlign=middle;whiteSpace=wrap;rounded=0;fontSize=44;opacity=30;" vertex="1" parent="1">
          <mxGeometry x="443" y="1562" width="620" height="340" as="geometry" />
        </mxCell>
      </root>
    </mxGraphModel>
  </diagram>
</mxfile>
